{"glyphs":{"0":{"ha":813,"x_min":74,"x_max":783,"o":"m 355 96 l 380 96 q 465 132 423 96 q 595 376 557 209 q 621 559 621 488 l 621 604 q 588 745 621 692 q 496 798 555 798 l 487 798 q 323 675 392 798 q 261 507 285 608 q 238 334 238 405 l 238 290 q 272 149 238 201 q 355 96 306 96 m 783 596 l 783 570 l 783 556 q 744 327 783 446 q 506 14 669 95 q 355 -23 433 -23 l 341 -22 l 327 -22 q 219 5 269 -22 q 137 75 170 33 q 74 311 74 157 l 74 324 q 74 328 74 326 q 109 552 74 433 q 351 880 179 796 q 503 916 425 916 l 517 916 q 721 820 648 916 q 783 596 783 738 z "},"1":{"ha":594,"x_min":125,"x_max":514,"o":"m 125 58 q 178 169 125 118 q 245 273 231 219 q 308 660 308 512 q 252 699 308 691 q 170 746 170 711 q 250 827 170 781 q 462 910 396 910 l 474 910 q 514 872 514 910 q 462 584 514 851 q 410 258 410 316 q 430 198 410 235 q 451 113 451 161 q 409 32 451 64 q 298 0 366 0 l 241 0 q 168 12 191 0 q 125 58 125 34 z "},"2":{"ha":734,"x_min":47,"x_max":709,"o":"m 537 679 q 507 758 537 731 q 425 785 477 785 q 311 723 372 785 q 199 661 250 661 q 169 705 169 661 q 263 853 169 791 q 456 915 357 915 l 477 915 q 646 858 584 915 q 709 716 709 802 l 709 696 q 612 475 709 595 q 428 295 565 415 q 290 153 290 176 q 374 138 290 138 q 521 152 458 138 q 600 166 583 166 q 631 113 631 166 q 590 30 631 60 q 469 -1 549 -1 l 363 -1 l 342 0 l 279 0 q 91 3 111 0 q 47 48 47 9 q 100 146 47 87 q 274 316 124 172 q 460 505 425 460 q 537 679 537 603 z "},"3":{"ha":734,"x_min":43,"x_max":682,"o":"m 512 703 q 491 761 512 743 q 417 779 469 779 q 341 755 402 779 q 236 731 279 731 q 193 775 193 731 q 259 870 193 836 q 473 916 349 916 l 494 916 q 631 882 581 916 q 682 774 682 847 l 682 755 q 640 625 682 692 q 603 575 618 591 q 557 533 587 559 q 528 504 528 507 q 565 469 528 494 q 626 404 601 443 q 652 301 652 365 q 544 71 652 165 q 279 -24 436 -24 q 116 11 189 -24 q 43 94 43 45 q 64 138 43 115 q 113 161 85 161 q 203 131 140 161 q 310 102 267 102 q 442 157 393 102 q 490 295 490 212 q 386 411 490 379 l 318 432 q 292 473 292 448 q 354 540 292 509 q 512 703 512 618 z "},"4":{"ha":762,"x_min":56,"x_max":693,"o":"m 224 315 l 296 315 l 302 315 l 323 315 l 328 315 q 447 330 437 315 q 480 490 448 332 q 511 657 511 648 l 511 661 l 510 661 q 466 609 509 661 q 391 521 422 556 q 218 317 218 332 q 224 315 218 315 m 525 832 q 636 888 578 888 q 693 844 693 888 q 657 637 693 840 q 621 404 621 435 q 636 339 621 372 q 668 296 650 307 q 686 273 686 286 q 664 205 686 235 q 621 165 642 174 q 594 143 600 156 q 585 104 588 130 q 554 -3 577 28 q 469 -35 532 -35 l 439 -35 q 380 -26 395 -35 q 364 21 364 -18 q 376 99 364 59 q 388 142 388 138 q 303 186 388 164 q 185 194 275 194 q 76 207 95 194 q 56 262 56 220 q 94 330 56 281 q 525 832 281 581 z "},"5":{"ha":737,"x_min":48,"x_max":722,"o":"m 301 590 q 330 570 301 570 l 349 572 l 370 574 q 426 575 386 575 q 518 557 467 575 q 602 505 569 538 q 667 334 667 437 q 564 85 667 186 q 441 5 512 35 q 296 -24 370 -24 l 274 -24 q 121 7 194 -24 q 48 72 48 38 l 48 90 q 71 132 48 112 q 120 153 94 153 q 206 125 147 153 q 301 98 265 98 q 447 157 389 98 q 505 297 505 214 q 347 450 505 450 q 272 441 323 450 q 210 433 220 433 q 157 479 157 433 q 196 681 157 521 q 249 867 235 841 q 302 901 263 893 q 408 904 319 904 q 572 909 496 904 q 659 913 648 913 l 678 913 q 722 880 722 913 q 673 783 722 811 q 577 768 649 768 l 451 772 q 345 743 365 772 q 301 590 301 680 z "},"6":{"ha":761,"x_min":79,"x_max":705,"o":"m 396 468 q 281 407 328 468 q 235 263 235 346 l 235 240 q 270 136 235 178 q 361 94 304 94 l 367 94 q 494 164 440 94 q 547 317 547 233 l 547 339 q 513 432 547 395 q 423 469 479 469 l 412 469 q 396 468 401 468 m 79 275 q 125 502 79 380 q 250 716 171 625 q 435 858 329 808 q 623 909 541 909 q 705 861 705 909 q 674 819 705 836 q 576 787 662 812 q 438 721 491 763 q 359 636 386 678 q 333 575 333 594 q 356 557 333 557 q 412 563 380 557 q 488 569 444 569 q 651 498 585 569 q 703 323 703 443 q 671 191 703 259 q 485 5 608 54 q 349 -23 417 -23 q 100 127 159 -23 q 79 241 79 184 l 79 275 z "},"7":{"ha":711,"x_min":117,"x_max":744,"o":"m 744 865 l 744 851 q 715 778 744 829 q 278 24 373 176 q 186 -18 252 -18 l 170 -18 q 117 7 117 -18 q 378 480 117 81 q 538 738 538 726 q 431 768 538 768 q 260 752 323 768 q 183 735 197 735 q 142 780 142 735 q 165 867 142 841 q 268 906 202 906 l 284 906 l 301 905 l 486 903 q 704 901 692 903 q 744 865 744 895 z "},"8":{"ha":759,"x_min":62,"x_max":739,"o":"m 487 817 l 469 817 q 374 773 413 817 q 335 683 335 730 l 335 658 q 371 584 335 616 q 444 552 407 552 l 456 552 q 543 605 503 552 q 584 705 584 657 l 584 726 q 555 792 584 767 q 487 817 526 817 m 366 89 q 488 147 440 89 q 535 273 535 205 l 535 278 q 495 377 535 333 q 399 422 454 422 l 379 422 q 261 340 322 422 q 222 221 222 288 l 222 216 q 252 127 222 165 q 333 90 283 90 l 344 89 l 366 89 m 181 656 q 267 848 181 772 q 366 906 308 884 q 480 928 423 928 l 511 928 q 674 876 610 928 q 739 739 739 824 q 716 636 739 680 q 645 544 694 593 q 596 483 596 495 q 626 451 596 481 q 675 383 656 421 q 694 285 694 345 q 667 167 693 225 q 481 0 614 50 q 353 -25 414 -25 l 321 -25 q 134 35 205 -25 q 62 187 62 94 l 62 202 q 176 425 62 329 q 248 489 248 486 q 234 512 248 492 q 200 568 219 532 q 181 656 181 604 z "},"9":{"ha":760,"x_min":107,"x_max":743,"o":"m 587 639 q 549 744 587 706 q 465 782 511 782 l 459 782 l 454 781 q 334 720 391 781 q 277 576 277 658 l 276 565 l 276 543 q 310 448 276 485 q 390 410 344 410 l 418 410 q 535 465 485 410 q 585 599 585 520 l 587 610 l 587 639 m 120 523 q 224 795 120 690 q 484 899 329 899 q 675 826 603 899 q 724 742 705 794 q 743 631 743 690 l 743 597 q 691 359 743 480 q 570 154 640 238 q 396 20 500 71 q 216 -31 293 -31 l 187 -31 q 125 -16 144 -31 q 107 20 107 -1 q 215 89 107 67 q 380 153 323 111 q 461 235 437 195 q 486 300 486 275 q 442 320 486 320 q 404 315 435 320 q 334 310 374 310 q 250 328 295 310 q 175 377 204 346 q 120 523 120 435 z "},"\u0000":{"ha":781,"x_min":36,"x_max":741,"o":"m 552 44 q 626 51 626 44 q 458 310 626 65 q 421 366 452 318 q 387 414 390 414 l 354 363 l 351 357 l 325 318 q 317 307 322 313 q 150 47 150 63 q 162 47 150 47 l 169 46 l 175 45 l 222 44 l 552 44 m 102 492 l 102 242 q 105 109 102 109 q 180 218 109 109 l 221 279 q 245 315 236 302 q 268 350 254 328 q 315 418 283 372 q 347 467 347 463 l 347 474 q 257 610 347 479 q 163 749 168 741 l 104 835 q 102 492 102 835 m 673 431 l 673 511 q 670 836 673 836 q 633 785 667 836 q 514 611 600 734 q 429 477 429 488 q 480 391 429 465 q 599 214 532 317 q 670 112 666 112 q 673 431 673 112 m 459 903 l 438 903 l 431 902 l 390 902 q 149 896 149 902 q 184 839 149 890 q 238 759 219 788 q 271 709 256 730 q 336 611 286 688 q 390 533 387 533 q 433 594 393 533 q 478 664 472 654 q 494 687 484 673 l 577 813 q 631 897 631 890 q 459 903 631 903 m 36 27 l 36 163 l 37 180 l 37 486 q 38 958 37 955 q 94 970 43 970 l 667 970 q 737 959 734 970 q 740 686 740 948 l 740 399 l 741 331 l 741 9 q 719 -17 741 -15 q 532 -20 698 -20 l 227 -20 q 43 -16 50 -20 q 36 27 36 -12 z "}," ":{"ha":380,"x_min":0,"x_max":0,"o":""},"!":{"ha":425,"x_min":78,"x_max":400,"o":"m 400 943 q 344 662 400 932 q 269 321 288 393 q 202 277 258 277 l 194 277 q 152 300 152 277 l 152 308 q 172 480 152 311 l 176 513 l 178 522 l 189 606 q 207 756 191 623 q 236 929 223 888 q 338 970 249 970 l 346 970 q 400 943 400 970 m 172 -11 l 146 -11 q 136 -9 140 -9 q 78 53 78 -9 l 78 73 q 110 159 78 122 q 178 182 130 182 l 197 182 q 248 168 228 182 q 267 131 267 154 q 269 121 269 125 l 269 109 l 269 106 q 243 19 269 49 q 172 -11 217 -11 z "},"\"":{"ha":556,"x_min":150,"x_max":562,"o":"m 186 919 q 233 969 186 969 l 238 970 l 242 970 l 294 972 q 329 962 329 972 l 329 958 q 316 894 329 939 q 298 823 303 849 q 273 729 292 798 q 250 652 254 661 q 206 616 236 616 l 193 614 l 176 614 q 150 633 150 614 l 170 781 l 173 804 q 186 919 186 895 m 412 912 q 412 930 412 912 q 430 960 412 947 q 508 972 448 972 l 522 972 q 562 962 562 972 l 562 954 q 549 885 562 926 q 533 828 537 845 q 515 762 530 811 l 511 747 q 480 646 488 664 q 425 614 467 614 l 407 614 q 380 634 380 614 l 396 758 l 399 781 q 402 805 402 800 l 404 819 q 412 912 412 876 z "},"#":{"ha":840,"x_min":58,"x_max":825,"o":"m 338 394 l 338 389 q 353 385 338 385 l 465 385 q 496 395 491 385 q 543 557 543 490 l 543 562 q 538 566 543 566 l 407 566 q 385 553 389 566 q 338 394 338 397 m 445 245 q 382 271 445 271 q 303 254 319 271 q 274 178 297 248 q 237 85 250 107 q 159 37 209 37 q 122 85 122 37 l 128 108 q 148 217 148 180 q 115 273 148 255 q 58 321 58 302 q 145 385 58 370 q 203 402 192 393 q 233 463 214 412 q 252 541 252 514 q 192 568 252 568 q 132 591 132 568 q 164 666 132 641 q 230 683 180 678 q 297 705 281 688 q 339 804 313 723 q 377 902 364 884 q 436 919 391 919 q 481 881 481 919 q 458 791 481 869 q 435 705 435 714 q 518 680 435 680 q 576 691 565 680 q 609 780 587 703 q 652 886 631 857 q 715 916 673 916 q 756 888 756 916 q 742 818 756 870 q 727 736 727 765 q 734 699 727 707 q 783 681 741 691 q 825 652 825 671 q 795 583 825 604 q 734 570 781 572 q 676 559 687 568 q 648 495 666 550 q 630 414 630 439 q 665 390 630 395 l 687 389 q 726 382 716 387 q 744 338 744 373 q 716 287 744 303 q 656 275 701 278 q 591 255 611 273 q 543 153 571 238 q 504 51 515 67 q 450 35 492 35 l 427 35 q 401 70 401 35 q 423 157 401 82 q 445 245 445 232 z "},"$":{"ha":749,"x_min":66,"x_max":734,"o":"m 406 633 q 427 736 427 724 l 431 760 q 435 777 435 773 l 439 797 q 441 808 439 798 l 441 816 q 435 821 441 821 l 430 821 q 345 780 381 821 q 309 697 309 738 l 309 678 q 311 663 311 670 q 341 613 311 643 q 388 583 371 583 l 390 583 q 406 633 406 583 m 541 260 l 541 277 q 510 346 541 311 q 454 382 479 382 l 451 382 q 429 307 429 382 l 411 216 q 393 126 393 127 l 393 123 q 400 115 393 115 l 404 115 q 500 162 459 115 q 541 260 541 210 m 340 -96 q 334 -103 340 -96 q 300 -110 328 -110 q 266 -71 273 -110 q 245 0 254 -5 q 206 16 237 5 q 93 77 121 45 q 66 149 66 109 q 81 213 66 189 q 125 237 97 237 q 200 190 154 237 q 275 142 247 142 q 310 182 297 142 q 347 378 347 299 q 282 461 347 413 q 190 549 217 509 q 162 654 162 590 q 224 825 162 756 q 358 910 270 875 q 477 994 447 945 q 529 1027 498 1027 q 575 961 531 1027 q 671 899 595 931 q 716 864 699 888 q 734 810 734 841 q 716 753 734 779 q 673 727 698 727 q 611 756 648 727 q 557 786 574 786 q 528 760 540 786 q 489 583 489 671 q 558 506 489 547 q 661 422 627 465 q 694 307 694 380 q 498 31 694 113 l 441 10 q 387 -14 394 -8 q 367 -51 380 -19 q 340 -96 353 -82 z "},"%":{"ha":1037,"x_min":141,"x_max":991,"o":"m 426 745 l 426 774 q 408 833 426 812 q 368 854 391 854 l 361 854 q 294 813 321 854 q 257 712 257 757 q 254 692 254 696 l 254 685 l 254 673 l 253 666 l 254 662 l 254 654 l 255 640 q 271 596 255 615 q 304 577 288 577 l 311 576 l 318 576 l 322 576 q 395 632 364 576 q 426 745 426 687 m 867 307 q 851 368 867 349 q 817 387 834 387 l 802 387 q 720 320 753 387 q 687 189 687 254 l 687 177 l 688 173 l 688 165 q 689 145 689 157 q 705 114 689 132 q 745 96 720 96 q 825 147 785 96 q 865 267 865 198 l 867 283 l 867 291 l 867 303 l 867 307 m 376 933 l 399 933 q 507 890 460 933 q 553 770 553 847 l 553 749 q 484 560 553 646 q 406 497 452 520 q 317 474 359 474 l 296 474 q 185 521 229 474 q 141 637 141 568 l 141 667 q 214 852 141 768 q 290 911 246 889 q 376 933 334 933 m 892 929 l 916 929 q 966 914 966 929 q 325 113 966 888 q 214 28 254 28 l 202 28 q 141 44 141 28 q 788 852 141 70 q 892 929 852 929 m 814 468 l 829 468 q 946 422 900 468 q 991 298 991 376 l 991 283 q 919 87 991 176 q 844 28 890 52 q 755 5 798 5 l 732 5 q 615 53 659 5 q 570 176 570 101 l 570 191 q 643 387 570 303 q 726 448 679 428 q 814 468 773 468 z "},"&":{"ha":960,"x_min":88,"x_max":945,"o":"m 447 725 q 449 699 449 715 q 467 651 449 683 q 492 618 485 618 l 495 618 q 592 687 524 618 q 639 784 639 734 l 639 806 q 620 851 639 831 q 575 870 600 870 l 552 870 q 480 834 512 870 q 449 765 449 798 l 447 747 l 447 725 m 383 106 l 416 106 q 547 149 478 106 q 573 177 573 165 l 573 180 q 460 353 573 182 q 387 430 408 430 q 310 364 357 430 q 262 243 262 298 l 262 218 q 298 139 262 172 q 383 106 335 106 m 766 800 q 687 631 766 776 q 608 475 608 486 q 627 425 608 449 q 703 376 665 376 q 722 405 705 376 q 787 471 739 433 q 890 509 836 509 q 945 481 945 509 l 945 469 q 879 343 945 431 q 812 218 812 255 q 841 137 812 181 q 869 57 869 94 q 834 20 869 20 q 761 33 809 20 q 689 46 712 46 q 519 18 667 46 q 365 -9 372 -9 l 343 -9 q 157 50 225 -9 q 88 192 88 109 l 88 212 q 258 488 88 365 q 298 519 294 515 q 317 581 317 547 q 303 635 317 585 q 290 728 290 686 q 369 902 290 828 q 571 975 448 975 q 714 931 663 975 q 766 800 766 888 z "},"'":{"ha":335,"x_min":159,"x_max":342,"o":"m 314 981 q 342 971 342 981 l 342 968 q 261 659 342 871 q 208 623 247 623 l 181 623 q 159 643 159 623 l 159 648 q 164 690 164 680 l 168 714 q 170 739 170 733 l 174 767 q 183 834 182 819 q 188 878 184 848 q 191 930 191 907 q 242 979 191 978 l 247 979 l 251 980 l 282 981 l 314 981 z "},"(":{"ha":505,"x_min":111,"x_max":555,"o":"m 307 -72 q 329 -121 307 -72 q 351 -186 351 -171 q 332 -218 351 -202 q 290 -234 312 -234 l 277 -234 q 213 -181 248 -234 q 153 -54 178 -128 q 111 208 111 64 l 111 223 l 112 237 q 235 737 112 485 q 372 940 290 850 q 504 1029 453 1029 q 555 991 555 1029 q 507 918 555 971 q 332 615 403 803 q 262 227 262 427 q 307 -72 262 28 z "},")":{"ha":502,"x_min":-8,"x_max":430,"o":"m 233 888 q 195 985 195 974 q 212 1013 195 997 q 258 1029 227 1029 q 260 1029 259 1029 q 386 853 319 1029 q 430 593 430 736 l 430 564 l 429 549 q 396 304 429 433 q 169 -141 328 40 q 46 -235 87 -235 l 34 -235 q -8 -199 -8 -235 q 27 -137 -8 -178 q 114 -23 63 -97 q 212 180 164 50 q 284 571 284 372 q 233 888 284 771 z "},"*":{"ha":627,"x_min":172,"x_max":608,"o":"m 403 541 q 389 537 396 537 q 372 531 382 537 q 357 522 363 524 q 320 504 352 520 q 280 488 288 488 q 252 525 265 488 q 208 562 243 550 q 172 622 172 574 l 172 630 q 185 675 172 652 q 202 702 199 698 q 205 707 205 706 l 202 711 l 192 722 q 182 751 189 726 q 175 789 175 776 q 196 821 175 802 q 228 841 216 841 q 267 829 239 841 q 309 817 294 817 q 333 849 329 817 q 361 919 339 901 q 438 937 383 937 q 439 937 438 937 q 458 910 458 937 q 451 822 458 858 q 445 785 444 785 q 492 807 447 785 q 554 829 538 829 q 590 811 571 829 q 608 776 608 793 l 608 767 q 550 706 608 737 q 491 668 491 675 q 510 638 491 661 q 529 557 529 616 q 490 523 529 523 q 424 533 451 523 l 403 541 z "},"+":{"ha":741,"x_min":85,"x_max":697,"o":"m 424 712 l 460 712 q 487 690 487 712 q 475 579 487 662 q 464 477 464 496 q 568 468 464 468 q 680 465 671 468 q 697 435 697 460 q 671 352 697 364 q 556 347 660 347 q 448 341 453 347 q 431 235 442 336 q 414 120 420 134 q 345 98 406 98 l 334 98 q 293 130 293 98 q 304 237 293 138 l 307 249 l 309 273 q 317 332 317 310 q 215 347 317 347 q 104 349 113 347 q 85 376 85 353 q 108 461 85 448 q 222 468 119 468 q 331 473 325 468 q 349 578 338 478 q 368 695 360 679 q 424 712 375 712 z "},",":{"ha":380,"x_min":28,"x_max":265,"o":"m 28 -163 l 28 -156 q 59 -104 28 -155 q 90 -32 90 -54 q 84 16 90 -9 q 78 59 78 40 q 164 170 78 170 l 169 171 l 174 172 l 191 172 l 201 172 q 265 145 265 172 l 265 131 q 199 -65 265 42 q 109 -172 155 -137 q 73 -187 88 -187 l 64 -187 q 28 -163 28 -187 z "},"-":{"ha":553,"x_min":94,"x_max":497,"o":"m 497 429 l 497 416 q 471 326 497 342 q 280 321 463 321 l 250 321 l 229 321 l 112 321 q 94 337 94 321 l 95 342 l 95 347 q 121 436 95 420 q 312 441 129 441 l 347 441 l 480 441 q 497 429 497 441 z "},".":{"ha":376,"x_min":71,"x_max":264,"o":"m 149 -11 q 71 48 71 -11 l 71 74 q 73 91 73 84 q 106 164 73 131 q 173 184 127 184 l 193 184 q 209 182 203 182 q 262 135 262 182 l 264 116 l 264 106 q 229 9 264 40 q 176 -9 208 -9 q 165 -10 169 -10 l 153 -11 l 149 -11 z "},"/":{"ha":588,"x_min":-28,"x_max":667,"o":"m 589 1002 l 602 1002 q 667 985 667 1002 q 403 477 667 977 q 117 -58 139 -22 q 30 -106 87 -106 q -28 -90 -28 -106 q 5 -20 -28 -83 q 516 945 484 888 q 589 1002 549 1002 z "},":":{"ha":408,"x_min":81,"x_max":357,"o":"m 262 646 l 289 646 q 357 585 357 646 l 357 568 q 334 491 357 527 q 274 455 312 455 q 264 454 267 454 l 252 452 l 235 452 q 218 454 224 454 q 166 498 166 454 q 165 508 165 505 l 163 524 l 163 527 l 164 530 q 193 618 164 572 q 246 644 209 644 q 262 646 260 646 m 174 -9 l 153 -9 q 98 7 114 -9 q 81 58 81 23 l 81 71 q 115 161 81 123 q 166 182 133 182 q 176 184 173 184 l 189 185 l 203 185 q 218 183 213 183 q 275 117 275 183 l 275 108 q 241 14 275 52 q 174 -9 222 -9 z "},";":{"ha":399,"x_min":47,"x_max":362,"o":"m 175 525 l 177 545 q 202 605 177 576 q 264 634 227 634 l 279 636 l 298 636 l 317 633 q 359 593 359 633 q 361 585 361 585 l 362 572 l 362 563 q 332 473 362 522 q 279 449 316 449 q 267 447 269 447 l 250 446 l 241 446 q 225 448 231 448 q 174 503 174 448 l 174 522 l 175 525 m 104 -4 l 94 56 l 94 70 q 95 84 95 79 q 205 176 95 176 l 216 176 q 278 144 278 176 l 278 130 q 234 -22 278 59 q 133 -156 191 -104 q 90 -178 109 -178 l 81 -178 q 47 -148 47 -178 l 47 -145 q 77 -94 47 -141 q 106 -18 106 -46 l 104 -4 z "},"<":{"ha":736,"x_min":92,"x_max":698,"o":"m 283 401 q 420 311 283 395 q 578 212 557 227 q 629 138 629 174 q 615 87 629 103 q 587 71 602 71 q 528 94 572 71 q 130 336 353 184 q 92 389 92 361 l 92 401 q 136 465 92 436 q 560 691 307 579 q 673 734 657 734 q 698 691 698 734 q 633 602 698 649 q 444 498 604 581 q 283 401 283 416 z "},"=":{"ha":788,"x_min":87,"x_max":734,"o":"m 167 587 l 716 587 q 734 570 734 587 l 734 564 q 699 474 734 482 q 410 471 687 471 l 165 471 q 118 488 118 471 l 118 495 q 129 565 118 543 q 167 587 140 587 m 151 342 l 642 342 q 704 325 704 342 l 704 318 q 668 228 704 236 q 373 226 659 226 l 258 226 l 229 225 l 150 225 q 87 242 87 225 l 87 249 q 101 323 87 304 q 151 342 114 342 z "},">":{"ha":736,"x_min":80,"x_max":680,"o":"m 155 676 q 185 735 155 735 l 195 735 q 237 719 203 735 q 641 471 361 661 q 680 418 680 445 q 627 336 680 367 q 168 95 396 199 q 103 71 114 71 q 80 104 80 71 q 146 205 80 159 q 331 306 163 216 q 498 406 498 395 q 368 493 498 412 q 215 589 237 573 q 155 676 155 635 z "},"?":{"ha":665,"x_min":171,"x_max":657,"o":"m 412 936 l 438 936 q 597 880 536 936 q 657 740 657 825 q 600 578 657 654 q 493 476 566 532 q 398 393 420 420 q 362 319 376 366 q 349 271 349 272 q 297 256 335 256 l 286 256 q 237 306 237 256 q 267 417 237 372 q 366 525 297 463 q 456 614 435 586 q 494 712 494 665 q 470 782 494 758 q 407 806 446 806 q 309 767 368 806 q 216 728 249 728 q 171 784 171 728 q 244 888 171 840 q 412 936 317 936 m 371 109 q 336 30 371 60 q 260 -1 300 -1 l 241 -1 q 182 29 203 -1 q 175 72 175 39 l 175 79 q 201 187 175 141 q 263 214 216 214 l 293 214 q 353 197 334 214 q 372 157 372 181 l 373 150 l 373 127 q 371 109 371 117 z "},"@":{"ha":1186,"x_min":91,"x_max":1141,"o":"m 688 561 l 669 561 q 603 537 641 561 q 534 470 565 514 q 471 286 471 378 l 471 271 q 487 209 471 227 q 519 191 503 191 l 533 191 q 652 275 594 191 q 705 391 680 314 q 731 502 731 469 l 732 511 l 732 529 q 688 561 732 561 m 859 579 q 833 433 859 537 q 808 298 808 330 q 863 239 808 240 l 884 248 q 942 327 916 269 q 967 463 967 385 q 813 739 967 667 q 666 767 752 767 q 386 631 506 767 q 265 292 265 494 q 290 147 265 219 q 363 25 314 75 q 471 -46 412 -24 q 613 -68 529 -68 l 646 -64 l 680 -60 q 769 -49 760 -49 q 806 -79 806 -49 q 724 -136 806 -105 q 538 -167 642 -167 q 355 -136 434 -167 q 134 70 203 -75 q 91 257 91 162 l 91 297 q 138 526 91 408 q 269 731 186 644 q 467 870 353 819 q 695 921 581 921 l 736 921 q 892 891 813 921 q 1112 685 1052 831 q 1141 531 1141 612 l 1141 490 q 1115 346 1141 416 q 935 127 1056 189 q 838 100 881 100 q 765 115 795 100 l 741 131 q 700 155 707 155 q 636 122 694 155 q 537 90 578 90 q 408 143 452 90 q 363 286 363 197 q 388 411 363 340 q 467 543 412 481 q 684 648 559 648 l 717 646 l 777 640 l 802 642 q 859 579 859 642 z "},"A":{"ha":899,"x_min":28,"x_max":829,"o":"m 592 418 l 592 428 q 545 741 592 553 l 543 747 l 541 747 q 534 736 540 747 l 519 709 l 517 704 l 513 696 l 509 688 l 506 684 l 501 675 q 363 409 363 439 l 363 406 q 464 399 363 399 l 549 399 q 592 418 592 399 m 572 952 q 638 933 614 952 q 677 865 661 914 q 739 538 692 817 q 790 240 785 260 q 812 187 794 221 q 829 125 829 153 l 829 108 q 784 21 829 63 q 720 3 765 3 q 642 20 675 3 q 622 60 622 31 l 625 90 q 626 136 626 105 q 600 263 626 233 q 508 283 584 283 l 471 281 q 435 281 453 281 q 296 260 323 281 q 230 142 270 239 q 210 76 216 109 q 199 33 205 43 q 108 2 178 2 l 91 2 q 46 15 64 2 q 28 68 28 27 q 64 153 28 109 q 270 508 155 267 q 476 891 385 749 q 572 952 515 952 z "},"B":{"ha":836,"x_min":52,"x_max":817,"o":"m 382 549 l 429 549 l 434 550 q 581 584 536 550 q 651 713 651 636 l 651 734 q 612 810 651 785 q 515 835 574 835 l 458 835 q 392 817 399 835 q 380 771 385 800 q 361 663 376 742 q 345 570 345 585 l 345 566 q 382 549 345 549 m 353 119 l 395 119 q 559 166 498 119 q 621 302 621 214 l 621 308 q 455 437 621 437 l 378 437 q 316 412 324 437 q 268 149 268 267 l 268 144 q 353 119 268 119 m 817 748 q 682 525 817 606 q 662 507 662 513 q 704 472 662 502 q 766 403 746 443 q 787 297 787 363 q 753 172 787 230 q 534 18 684 54 q 370 2 466 2 l 268 2 l 253 3 l 237 3 q 52 27 52 3 l 52 40 q 77 99 52 45 q 114 203 103 154 q 218 808 218 684 q 211 859 218 827 q 204 892 204 890 q 249 945 204 937 q 429 949 271 949 l 461 950 l 512 950 q 733 906 661 950 q 817 748 817 856 z "},"C":{"ha":851,"x_min":88,"x_max":884,"o":"m 88 357 l 88 378 q 130 605 88 494 q 409 916 214 827 q 585 957 500 957 l 605 957 q 818 926 755 957 q 865 880 846 913 q 884 822 884 847 q 865 769 884 796 q 821 741 846 741 q 722 786 796 741 q 581 831 647 831 q 453 792 515 831 q 284 536 328 713 q 264 388 264 457 q 325 185 264 252 q 487 119 385 119 q 625 155 539 119 q 738 191 711 191 q 774 141 774 191 q 747 86 774 118 q 645 20 720 54 q 472 -14 570 -14 q 310 9 374 -14 q 195 80 245 31 q 117 200 146 128 q 88 357 88 272 z "},"D":{"ha":924,"x_min":47,"x_max":912,"o":"m 506 829 l 485 829 q 381 790 393 829 q 307 389 370 751 l 304 370 l 302 360 l 300 350 l 286 271 q 272 196 279 232 q 265 153 265 161 l 265 144 q 359 119 265 119 l 370 119 q 623 230 528 119 q 710 388 680 296 q 739 567 739 480 l 739 577 q 679 766 739 703 q 506 829 619 829 m 507 949 q 884 743 800 949 q 912 598 912 675 q 912 595 912 596 l 912 578 q 869 346 912 456 q 335 0 732 0 l 239 0 l 223 1 q 47 28 47 1 q 72 93 47 47 q 108 199 96 140 q 212 804 212 718 q 203 848 212 819 q 194 887 194 878 q 224 939 194 928 q 332 946 241 946 l 395 947 l 475 949 l 507 949 z "},"E":{"ha":791,"x_min":52,"x_max":819,"o":"m 549 -1 l 268 -1 q 81 10 111 -1 q 52 56 52 21 q 77 121 52 75 q 109 198 102 168 q 213 766 213 625 q 208 842 213 798 q 203 888 203 886 q 254 939 203 928 q 528 947 288 947 l 709 947 q 794 933 770 947 q 819 879 819 919 q 797 811 819 840 q 749 783 774 783 q 657 801 747 783 q 499 819 567 819 q 406 789 432 819 q 378 710 396 777 q 360 613 360 642 q 382 571 360 584 q 453 559 404 559 q 527 562 503 559 l 549 566 q 611 572 586 572 q 653 558 635 572 q 670 528 670 545 q 653 441 670 475 q 602 407 636 407 q 533 416 591 407 q 446 425 475 425 q 322 383 356 425 q 288 209 288 340 q 308 141 288 156 q 393 127 328 127 q 536 147 458 127 q 646 168 614 168 q 686 153 677 168 q 694 95 694 138 q 661 26 694 52 q 549 -1 627 -1 z "},"F":{"ha":766,"x_min":68,"x_max":813,"o":"m 174 8 l 155 8 q 87 22 107 8 q 68 75 68 37 l 68 90 q 93 153 68 98 q 130 264 117 208 q 217 795 217 668 q 210 839 217 814 q 203 895 203 863 q 239 934 203 926 q 405 942 275 942 l 445 943 l 696 947 l 739 947 q 813 903 813 947 q 797 816 813 847 q 739 785 780 785 q 699 795 724 785 q 525 822 623 822 q 405 786 427 822 q 375 685 391 764 q 359 583 359 606 q 454 541 359 541 q 527 550 486 541 q 600 559 568 559 q 648 546 633 559 q 664 494 664 533 q 645 425 664 454 q 590 396 627 396 q 538 402 581 396 q 467 408 496 408 q 336 368 366 408 q 287 143 287 304 l 293 88 q 174 8 293 8 z "},"G":{"ha":916,"x_min":90,"x_max":890,"o":"m 659 956 l 684 956 q 831 923 773 956 q 890 845 890 890 l 890 824 q 867 771 890 792 q 816 750 844 750 q 700 801 809 750 q 565 827 645 827 q 563 827 565 827 q 453 791 514 827 q 347 689 391 754 q 263 393 263 563 q 320 217 263 283 q 500 140 385 140 q 615 175 572 140 q 659 245 659 210 q 621 333 659 281 q 583 395 583 385 q 606 427 583 418 q 717 440 643 440 q 847 388 847 440 q 833 329 847 371 q 798 193 819 286 q 751 71 777 100 q 652 20 726 41 q 450 -17 522 -17 q 312 13 378 -17 q 195 99 247 42 q 116 230 142 155 q 90 381 90 304 l 90 408 q 136 624 90 517 q 260 810 182 730 q 428 923 338 891 q 659 956 517 956 z "},"H":{"ha":969,"x_min":53,"x_max":990,"o":"m 288 113 q 137 7 288 7 q 53 40 53 7 q 80 114 53 74 q 118 199 108 153 q 212 760 212 610 l 209 779 l 205 798 q 200 840 200 826 q 231 910 200 892 q 321 927 262 927 q 399 920 380 927 q 431 886 431 907 q 411 823 431 864 q 357 597 357 713 q 371 560 357 572 q 437 547 385 547 l 519 545 q 636 544 574 544 q 724 585 699 544 q 760 779 760 642 l 758 802 l 755 823 q 797 913 755 888 q 918 939 838 939 l 943 939 q 990 909 990 939 q 964 827 990 873 q 932 753 939 780 q 878 470 925 726 q 830 191 830 214 q 837 135 830 168 q 843 102 843 103 q 809 23 843 42 q 721 12 789 12 q 629 22 653 12 q 606 68 606 33 q 627 130 606 85 q 656 205 648 176 q 690 390 690 314 q 661 433 690 425 q 585 436 651 436 q 350 414 382 436 q 301 325 317 391 q 284 177 284 258 l 285 155 l 288 113 z "},"I":{"ha":475,"x_min":67,"x_max":486,"o":"m 393 947 l 432 947 q 486 901 486 947 q 453 829 486 880 q 402 704 420 779 q 361 475 401 697 q 321 214 321 252 q 332 135 321 175 q 344 85 344 94 q 316 23 344 45 q 235 0 289 0 l 221 0 l 208 1 l 183 1 q 96 8 113 1 q 67 48 67 20 q 114 145 67 77 q 153 243 138 180 q 232 751 232 567 q 219 809 232 772 q 206 856 206 846 q 255 933 206 911 q 393 947 287 947 z "},"J":{"ha":547,"x_min":-24,"x_max":554,"o":"m 298 457 q 319 562 298 457 q 340 710 340 667 q 329 802 340 753 q 318 856 318 852 q 353 926 318 905 q 492 947 387 947 q 534 927 514 947 q 554 879 554 908 q 524 739 554 850 q 469 479 494 628 q 370 74 414 169 q 245 -69 325 -20 q 73 -117 166 -117 q -1 -106 21 -117 q -24 -68 -24 -94 l -24 -55 q 81 45 -24 21 q 145 69 124 56 q 219 170 182 93 q 298 457 256 247 z "},"K":{"ha":886,"x_min":71,"x_max":899,"o":"m 821 935 l 844 935 q 899 916 899 935 q 713 726 899 909 q 528 521 528 543 q 613 352 528 509 q 744 134 698 195 q 789 32 789 73 q 680 -2 789 -2 q 598 35 628 -2 q 583 64 593 40 q 555 121 572 88 q 532 166 538 153 q 384 406 412 406 q 318 344 345 406 q 292 202 292 282 l 293 179 q 294 134 294 156 q 261 28 294 55 q 164 2 228 2 q 85 12 100 2 q 71 48 71 22 q 96 123 71 75 q 131 224 121 172 q 218 784 218 686 q 210 824 218 798 q 201 857 201 850 q 226 911 201 895 q 317 928 251 928 q 415 878 415 928 q 382 769 415 860 q 349 602 349 677 q 372 580 349 580 q 608 777 407 580 q 667 845 648 816 l 678 863 l 686 880 q 711 912 699 904 q 821 935 743 935 z "},"L":{"ha":750,"x_min":62,"x_max":701,"o":"m 62 48 q 86 117 62 63 q 122 220 111 171 q 213 763 213 616 l 199 855 q 240 937 199 915 q 337 947 258 947 l 370 947 q 439 891 439 947 q 417 833 439 884 q 385 744 395 782 q 332 461 376 705 q 288 183 288 218 q 309 134 288 148 q 402 119 331 119 q 562 146 474 119 q 670 174 650 174 q 701 130 701 174 q 670 24 701 56 q 538 -7 640 -7 l 522 -6 l 436 -5 l 245 -1 q 98 5 119 -1 q 62 48 62 14 z "},"M":{"ha":1174,"x_min":66,"x_max":1157,"o":"m 347 627 q 280 376 338 627 q 253 203 267 317 q 237 82 240 90 q 195 45 228 62 q 134 28 163 28 q 85 47 104 28 q 66 84 66 66 q 93 163 66 103 q 135 294 120 222 l 158 429 q 192 604 174 518 q 216 736 210 690 l 224 802 l 229 886 q 342 933 243 933 q 415 900 378 933 q 472 817 452 866 q 547 561 492 768 q 613 355 602 355 l 630 377 l 756 578 q 794 639 779 614 l 831 701 q 933 857 904 821 q 1004 915 962 892 q 1089 937 1046 937 q 1151 913 1132 937 l 1157 897 q 1148 849 1157 880 q 1127 750 1139 817 l 1121 715 q 1110 642 1116 683 l 1100 569 q 1050 189 1050 233 l 1052 158 q 1057 95 1057 113 q 1035 48 1057 77 q 968 19 1013 19 q 886 37 924 19 q 848 85 848 55 l 851 111 l 876 201 q 916 424 892 262 q 940 612 940 585 q 935 639 940 639 q 808 437 925 639 q 646 171 691 236 q 543 106 602 106 q 484 168 505 106 l 450 307 q 347 627 373 627 z "},"N":{"ha":984,"x_min":66,"x_max":1006,"o":"m 953 945 q 1006 882 1006 945 q 979 793 1006 848 q 944 709 951 739 q 883 372 937 680 q 823 48 828 64 q 777 6 810 6 q 661 58 698 6 q 504 378 638 91 q 343 666 370 666 l 336 658 l 300 463 q 260 151 260 239 q 234 37 260 62 q 125 12 208 12 q 79 21 92 12 q 66 57 66 29 q 94 141 66 85 q 132 250 121 198 q 220 799 220 677 q 215 839 220 811 q 210 889 210 867 q 227 923 210 911 q 291 935 243 935 q 374 915 339 935 q 454 824 408 895 q 611 518 500 753 q 730 284 722 284 l 736 296 q 779 518 743 313 q 814 790 814 722 l 812 814 l 811 836 q 841 920 811 896 q 927 945 870 945 l 953 945 z "},"O":{"ha":984,"x_min":85,"x_max":976,"o":"m 802 558 l 802 589 q 745 774 802 707 q 599 841 687 841 l 578 841 q 354 704 450 841 q 285 558 312 645 q 258 402 258 471 l 258 360 q 308 186 258 258 q 375 127 334 148 q 462 107 416 107 l 483 107 q 604 144 546 107 q 779 403 721 219 q 802 558 802 479 m 976 597 l 976 566 q 935 349 976 461 q 822 156 894 237 q 658 29 750 74 q 472 -16 566 -16 l 441 -16 q 113 198 198 -16 q 85 347 85 267 q 85 351 85 349 l 85 382 q 123 592 85 486 q 228 781 161 699 q 389 913 294 862 q 589 964 484 964 l 635 964 q 768 937 701 964 q 945 758 892 888 q 976 597 976 680 z "},"P":{"ha":802,"x_min":64,"x_max":838,"o":"m 365 493 l 431 493 q 596 535 535 493 q 649 599 625 555 q 672 689 672 643 l 672 707 q 507 831 672 831 l 471 831 q 391 812 404 831 q 378 753 387 805 q 368 697 369 702 q 363 671 367 693 l 357 637 l 353 620 q 340 552 345 574 q 334 517 334 530 l 334 512 q 365 493 334 493 m 224 850 q 218 900 224 865 q 261 948 218 937 q 431 954 282 954 l 528 954 q 817 826 760 954 q 838 730 838 779 l 838 713 q 807 575 838 642 q 623 404 749 450 q 489 375 567 384 q 352 338 411 367 q 292 242 292 309 l 301 156 q 269 43 301 85 q 172 1 237 1 l 141 1 q 81 7 99 1 q 64 44 64 14 l 64 57 q 89 158 64 94 q 121 248 115 222 q 140 342 127 273 q 159 446 152 411 q 224 850 224 775 z "},"Q":{"ha":996,"x_min":87,"x_max":975,"o":"m 259 398 l 259 376 q 316 188 259 260 q 460 115 372 115 l 481 115 q 562 146 525 115 q 753 347 675 239 q 785 430 767 366 q 802 565 802 494 l 802 587 q 687 817 802 758 q 597 838 646 838 l 576 838 q 360 715 454 838 q 286 563 313 652 q 259 398 259 473 m 975 595 l 975 577 q 814 162 975 351 q 742 65 742 77 q 779 -20 742 44 l 789 -38 l 806 -62 q 819 -78 814 -73 q 824 -88 824 -83 q 801 -109 824 -93 q 687 -151 740 -151 l 671 -151 q 514 -108 608 -151 q 213 67 313 -14 q 121 194 155 115 q 87 366 87 274 l 87 385 q 127 603 87 492 q 240 798 167 714 q 609 966 387 966 q 951 737 872 966 q 975 595 975 671 z "},"R":{"ha":854,"x_min":50,"x_max":825,"o":"m 376 515 l 427 515 q 642 625 590 515 q 659 707 659 663 l 659 713 q 622 801 659 770 q 528 832 584 832 q 510 833 517 833 l 486 834 l 481 834 l 475 833 l 469 833 q 384 807 394 833 q 358 675 381 800 q 334 547 334 551 l 334 532 q 376 515 334 515 m 464 325 q 380 383 429 383 q 302 329 332 383 q 284 178 284 294 q 253 33 284 62 q 131 3 221 3 q 65 16 81 3 q 50 49 50 28 q 77 132 50 71 q 113 229 105 194 q 214 828 214 682 q 212 862 214 836 l 210 878 l 204 907 q 238 940 204 930 q 427 949 271 949 l 489 949 l 510 949 q 749 893 673 949 q 825 722 825 836 q 678 471 825 572 q 617 391 617 429 q 686 216 617 353 q 734 143 703 183 q 766 67 766 103 q 752 16 766 31 q 689 1 739 1 l 669 1 q 574 43 606 1 q 516 186 553 71 q 464 325 478 301 z "},"S":{"ha":766,"x_min":50,"x_max":760,"o":"m 703 743 q 604 790 677 743 q 470 837 531 837 q 368 801 409 837 q 327 713 327 764 q 371 623 327 662 q 502 549 394 602 q 651 451 610 496 q 708 292 708 389 q 680 171 708 225 q 320 -11 586 -11 q 117 33 214 -11 q 50 115 50 62 l 50 133 q 75 199 50 171 q 124 228 100 228 q 208 182 148 228 q 297 125 269 136 q 386 115 326 115 q 492 157 445 115 q 540 269 540 199 q 501 349 540 315 q 359 431 462 382 q 209 535 256 480 q 161 688 161 590 q 189 788 161 735 q 373 940 243 895 q 481 958 427 958 l 503 958 q 739 901 689 958 q 760 852 760 875 l 760 834 q 737 768 760 793 q 703 743 714 743 z "},"T":{"ha":804,"x_min":119,"x_max":876,"o":"m 876 893 q 819 774 876 774 q 754 797 814 774 q 656 821 694 821 q 597 801 618 821 q 563 727 576 781 q 517 477 560 717 q 475 189 475 237 l 486 100 q 458 20 486 39 q 370 0 429 0 l 333 0 q 254 15 270 0 q 237 56 237 29 q 267 140 237 83 q 311 254 296 197 l 370 575 q 397 760 397 724 q 385 807 397 795 q 336 819 373 819 q 233 791 300 819 q 153 764 167 764 q 119 795 119 764 q 137 896 119 864 q 186 939 154 927 q 540 951 219 951 l 788 951 q 859 936 842 951 q 876 893 876 920 z "},"U":{"ha":942,"x_min":128,"x_max":967,"o":"m 294 292 q 465 116 294 116 q 665 251 600 116 q 732 524 692 307 q 772 798 772 741 l 767 878 q 799 936 767 922 q 891 950 831 950 l 915 950 q 967 870 967 950 q 944 797 967 847 q 913 722 921 747 q 876 536 906 697 q 775 171 826 263 q 634 33 724 79 q 441 -13 545 -13 l 416 -13 q 412 -13 414 -13 q 294 8 352 -13 q 128 264 129 68 q 158 510 128 301 q 188 736 188 719 l 179 810 q 231 931 179 890 q 330 944 248 944 q 413 904 413 944 l 376 792 q 331 557 368 770 q 294 292 294 345 z "},"V":{"ha":893,"x_min":138,"x_max":963,"o":"m 168 777 q 153 809 168 777 q 138 879 138 842 q 162 930 138 916 q 249 944 185 944 q 338 917 312 944 q 365 827 365 890 l 362 758 q 399 505 362 739 q 440 250 435 270 q 448 229 445 229 q 707 718 475 229 q 752 841 736 780 q 772 909 768 903 q 893 949 800 949 l 914 949 q 963 924 963 949 l 963 909 q 930 826 963 878 q 685 396 814 643 q 498 58 555 149 q 385 -1 460 -1 q 310 68 327 -1 q 252 395 307 78 q 168 777 197 712 z "},"W":{"ha":1285,"x_min":174,"x_max":1314,"o":"m 781 889 q 834 777 830 889 q 859 629 837 724 q 891 434 881 534 q 909 335 902 335 q 934 385 912 335 q 1006 527 956 434 q 1072 672 1055 621 q 1128 821 1115 803 q 1201 886 1158 865 q 1279 907 1244 907 q 1314 875 1314 907 q 1259 764 1314 848 q 1206 632 1239 732 q 1160 504 1173 532 q 1009 186 1050 259 q 914 77 968 114 q 866 54 882 54 q 789 119 813 54 q 741 329 777 156 l 717 464 q 692 576 696 576 q 566 336 688 576 q 433 115 511 227 q 360 59 394 59 q 294 89 326 59 q 251 151 262 118 q 219 390 240 184 q 197 615 197 596 q 191 724 197 634 l 188 748 l 184 773 l 178 821 l 174 843 q 217 900 174 900 q 310 870 273 900 q 361 805 347 840 q 376 714 374 770 q 385 605 377 658 q 395 520 392 553 l 399 463 q 416 353 411 353 q 502 494 432 353 q 612 740 572 636 q 665 856 653 844 q 781 889 696 889 z "},"X":{"ha":893,"x_min":26,"x_max":935,"o":"m 605 467 q 705 232 605 442 q 770 125 737 165 q 802 34 802 85 q 696 -1 802 -1 l 671 -1 q 558 50 581 -1 q 551 107 552 63 q 534 195 549 151 q 453 351 478 351 q 300 163 428 351 q 256 75 267 114 q 234 25 245 36 q 119 3 212 3 q 26 33 26 3 q 100 138 26 74 q 202 250 138 170 q 380 510 380 473 q 290 709 380 534 q 224 808 259 767 q 189 895 189 850 q 213 926 189 919 q 319 934 237 934 q 420 898 400 934 q 429 846 428 884 q 448 767 431 808 q 518 629 504 629 q 656 776 545 629 q 701 847 692 823 q 728 912 720 906 q 882 940 759 940 q 935 915 935 940 q 800 752 935 913 q 635 550 665 591 q 605 467 605 509 z "},"Y":{"ha":842,"x_min":138,"x_max":916,"o":"m 418 3 l 381 3 q 279 15 300 3 q 258 61 258 26 q 302 165 258 63 q 345 349 345 267 q 320 496 345 430 q 292 561 313 514 q 239 687 271 608 q 173 817 208 766 q 138 892 138 868 q 164 926 138 916 q 266 936 190 936 q 371 892 341 936 q 387 823 379 881 q 407 724 394 765 q 482 554 461 554 q 650 763 512 554 q 693 853 678 806 q 709 902 707 900 q 836 941 739 941 l 854 941 q 916 921 916 941 q 844 813 916 882 q 706 633 821 790 q 565 433 591 476 q 502 184 502 328 l 509 93 q 484 31 509 58 q 418 3 458 3 z "},"Z":{"ha":817,"x_min":33,"x_max":861,"o":"m 861 918 q 826 828 861 873 q 692 663 791 783 q 290 148 290 173 q 430 122 290 122 q 565 142 505 122 q 700 184 695 184 q 739 144 739 184 q 684 33 739 67 q 498 -1 630 -1 l 131 -1 q 50 11 67 -1 q 33 41 33 22 q 94 162 33 82 q 360 488 113 187 q 607 809 607 789 q 520 829 607 829 q 366 811 433 829 q 300 791 358 809 q 226 772 243 772 q 191 817 191 772 q 210 904 191 880 q 257 933 219 915 q 484 951 295 951 l 753 951 q 861 918 861 951 z "},"[":{"ha":514,"x_min":56,"x_max":581,"o":"m 536 1031 q 581 1006 581 1031 q 551 935 581 958 q 486 918 535 922 q 429 909 437 913 q 384 866 395 897 q 300 413 374 836 q 227 -47 227 -9 q 258 -100 227 -85 q 308 -110 263 -102 q 365 -131 353 -117 q 377 -171 377 -144 q 366 -211 377 -197 q 320 -225 354 -225 l 250 -225 l 231 -224 l 214 -224 q 92 -222 105 -224 q 56 -191 56 -217 l 56 -176 q 154 413 56 -138 q 257 981 251 965 q 309 1027 271 1019 q 448 1030 326 1030 l 519 1031 l 536 1031 z "},"\\":{"ha":581,"x_min":127,"x_max":500,"o":"m 500 -81 q 439 -112 500 -112 l 427 -112 q 379 -99 391 -112 q 355 -39 367 -85 q 127 974 127 872 q 201 1006 127 1006 q 267 958 254 1006 q 320 722 277 917 q 373 488 363 528 q 425 260 383 449 q 484 3 467 71 q 500 -81 500 -66 z "},"]":{"ha":514,"x_min":-22,"x_max":492,"o":"m 12 -225 q -22 -209 -22 -225 l -22 -194 q 13 -128 -22 -153 q 76 -112 31 -115 q 134 -101 121 -108 q 174 -55 164 -85 q 257 395 184 -24 q 330 850 330 814 q 306 903 330 886 q 254 917 295 911 q 198 937 213 924 q 183 981 183 950 q 196 1021 183 1011 q 244 1031 210 1031 l 261 1031 l 278 1030 l 313 1030 q 461 1024 431 1030 q 492 987 492 1017 l 492 972 q 398 390 492 926 q 302 -151 303 -147 q 267 -211 288 -199 q 183 -222 245 -222 l 114 -224 l 79 -225 l 12 -225 z "},"^":{"ha":743,"x_min":146,"x_max":679,"o":"m 477 949 q 533 899 507 949 q 657 608 559 849 q 679 536 679 554 q 633 511 679 511 l 624 511 q 554 565 587 511 q 490 699 532 601 q 444 797 449 797 q 371 695 439 797 q 268 552 302 593 q 198 511 233 511 l 189 511 q 146 525 146 511 q 168 574 146 538 q 390 904 287 772 q 477 949 425 949 z "},"_":{"ha":734,"x_min":-11,"x_max":660,"o":"m 47 -42 l 525 -42 q 660 -60 660 -42 l 660 -67 q 630 -147 660 -137 q 300 -150 622 -150 l 71 -150 l 39 -151 l 24 -151 q -11 -132 -11 -151 l -11 -125 q 2 -61 -11 -80 q 47 -42 15 -42 z "},"`":{"ha":458,"x_min":168,"x_max":414,"o":"m 414 767 l 414 754 q 373 733 414 733 q 291 774 332 733 q 168 935 168 897 q 224 966 168 966 l 247 966 l 258 964 l 273 963 q 332 930 307 963 q 414 767 414 825 z "},"a":{"ha":748,"x_min":50,"x_max":697,"o":"m 218 275 l 218 250 q 243 153 218 189 q 307 117 268 117 l 313 118 q 374 139 336 118 q 440 206 411 161 q 487 327 469 252 q 505 431 505 402 l 506 444 l 507 461 l 507 490 q 491 543 507 526 q 435 559 476 559 l 416 559 q 283 472 347 559 q 218 275 218 384 m 50 220 l 50 247 q 78 393 50 315 q 159 532 106 471 q 282 629 212 594 q 416 664 352 664 l 429 664 q 523 652 483 664 q 570 641 562 641 l 633 645 l 642 646 q 697 593 697 646 l 697 581 q 668 419 697 573 q 639 206 639 264 q 660 157 639 181 q 682 97 682 132 q 650 34 682 61 q 572 7 618 7 q 503 28 526 7 q 482 53 495 35 q 458 70 469 71 q 436 69 448 69 q 362 34 425 69 q 242 -1 300 -1 q 103 62 157 -1 q 50 220 50 125 z "},"b":{"ha":742,"x_min":57,"x_max":713,"o":"m 251 218 l 251 182 q 276 124 251 147 q 351 102 300 102 l 357 102 q 487 177 432 102 q 556 393 556 271 l 556 411 q 531 508 556 469 q 463 547 506 547 l 451 547 q 381 524 419 547 q 275 363 300 475 q 251 218 251 252 m 218 976 q 234 988 218 976 q 299 999 251 999 q 361 991 348 999 q 374 955 374 983 q 351 787 374 926 q 328 633 328 649 q 350 616 328 616 q 352 616 351 616 q 419 633 374 616 q 524 654 476 654 l 525 654 q 684 555 627 654 q 713 429 713 503 q 713 426 713 428 l 713 410 q 682 247 713 328 q 604 111 652 165 q 364 -5 500 -5 l 348 -5 q 261 12 311 -5 q 202 28 212 28 q 172 21 193 28 q 124 14 151 14 q 77 28 97 14 q 57 71 57 42 q 70 142 57 99 q 94 240 83 186 l 105 304 l 111 335 l 117 366 l 123 397 q 129 430 124 404 q 190 808 190 749 l 185 900 q 218 976 185 954 z "},"c":{"ha":633,"x_min":62,"x_max":637,"o":"m 446 669 l 488 669 q 580 648 543 669 q 637 580 637 616 q 616 519 637 544 q 568 494 595 494 q 502 524 541 494 q 425 553 463 553 q 286 468 345 553 q 227 259 227 382 q 258 154 227 195 q 349 113 290 113 q 437 131 384 113 q 513 150 490 150 q 560 118 560 150 q 493 35 560 71 q 302 -12 408 -12 q 129 56 196 -12 q 62 244 62 123 q 92 412 62 333 q 296 639 155 575 q 446 669 363 669 z "},"d":{"ha":758,"x_min":58,"x_max":766,"o":"m 433 558 l 414 558 q 340 533 377 558 q 276 465 302 508 q 219 262 219 370 l 219 256 q 244 151 219 191 q 317 112 269 112 l 322 113 l 328 113 q 397 137 355 113 q 458 199 438 162 q 521 435 521 310 l 522 447 l 522 477 q 499 537 522 516 q 433 558 477 558 m 663 79 q 554 8 663 8 q 506 22 522 8 q 467 51 473 51 q 358 27 429 51 q 241 3 287 3 q 109 67 160 3 q 58 221 58 130 l 58 238 q 96 416 58 326 q 194 564 134 506 q 313 641 254 622 q 456 660 372 660 q 561 683 541 660 q 581 799 581 705 q 570 888 570 868 q 617 978 570 943 q 706 1000 646 1000 q 766 950 766 1000 l 766 936 q 706 571 766 891 q 646 212 646 251 q 654 142 646 174 q 663 79 663 111 z "},"e":{"ha":675,"x_min":64,"x_max":660,"o":"m 332 378 q 481 420 397 378 q 515 477 515 437 l 515 487 q 490 542 515 521 q 436 564 466 564 l 421 564 q 310 511 370 564 q 250 401 250 458 l 250 389 q 273 373 250 373 l 279 372 l 283 372 l 286 372 l 302 374 q 332 378 322 378 m 335 -11 l 306 -11 q 210 7 258 -11 q 131 56 161 25 q 64 245 64 125 l 64 259 q 64 262 64 260 q 64 266 64 264 q 98 420 64 343 q 300 641 165 580 q 436 671 366 671 l 451 671 q 602 621 544 671 q 660 486 660 570 l 660 473 q 602 352 660 388 q 405 292 545 316 q 263 266 265 267 q 237 209 237 253 q 272 139 237 165 q 357 113 308 113 q 460 134 406 113 q 541 155 515 155 q 579 113 579 155 q 499 30 579 71 q 335 -11 420 -11 z "},"f":{"ha":517,"x_min":12,"x_max":646,"o":"m 507 873 q 422 829 453 873 q 391 741 391 785 q 417 677 391 697 q 451 665 424 673 q 483 654 478 656 q 517 612 517 639 q 451 554 517 585 q 370 492 386 523 q 291 199 332 418 q 243 -40 250 -20 q 190 -122 220 -98 q 113 -146 160 -146 l 95 -146 q 12 -103 12 -146 q 58 5 12 -59 q 128 161 105 69 q 168 457 168 315 q 152 533 168 505 q 136 598 136 562 q 179 670 136 635 q 244 768 222 704 q 319 916 280 873 q 415 979 359 958 q 527 999 471 999 l 546 999 q 625 983 604 999 q 646 956 646 966 l 646 941 q 625 888 646 909 q 568 866 603 866 l 538 871 q 507 873 525 873 z "},"g":{"ha":752,"x_min":58,"x_max":738,"o":"m 545 465 q 442 547 545 547 l 436 547 l 429 546 q 305 477 355 546 q 235 287 235 381 l 235 275 q 262 144 235 195 q 330 105 283 105 l 346 105 q 417 132 372 105 q 486 200 463 159 q 545 440 545 304 l 545 465 m 80 243 q 107 393 80 313 q 184 528 134 472 q 431 646 291 646 q 529 629 480 646 q 589 612 578 612 q 625 625 600 612 q 675 637 650 637 q 738 595 738 637 l 738 581 q 695 413 738 553 q 646 166 687 385 q 575 -113 606 -52 q 447 -254 528 -207 q 268 -301 365 -301 l 248 -301 q 112 -268 165 -301 q 58 -196 58 -235 q 78 -157 58 -178 q 121 -136 99 -136 q 196 -159 144 -136 q 282 -182 248 -182 q 411 -114 364 -182 q 458 60 458 -45 l 456 66 q 421 54 447 66 q 264 14 341 14 q 133 75 186 14 q 80 243 80 136 z "},"h":{"ha":761,"x_min":70,"x_max":680,"o":"m 368 972 q 374 924 374 962 q 349 764 374 887 q 323 621 323 642 q 339 600 323 600 q 413 623 342 600 q 545 646 484 646 q 649 588 606 646 q 680 474 680 547 q 664 314 680 446 q 648 81 648 182 q 640 45 648 53 q 545 20 611 20 q 504 49 522 20 q 486 120 486 79 q 506 288 486 161 q 526 445 526 414 q 504 504 526 476 q 446 531 482 531 q 374 505 409 531 q 315 434 339 479 q 262 237 292 390 q 226 66 233 84 q 155 5 201 5 q 70 62 70 5 q 100 232 70 98 q 163 564 130 367 q 197 835 197 760 l 197 852 q 196 886 196 869 q 308 990 196 990 q 368 972 357 990 z "},"i":{"ha":411,"x_min":79,"x_max":408,"o":"m 408 905 l 408 881 l 406 862 q 378 803 406 826 q 315 780 351 780 l 293 780 q 242 797 257 780 q 228 848 228 814 l 229 864 l 231 880 q 262 941 231 906 q 311 960 278 960 l 328 962 l 338 962 q 360 960 346 960 q 391 946 374 960 q 408 905 408 932 m 287 666 l 304 666 q 352 630 352 666 l 352 622 q 321 436 352 611 q 290 234 290 262 q 303 178 290 206 q 316 100 316 150 q 269 20 316 51 q 144 -1 236 -1 l 117 -1 q 79 45 79 -1 l 79 54 q 104 165 79 95 q 129 237 129 236 q 166 452 166 393 l 168 469 l 168 491 q 157 540 168 513 q 146 589 146 567 q 176 650 146 635 q 287 666 205 666 z "},"j":{"ha":406,"x_min":-93,"x_max":419,"o":"m 418 886 q 417 870 418 886 q 388 805 417 839 q 345 787 372 787 l 324 784 l 305 784 q 235 851 235 784 l 235 854 l 236 857 l 236 863 l 237 876 q 267 944 237 909 q 313 963 283 963 l 328 965 l 350 965 q 398 952 379 965 q 416 922 416 939 q 419 907 419 909 l 419 889 l 418 886 m -93 -238 q -18 -148 -93 -172 q 40 -117 18 -136 q 79 -51 62 -98 q 134 199 96 -5 q 172 460 172 403 q 161 550 172 517 q 151 598 151 584 q 179 652 151 637 q 296 667 207 667 l 308 667 q 336 645 321 667 q 351 583 351 624 l 351 572 q 299 242 351 521 q 214 -111 248 -36 q 112 -235 180 -185 q -43 -284 43 -284 q -93 -238 -93 -284 z "},"k":{"ha":708,"x_min":71,"x_max":677,"o":"m 106 7 q 71 45 71 7 q 138 438 71 56 q 205 891 205 821 q 231 975 205 962 q 308 987 256 987 q 367 975 359 987 q 374 931 374 962 q 336 704 374 901 q 298 477 298 506 q 309 449 298 449 q 394 506 331 449 q 466 572 456 562 l 490 600 q 522 632 512 625 q 614 654 551 654 q 677 627 677 654 q 569 489 677 593 q 460 354 460 386 q 540 181 460 321 q 620 39 620 40 q 596 16 620 29 q 515 2 572 2 q 430 44 457 2 q 374 176 412 72 q 309 280 336 280 q 243 145 264 280 q 219 47 231 64 q 106 7 193 7 z "},"l":{"ha":408,"x_min":75,"x_max":395,"o":"m 313 96 q 142 -2 313 -2 q 93 18 111 -2 q 75 74 75 37 q 104 207 75 110 q 144 371 133 303 q 186 604 155 438 q 216 802 216 769 q 207 876 216 834 q 198 923 198 917 q 235 986 198 971 q 345 1001 272 1001 l 356 1001 q 395 941 395 1001 l 395 930 q 339 606 395 908 q 283 251 283 304 q 290 175 283 199 q 304 131 296 152 q 313 96 313 111 z "},"m":{"ha":1101,"x_min":73,"x_max":1036,"o":"m 434 27 q 470 217 434 46 q 506 456 506 389 q 437 524 506 524 q 381 504 419 524 q 315 438 344 484 q 258 259 287 393 q 212 87 229 125 q 137 28 186 28 q 95 48 117 28 q 73 104 73 68 q 96 256 73 139 q 120 450 120 373 q 161 594 120 526 q 237 637 188 637 q 282 615 264 637 l 291 602 q 306 578 302 578 q 338 592 313 578 l 357 603 q 399 629 393 625 q 517 661 461 661 q 654 601 601 661 q 685 579 674 579 q 765 615 695 579 q 898 651 834 651 q 999 604 962 651 q 1036 497 1036 557 q 1017 313 1036 437 q 999 170 999 189 l 1002 148 q 1005 95 1005 121 q 988 47 1005 68 q 920 27 970 27 q 846 172 846 27 q 858 294 846 210 q 869 412 869 378 q 854 475 869 447 q 791 518 829 518 q 624 186 675 518 q 599 37 601 41 q 488 -1 580 -1 q 434 27 434 -1 z "},"n":{"ha":767,"x_min":66,"x_max":701,"o":"m 165 620 q 236 650 191 650 q 298 629 282 650 q 311 595 302 623 q 327 568 319 568 q 366 589 338 568 q 536 656 457 656 l 553 656 q 660 612 618 656 q 701 479 701 568 q 684 339 701 449 q 666 213 666 230 l 667 199 q 668 169 668 179 l 672 127 q 673 90 673 109 q 647 32 673 48 q 555 16 621 16 q 510 39 523 16 q 497 106 497 62 q 519 279 497 149 q 541 447 541 409 q 520 512 541 485 q 461 539 499 539 q 384 512 424 539 q 317 439 344 484 q 265 263 290 395 q 253 187 265 262 q 234 92 241 112 q 155 13 207 13 l 141 13 q 84 28 102 13 q 66 66 66 43 l 66 82 q 98 213 66 88 q 130 434 130 338 l 127 488 q 165 620 127 574 z "},"o":{"ha":728,"x_min":62,"x_max":710,"o":"m 224 279 l 224 253 q 258 140 224 180 q 342 100 292 100 l 349 100 q 483 183 422 100 q 544 385 544 267 l 544 405 q 511 525 544 486 q 428 564 477 564 l 421 564 l 415 564 q 286 480 347 564 q 224 279 224 396 m 336 -13 l 302 -13 q 130 58 201 -13 q 81 137 101 87 q 62 240 62 187 l 62 273 q 62 276 62 275 q 91 418 62 341 q 292 644 152 579 q 426 675 359 675 l 459 675 q 561 654 512 675 q 640 602 610 633 q 710 435 710 532 l 710 403 q 678 252 709 335 q 479 22 614 84 q 336 -13 405 -13 z "},"p":{"ha":755,"x_min":10,"x_max":730,"o":"m 346 100 l 363 100 q 516 199 443 100 q 574 392 574 278 l 574 418 q 549 515 574 476 q 476 555 524 555 l 464 555 q 382 529 418 555 q 284 348 313 477 q 262 196 262 250 l 262 184 q 346 100 262 100 m 186 -258 q 168 -274 186 -258 q 80 -291 151 -291 q 10 -260 10 -291 q 35 -124 10 -218 q 102 190 60 -31 q 144 503 144 410 q 161 622 144 597 q 245 659 186 659 q 306 631 282 659 q 361 616 319 616 q 425 639 368 616 q 532 663 481 663 q 675 603 619 663 q 730 444 730 544 q 627 133 730 261 q 378 5 524 5 l 362 6 l 294 6 q 231 -9 242 6 q 220 -98 220 -24 l 221 -151 q 186 -258 221 -225 z "},"q":{"ha":741,"x_min":67,"x_max":730,"o":"m 227 279 l 227 248 q 251 154 227 193 q 317 115 276 115 l 335 115 q 403 140 359 115 q 471 212 446 164 q 532 463 532 325 l 532 475 q 449 562 532 562 l 424 562 q 290 475 353 562 q 227 279 227 389 m 600 -172 q 568 -271 600 -242 q 467 -300 537 -300 l 437 -300 q 387 -258 387 -300 q 419 -122 387 -216 q 450 20 450 -27 q 433 45 450 45 l 368 25 q 267 5 304 5 q 122 70 177 5 q 67 225 67 134 l 67 258 q 99 415 67 337 q 280 630 162 570 q 416 665 348 665 l 432 665 q 506 652 467 665 q 568 640 544 640 q 623 649 592 640 q 669 659 654 659 q 730 616 730 659 q 715 549 730 595 q 691 450 701 502 q 639 171 682 397 q 595 -105 595 -56 q 600 -172 600 -144 z "},"r":{"ha":562,"x_min":70,"x_max":591,"o":"m 160 0 l 137 0 q 84 7 98 0 q 70 32 70 15 q 119 256 70 48 q 144 469 144 366 l 144 488 l 142 496 l 140 535 q 163 635 140 610 q 241 661 185 661 q 314 642 296 661 q 331 590 331 623 q 336 557 331 557 q 377 590 340 557 q 451 642 414 623 q 539 660 488 660 q 591 620 591 660 q 555 534 591 558 q 466 514 545 528 q 357 464 386 500 q 305 358 328 427 q 281 187 281 290 q 249 32 281 85 q 160 0 229 0 z "},"s":{"ha":606,"x_min":39,"x_max":586,"o":"m 367 668 l 399 668 q 532 645 477 668 q 586 588 586 623 q 564 530 586 553 q 521 506 542 506 q 449 534 500 506 q 354 562 397 562 q 290 539 311 562 q 269 488 269 516 q 298 436 269 459 q 390 389 313 425 q 505 314 467 353 q 543 217 543 275 q 464 50 543 109 q 286 -10 384 -10 l 254 -10 q 103 15 167 -10 q 39 80 39 40 q 63 142 39 117 q 105 168 86 168 q 179 133 123 168 q 284 98 235 98 q 364 123 334 98 q 394 185 394 149 q 353 248 394 222 q 271 286 347 253 q 157 357 196 319 q 118 463 118 395 q 193 610 118 551 q 367 668 268 668 z "},"t":{"ha":508,"x_min":107,"x_max":494,"o":"m 286 210 q 340 131 286 131 q 342 131 340 131 q 378 132 368 132 q 428 79 428 132 q 387 22 428 39 q 262 -5 326 -5 l 249 -5 q 152 36 186 -5 q 119 158 119 77 q 140 309 119 201 q 161 476 161 416 q 140 550 161 536 q 107 585 107 573 q 160 659 107 636 q 205 687 196 674 q 229 752 215 700 q 260 824 243 804 q 327 857 287 857 q 378 846 368 857 q 387 795 387 836 q 387 789 387 792 q 387 732 387 743 q 433 676 387 694 q 494 626 494 652 q 470 577 494 599 q 416 555 460 568 q 354 509 373 543 q 310 368 335 475 q 286 210 286 260 z "},"u":{"ha":767,"x_min":92,"x_max":719,"o":"m 147 628 q 157 637 147 628 q 224 645 167 645 q 291 624 281 645 q 302 547 302 602 q 279 373 302 491 q 257 227 257 254 q 332 121 257 121 q 412 152 370 121 q 480 229 454 182 q 527 396 507 276 q 537 478 530 414 q 557 577 543 543 q 646 647 586 647 q 699 632 678 647 q 719 595 719 616 q 694 439 719 573 q 669 224 669 306 l 675 130 q 635 31 675 74 q 568 5 611 5 q 509 22 525 5 q 490 58 505 28 q 469 89 475 89 q 430 68 458 89 q 255 -1 332 -1 q 135 42 178 -1 q 92 167 92 85 q 115 332 92 210 q 138 492 138 455 l 127 574 q 147 628 127 612 z "},"v":{"ha":696,"x_min":96,"x_max":713,"o":"m 381 22 q 294 -5 352 -5 q 217 47 235 -5 q 183 224 205 82 q 154 405 161 366 q 121 491 146 444 q 96 589 96 538 q 119 648 96 639 q 214 662 151 662 q 292 606 277 662 q 302 503 296 589 q 311 387 308 417 q 347 174 335 174 q 361 191 350 174 q 517 523 473 353 q 545 621 542 614 q 669 664 566 664 q 713 638 713 664 q 675 504 713 579 q 492 184 586 331 q 381 22 398 37 z "},"w":{"ha":1004,"x_min":111,"x_max":985,"o":"m 661 18 q 603 65 625 18 q 551 233 581 113 q 513 354 521 354 l 501 335 q 428 217 459 266 q 344 103 396 169 q 263 38 292 38 q 208 59 234 38 q 173 117 182 80 q 165 165 170 129 l 158 241 q 131 397 150 304 q 111 537 111 491 q 127 615 111 583 q 165 648 142 648 q 269 602 248 648 q 287 399 274 591 q 321 208 300 208 q 408 374 342 208 q 451 500 425 416 q 487 604 476 584 q 589 645 510 645 q 631 633 619 645 q 661 472 653 613 l 663 424 q 688 215 673 215 q 785 363 715 215 q 836 498 810 416 q 873 596 861 581 q 969 639 905 639 q 985 626 985 639 q 946 447 985 547 q 786 104 873 258 q 719 38 760 58 q 661 18 678 18 z "},"x":{"ha":702,"x_min":13,"x_max":717,"o":"m 122 606 q 258 652 122 652 q 321 622 300 652 q 360 530 331 609 q 401 450 389 450 q 473 525 421 450 q 505 579 480 534 q 538 631 530 623 q 641 658 566 658 q 717 630 717 658 q 595 488 717 620 q 473 323 473 356 q 550 163 473 265 q 627 50 627 62 q 612 19 627 27 q 492 1 577 1 q 427 30 449 1 q 384 132 416 45 q 338 220 351 220 q 255 123 326 220 q 175 19 184 26 q 100 -1 149 -1 q 13 29 13 -1 q 137 170 13 35 q 261 342 261 304 q 192 488 261 404 q 122 606 122 572 z "},"y":{"ha":721,"x_min":53,"x_max":730,"o":"m 285 17 q 242 113 285 26 q 184 256 199 201 q 157 372 169 311 q 121 493 144 433 q 97 575 97 553 q 114 609 97 596 q 226 646 164 646 q 271 634 255 646 q 294 594 287 623 q 324 377 302 565 q 359 190 346 190 q 399 212 376 190 q 536 487 483 290 q 572 616 568 610 q 686 659 600 659 q 730 627 730 659 q 707 521 730 577 q 425 -45 542 132 q 271 -216 356 -151 q 122 -282 186 -282 q 72 -267 90 -282 q 53 -241 53 -252 q 125 -178 53 -210 q 228 -112 198 -146 q 285 17 285 -47 z "},"z":{"ha":650,"x_min":28,"x_max":648,"o":"m 28 26 q 63 113 28 66 q 241 315 72 125 q 411 525 411 504 q 354 534 411 534 q 230 523 297 534 q 155 511 163 511 q 131 562 131 511 q 155 638 131 613 q 234 664 178 664 l 250 664 l 267 663 l 317 663 l 510 659 l 579 659 q 612 660 597 660 q 648 631 648 660 q 618 555 648 592 q 430 341 589 519 q 271 144 271 163 q 343 126 271 126 q 468 135 415 126 q 532 143 522 143 q 571 93 571 143 q 543 17 571 42 q 429 -8 515 -8 q 304 -2 408 -8 q 137 4 201 4 l 70 2 q 28 26 28 2 z "},"{":{"ha":523,"x_min":86,"x_max":587,"o":"m 260 401 q 276 378 260 393 q 307 337 291 363 q 323 265 323 311 q 304 124 323 219 q 285 -18 285 29 q 325 -96 285 -65 q 389 -175 389 -144 q 331 -228 389 -228 l 314 -228 q 181 -184 231 -228 q 132 -50 132 -141 q 154 104 132 -10 q 176 263 176 219 q 139 334 176 308 q 86 393 86 370 q 155 467 86 432 q 227 545 208 493 q 256 711 231 555 q 317 923 281 868 q 414 1003 353 978 q 543 1028 475 1028 l 559 1028 q 587 1005 587 1028 l 587 989 q 540 922 587 944 l 526 916 q 497 904 499 905 q 437 843 458 884 q 399 686 416 803 q 363 519 383 568 q 302 436 344 469 q 260 401 260 402 z "},"|":{"ha":420,"x_min":104,"x_max":374,"o":"m 165 -250 l 138 -250 q 104 -228 104 -250 l 104 -214 q 147 162 104 -186 q 193 545 189 510 q 210 689 196 579 l 216 744 l 218 758 l 229 855 l 231 869 l 234 897 l 235 911 q 245 993 245 991 q 327 1028 254 1028 l 340 1028 q 374 1007 374 1028 q 331 621 374 985 q 286 237 288 256 q 267 81 284 217 l 264 53 l 250 -73 l 248 -87 l 243 -130 q 233 -213 233 -211 q 165 -250 224 -250 z "},"}":{"ha":528,"x_min":-13,"x_max":479,"o":"m 252 542 q 271 679 252 581 q 290 815 290 778 q 275 876 290 853 q 224 918 259 899 q 189 966 189 937 q 234 1027 189 1027 l 250 1027 q 433 842 433 1027 q 414 692 433 800 q 394 549 394 585 q 416 486 394 513 q 452 460 424 476 q 479 432 479 444 l 479 416 q 423 342 479 370 q 345 260 367 314 q 312 85 337 241 q 247 -126 288 -72 q 23 -229 172 -229 q 21 -229 22 -229 q -13 -213 -13 -229 l -13 -198 q 4 -151 -13 -169 q 67 -110 21 -133 q 135 -47 113 -87 q 175 116 157 -7 q 213 290 192 240 q 288 378 233 339 q 318 402 318 399 l 292 431 q 252 542 252 477 z "},"~":{"ha":711,"x_min":106,"x_max":697,"o":"m 290 581 l 304 581 q 418 537 341 581 q 523 494 494 494 q 594 529 551 494 q 667 564 637 564 q 697 544 697 564 l 697 537 q 639 434 697 488 q 512 380 581 380 l 505 380 q 389 424 466 380 q 280 468 311 468 q 210 431 250 468 q 138 395 171 395 q 106 414 106 395 l 106 421 q 179 538 106 478 q 290 581 231 581 z "},"":{"ha":380,"x_min":0,"x_max":0,"o":""},"":{"ha":396,"x_min":34,"x_max":363,"o":"m 283 766 q 309 764 294 764 q 343 744 323 764 q 363 690 363 724 l 363 680 q 336 604 363 635 q 266 572 309 572 l 243 572 q 190 591 213 572 q 167 642 167 611 l 167 665 q 168 674 168 670 q 194 734 168 704 q 252 764 220 764 l 267 766 l 283 766 m 102 -229 l 77 -229 q 34 -202 34 -229 l 34 -195 q 50 -114 34 -192 l 62 -55 l 64 -47 l 67 -31 l 69 -22 q 161 404 142 345 q 189 471 179 464 q 243 479 199 479 l 251 479 q 288 454 288 479 l 288 447 q 253 146 288 446 q 209 -181 218 -153 q 178 -219 199 -210 q 102 -229 157 -229 z "},"":{"ha":673,"x_min":77,"x_max":646,"o":"m 234 289 q 260 195 234 231 q 298 159 286 159 q 313 174 310 159 q 391 568 391 509 l 391 572 q 381 578 391 578 q 338 554 371 578 q 281 488 304 530 q 236 344 236 412 l 235 339 l 235 334 l 234 314 l 234 289 m 208 47 q 77 284 77 127 q 175 559 77 440 q 323 666 234 630 q 389 698 374 687 q 430 755 403 709 q 483 800 458 800 q 527 772 508 800 q 646 579 646 597 q 629 544 646 562 q 590 527 612 527 q 542 544 569 527 q 499 562 514 562 q 480 536 490 562 q 440 358 471 510 q 409 190 409 205 q 453 156 409 156 l 475 161 l 489 165 q 536 170 509 170 q 571 135 571 170 q 490 64 571 101 q 385 -13 409 26 q 298 -89 337 -89 q 267 -43 267 -89 l 269 -16 q 208 47 269 10 z "},"":{"ha":757,"x_min":28,"x_max":734,"o":"m 595 780 q 506 797 562 797 q 407 738 450 797 q 365 586 365 679 q 400 534 365 552 q 476 513 402 533 q 549 476 549 493 q 517 425 549 450 q 451 398 509 418 q 365 346 392 377 q 314 251 337 315 q 290 176 290 186 q 464 138 290 138 q 545 158 487 138 q 632 178 602 178 q 658 118 658 178 q 606 23 658 59 q 482 -3 570 -3 l 460 -3 q 415 -1 449 -3 l 347 4 q 212 9 268 9 l 190 7 q 80 3 120 3 q 28 50 28 3 q 78 134 28 85 q 143 210 127 182 q 178 336 178 271 q 138 394 178 367 q 98 456 98 422 q 135 507 98 471 q 178 552 172 542 q 198 631 184 563 q 232 748 212 700 q 292 840 252 796 q 547 935 378 935 q 680 902 625 935 q 734 808 734 869 q 712 762 734 785 q 666 740 691 740 q 637 753 659 740 l 595 780 z "},"":{"ha":764,"x_min":72,"x_max":732,"o":"m 548 516 q 512 614 548 574 q 432 654 475 654 l 412 654 q 306 595 354 654 q 258 462 258 536 l 258 457 q 291 356 258 396 q 372 315 323 315 l 392 315 q 496 371 446 315 q 547 486 547 426 l 548 496 l 548 516 m 650 619 q 657 583 650 612 q 663 507 663 553 q 637 398 663 461 q 612 320 612 334 q 636 274 612 306 q 661 223 661 242 q 639 184 661 203 q 600 165 618 165 q 551 198 581 165 q 498 231 521 231 q 453 218 494 231 q 366 206 411 206 q 285 215 320 206 q 237 224 250 224 q 184 189 224 224 q 129 154 144 154 q 93 178 113 154 q 72 217 72 202 q 110 272 72 232 q 149 333 149 311 q 141 372 149 334 q 133 458 133 410 q 155 563 133 507 q 178 634 178 620 q 157 685 178 648 q 136 735 136 722 q 157 773 136 748 q 196 799 178 799 q 246 766 215 799 q 289 732 277 732 q 330 741 301 732 q 378 754 359 749 q 435 758 397 758 q 515 745 473 758 q 569 732 557 732 q 622 766 582 732 q 676 799 661 799 q 711 774 690 799 q 732 734 732 750 q 691 678 732 718 q 650 619 650 638 z "},"":{"ha":851,"x_min":140,"x_max":897,"o":"m 140 888 q 229 956 140 956 l 254 956 q 372 909 346 956 q 379 848 374 905 q 424 668 385 791 q 474 544 462 544 q 635 761 500 544 q 690 870 677 827 q 703 915 703 913 q 812 956 727 956 q 897 922 897 956 q 764 735 897 912 q 632 502 632 557 q 648 461 632 488 q 664 432 664 435 q 642 382 664 400 q 594 364 634 376 q 553 323 553 353 q 598 278 553 293 q 643 243 643 262 q 599 188 643 220 q 563 170 588 180 q 525 143 538 159 q 503 87 511 127 q 467 23 495 47 q 369 -1 439 -1 q 274 10 298 -1 q 250 44 250 20 q 256 97 250 68 q 263 139 263 125 q 218 187 263 154 q 174 230 174 220 q 233 284 174 267 q 292 342 292 301 q 251 376 292 347 q 210 433 210 405 q 240 495 210 449 q 271 561 271 541 q 218 722 271 607 q 196 767 204 752 l 170 808 q 140 888 140 860 z "},"":{"ha":364,"x_min":61,"x_max":327,"o":"m 256 1031 l 296 1031 q 327 1003 327 1031 l 323 964 l 321 951 l 319 931 q 314 887 315 894 q 310 857 313 880 q 307 826 308 834 q 302 787 305 817 q 298 748 300 758 q 286 637 296 739 q 270 517 276 536 q 195 498 264 498 l 189 497 q 144 525 144 497 q 197 998 144 659 q 256 1031 203 1031 m 127 -256 l 94 -256 q 61 -237 61 -256 l 61 -231 q 67 -170 61 -224 q 75 -109 74 -117 l 77 -84 q 81 -47 80 -58 l 85 -12 l 88 14 q 115 244 111 227 q 178 272 121 272 l 204 272 q 243 251 243 272 l 243 245 q 190 -228 243 76 q 127 -256 185 -256 z "},"":{"ha":691,"x_min":83,"x_max":647,"o":"m 499 411 l 499 426 q 448 509 499 469 q 326 568 372 568 l 322 568 q 280 542 306 568 q 254 480 254 515 l 254 461 q 297 384 254 418 q 424 315 385 315 l 437 315 q 475 346 452 315 q 499 411 499 376 m 231 652 q 216 766 216 727 q 234 851 216 806 q 288 928 253 897 q 468 998 365 998 l 489 998 q 586 983 545 998 q 647 929 647 961 l 647 911 q 625 844 647 867 q 605 836 616 836 q 549 860 594 836 q 462 884 504 884 q 396 862 420 884 q 372 801 372 840 q 414 720 372 762 q 502 658 425 710 q 611 564 578 606 q 644 465 644 522 q 577 299 644 366 q 534 234 534 256 l 537 172 q 522 53 537 103 q 467 -37 506 4 q 254 -120 388 -119 q 135 -96 186 -120 q 83 -40 83 -71 q 132 51 83 51 q 160 40 139 51 l 174 32 q 217 10 194 20 q 285 0 239 0 q 372 96 372 0 q 348 152 372 124 q 250 231 324 179 q 144 328 176 282 q 112 429 112 373 q 181 591 112 524 q 231 652 231 640 z "},"":{"ha":583,"x_min":137,"x_max":577,"o":"m 309 797 q 308 783 309 797 q 285 733 308 761 q 237 706 262 706 q 229 705 231 705 l 217 703 l 209 703 q 159 721 180 703 q 137 774 137 739 l 137 783 q 160 846 137 814 q 213 878 182 878 l 227 880 l 241 880 q 292 858 274 880 q 310 808 310 837 l 310 800 l 309 797 m 577 815 l 577 795 q 575 781 575 787 q 547 727 575 750 q 489 703 519 703 l 474 703 q 426 721 448 703 q 405 768 405 739 l 405 788 l 408 805 q 435 857 408 833 q 496 880 463 880 l 505 880 q 526 878 515 878 q 557 861 536 878 q 577 815 577 844 z "},"":{"ha":1062,"x_min":111,"x_max":1038,"o":"m 527 84 l 552 84 q 694 114 625 84 q 903 317 836 176 q 946 492 946 405 l 946 528 q 946 532 946 530 q 946 534 946 533 q 921 655 946 591 q 741 838 869 785 q 622 861 684 861 l 597 861 q 321 736 446 861 q 234 601 266 681 q 203 440 203 521 l 203 416 q 300 178 203 281 q 401 111 340 137 q 527 84 461 84 m 324 431 l 324 454 q 347 568 324 512 q 495 724 395 682 q 608 747 551 747 l 620 747 q 730 726 686 747 q 774 672 774 705 l 774 662 q 731 617 774 617 q 677 636 724 617 q 590 654 629 654 q 490 597 530 654 q 450 454 450 541 q 486 330 450 368 q 581 293 522 293 q 654 307 606 293 q 714 320 701 320 q 739 290 739 320 q 688 229 739 259 q 567 199 637 199 l 543 199 q 387 264 450 199 q 324 431 324 330 m 1038 537 l 1038 507 q 887 148 1038 304 q 722 37 814 73 q 543 1 629 1 l 528 1 q 356 35 435 1 q 139 263 198 104 q 111 422 111 339 l 111 437 l 111 452 q 153 635 111 540 q 268 802 194 730 q 430 908 342 873 q 606 944 519 944 l 622 944 q 907 837 792 944 q 1002 702 966 781 q 1038 537 1038 623 z "},"":{"ha":569,"x_min":120,"x_max":517,"o":"m 382 761 q 347 795 382 795 l 335 795 q 255 748 290 795 q 221 658 221 700 l 221 645 q 266 583 221 583 l 275 583 q 344 629 311 583 q 376 710 376 675 l 380 728 l 380 734 l 381 738 l 382 749 l 382 761 m 444 917 q 508 829 508 917 q 499 732 508 789 q 490 650 490 674 q 503 612 490 627 q 517 588 517 597 l 517 581 q 440 506 517 506 l 423 506 q 381 524 414 506 q 341 543 349 543 q 296 526 333 543 q 221 510 259 510 q 152 539 183 510 q 120 614 120 569 l 121 621 l 121 629 q 144 700 121 663 q 190 759 168 736 q 217 792 212 781 q 230 832 222 803 q 242 867 238 861 q 358 908 277 908 q 404 911 385 908 l 444 917 z "},"":{"ha":753,"x_min":75,"x_max":715,"o":"m 434 595 q 336 460 434 565 q 237 351 237 356 q 295 249 237 346 q 353 115 353 153 q 337 89 353 104 q 301 74 321 74 q 237 123 281 74 q 75 349 75 308 q 221 500 75 370 q 395 630 367 630 l 401 630 q 434 601 434 630 l 434 595 m 526 351 q 581 251 526 351 q 635 131 635 152 q 618 95 635 110 q 591 81 602 81 l 585 81 q 486 174 554 81 q 366 353 366 340 q 509 498 366 372 q 683 624 652 624 q 715 591 715 624 q 621 458 715 559 q 526 351 526 358 z "},"":{"ha":810,"x_min":100,"x_max":738,"o":"m 142 534 l 690 534 q 727 525 717 534 q 738 471 738 515 l 738 463 q 709 215 738 323 q 676 195 703 195 l 667 195 l 658 196 q 606 206 614 196 q 597 256 597 216 l 602 338 q 586 417 602 409 q 336 425 570 425 l 288 425 l 268 425 l 142 425 q 100 451 100 425 l 100 460 q 109 519 100 505 q 142 534 117 534 z "},"":{"ha":526,"x_min":74,"x_max":474,"o":"m 474 442 l 474 428 q 449 326 474 337 q 262 321 439 321 l 247 320 l 201 320 l 186 319 l 89 319 q 74 330 74 319 l 74 334 l 75 339 q 99 442 75 431 q 286 447 109 447 l 373 448 l 454 448 q 474 442 474 448 z "},"":{"ha":954,"x_min":92,"x_max":899,"o":"m 456 644 l 494 644 l 507 645 l 522 648 q 558 666 535 648 q 582 715 582 685 l 582 734 q 562 771 582 755 q 513 787 542 787 l 477 787 q 447 706 447 787 l 446 694 l 446 689 l 445 686 l 445 682 l 442 654 l 442 650 q 456 644 442 644 m 447 278 l 479 278 q 606 308 543 278 q 795 513 740 370 q 820 647 820 575 l 820 658 q 736 870 820 787 q 533 954 653 954 l 522 954 q 272 843 374 954 q 171 584 171 732 l 171 573 q 258 357 171 449 q 348 299 294 320 q 447 278 401 278 m 673 741 l 673 720 q 607 616 673 660 q 582 588 582 600 q 626 493 582 576 q 671 410 671 411 q 613 390 671 390 q 562 418 585 390 q 538 463 555 426 l 530 481 q 463 570 492 570 q 431 497 431 570 l 437 430 q 359 389 437 389 l 349 390 q 311 420 311 390 l 311 429 q 323 462 311 434 q 336 494 336 490 l 342 555 l 344 576 q 358 752 358 718 q 354 803 358 787 q 349 829 349 819 q 418 850 349 850 l 522 850 q 632 820 591 850 q 673 741 673 789 m 899 667 l 899 641 q 863 476 899 557 q 625 238 790 309 q 463 205 549 205 l 450 205 q 186 319 296 205 q 117 432 141 366 q 92 564 92 498 l 92 578 q 125 749 92 667 q 220 895 158 832 q 361 991 283 957 q 515 1026 439 1026 l 541 1026 q 684 997 616 1025 q 871 806 817 940 q 899 667 899 736 z "},"":{"ha":571,"x_min":132,"x_max":566,"o":"m 566 827 l 566 817 q 542 745 566 755 q 339 743 537 743 l 250 743 l 229 742 l 151 742 q 132 760 132 742 l 132 764 q 165 844 132 844 l 552 844 q 566 827 566 844 z "},"":{"ha":480,"x_min":115,"x_max":489,"o":"m 318 833 l 309 833 q 240 798 271 833 q 210 722 210 762 l 210 709 q 234 648 210 671 q 281 624 258 624 l 300 624 q 368 662 340 624 q 395 734 395 700 l 395 745 q 372 807 395 781 q 318 833 350 833 m 115 693 l 115 724 q 181 860 115 805 q 313 916 246 916 l 332 916 q 442 869 395 916 q 489 757 489 822 l 489 739 q 426 599 489 658 q 285 541 362 541 l 279 541 q 164 585 212 541 q 115 693 115 630 z "},"":{"ha":739,"x_min":67,"x_max":697,"o":"m 492 571 q 585 570 496 570 q 681 568 673 570 q 697 541 697 564 l 697 530 q 676 462 697 479 q 568 454 666 454 q 463 447 470 454 q 446 350 456 439 q 433 255 435 261 q 367 237 426 237 l 356 237 q 316 276 316 237 q 323 346 316 287 q 330 439 330 404 q 234 454 330 454 q 124 458 137 454 q 111 488 111 463 q 136 564 111 549 q 243 570 145 570 q 345 578 340 570 q 361 678 350 585 q 375 775 373 770 q 431 791 383 791 l 454 791 q 492 762 492 791 l 475 596 q 492 571 475 574 m 113 177 l 635 177 q 654 160 654 177 l 654 154 q 642 79 654 96 q 601 62 630 62 l 85 62 q 67 79 67 62 l 67 92 q 77 155 67 132 q 113 177 87 177 z "},"":{"ha":501,"x_min":92,"x_max":490,"o":"m 340 427 l 253 427 l 240 428 l 228 428 q 92 452 92 428 q 193 589 92 496 q 330 732 294 682 q 366 821 366 781 q 310 876 366 876 q 242 842 290 876 q 180 808 195 808 q 160 851 160 808 q 216 932 160 895 q 336 968 272 968 l 349 968 q 451 936 411 968 q 490 846 490 904 q 459 742 490 789 q 347 620 428 695 q 265 532 265 545 q 313 528 265 528 q 386 532 361 528 q 426 536 411 536 q 453 505 453 536 q 340 427 453 427 z "},"":{"ha":495,"x_min":84,"x_max":470,"o":"m 235 410 l 211 410 q 120 437 157 410 q 84 473 84 463 l 84 483 q 98 512 84 495 q 136 529 112 529 q 177 516 141 529 q 250 503 214 503 q 312 530 287 503 q 337 593 337 557 q 319 644 337 629 q 262 668 302 659 q 222 699 222 677 q 284 761 222 721 q 345 836 345 802 q 304 876 345 876 q 244 860 287 876 q 189 844 201 844 q 164 882 164 844 q 213 945 164 920 q 324 970 261 970 l 349 970 q 470 882 470 970 l 470 871 q 403 751 470 808 q 377 725 377 729 q 401 706 377 722 q 440 666 425 690 q 455 593 455 642 q 386 463 455 515 q 235 410 316 410 z "},"":{"ha":454,"x_min":174,"x_max":463,"o":"m 463 950 l 463 944 q 326 787 463 925 q 226 729 267 729 l 210 729 q 199 730 202 730 q 174 744 174 730 q 294 935 174 780 q 355 964 317 964 l 375 966 l 404 966 l 437 964 q 463 950 463 964 z "},"":{"ha":779,"x_min":25,"x_max":720,"o":"m 70 -278 q 25 -231 25 -278 q 84 162 25 -155 q 144 547 144 478 q 176 639 144 616 q 243 650 192 650 q 306 624 294 650 q 311 570 311 612 q 288 404 311 528 q 265 228 265 278 q 354 122 265 122 q 412 141 381 122 q 486 218 461 170 q 538 408 511 266 q 566 553 564 550 q 606 619 581 596 q 657 642 631 642 q 702 626 684 642 q 720 585 720 609 l 720 566 q 701 448 720 549 q 682 292 682 349 q 688 190 682 235 q 693 92 693 146 q 666 38 693 66 q 600 10 639 10 q 537 31 561 10 q 517 59 530 37 q 496 81 504 81 q 434 44 495 81 q 341 7 372 7 q 292 10 310 7 l 273 14 q 242 20 252 20 q 203 -25 217 20 q 179 -148 189 -70 q 166 -234 170 -226 q 70 -278 148 -278 z "},"":{"ha":840,"x_min":125,"x_max":855,"o":"m 855 975 l 855 957 q 814 821 855 920 q 768 694 773 722 q 730 443 764 667 q 685 145 696 220 q 673 62 673 71 l 671 38 l 671 14 q 668 -33 669 -28 q 634 -81 661 -64 q 587 -99 608 -99 q 548 -73 567 -99 q 528 -18 528 -47 q 592 412 528 -14 l 601 466 q 610 524 602 473 q 625 629 617 575 l 658 844 q 649 885 658 877 q 611 892 640 892 q 567 877 582 892 q 543 808 552 861 l 510 592 q 476 372 484 422 l 460 262 q 409 -56 416 -37 q 345 -102 393 -102 q 304 -92 318 -102 q 290 -50 290 -81 q 306 86 290 -18 q 321 291 321 191 q 296 431 321 391 q 238 483 292 435 q 155 577 184 530 q 125 684 125 624 l 125 711 q 160 834 125 773 q 370 989 228 954 q 534 1004 431 1004 l 671 1004 q 855 975 855 1004 z "},"":{"ha":343,"x_min":90,"x_max":293,"o":"m 208 526 q 272 502 251 526 q 293 444 293 477 l 293 427 q 267 357 293 388 q 208 326 240 326 q 198 324 201 324 l 182 323 q 115 345 140 323 q 90 403 90 367 l 90 423 q 119 496 90 467 q 182 525 149 525 l 189 526 l 208 526 z "},"":{"ha":1672,"x_min":84,"x_max":347,"o":"m 282 -24 q 277 -54 277 -47 q 291 -67 277 -60 q 325 -94 304 -75 q 347 -149 347 -113 l 347 -155 q 296 -253 347 -211 q 188 -295 245 -295 l 160 -295 q 144 -294 149 -294 q 84 -264 84 -294 l 84 -254 q 141 -219 84 -219 q 199 -204 181 -219 q 216 -168 216 -190 q 195 -136 216 -160 q 174 -102 174 -112 q 203 -19 174 -56 q 242 -3 216 -3 l 258 -3 q 282 -24 282 -3 z "},"":{"ha":411,"x_min":140,"x_max":378,"o":"m 263 429 l 191 429 q 140 470 140 429 l 140 477 q 165 534 140 500 q 198 597 190 567 q 229 783 229 704 q 192 824 229 804 q 155 869 155 844 q 192 905 155 884 q 339 964 295 964 l 353 964 q 378 951 378 964 l 378 937 q 373 902 378 926 q 364 857 368 878 l 361 842 q 356 817 358 828 l 353 801 l 349 777 q 321 592 321 610 l 328 547 l 334 494 q 314 451 334 473 q 263 429 294 429 z "},"":{"ha":545,"x_min":100,"x_max":543,"o":"m 225 652 l 227 632 q 247 582 227 605 q 291 559 267 559 l 302 559 q 379 607 342 559 q 416 709 416 654 l 418 718 l 418 734 l 418 742 q 402 810 418 780 q 352 840 385 840 l 337 840 q 260 786 296 840 q 224 665 224 732 l 224 656 l 225 652 m 298 475 l 267 475 q 148 526 196 475 q 100 653 100 577 l 100 661 q 176 848 100 772 q 353 924 252 924 l 368 924 q 492 876 441 924 q 543 752 543 829 l 543 730 q 463 546 543 631 q 386 494 433 514 q 298 475 339 475 z "},"":{"ha":751,"x_min":63,"x_max":702,"o":"m 193 461 q 142 572 142 549 q 159 610 142 595 q 185 625 176 625 l 191 625 q 258 576 218 625 q 411 354 411 393 q 268 208 411 334 q 106 82 125 82 l 100 82 q 63 113 63 82 l 63 119 q 158 248 63 148 q 252 359 252 349 q 224 410 252 360 l 205 442 l 193 461 m 541 359 q 482 457 541 359 q 423 579 423 555 q 440 617 423 603 q 466 631 456 631 l 473 631 q 542 581 500 631 q 702 355 702 387 q 555 205 702 336 q 387 75 408 75 l 380 75 q 343 106 343 75 l 343 113 q 442 245 343 140 q 541 359 541 351 z "},"":{"ha":1095,"x_min":191,"x_max":1017,"o":"m 882 395 q 867 378 882 397 q 845 353 851 359 q 825 330 838 347 q 804 307 811 314 q 726 217 726 229 q 734 216 726 216 l 743 216 l 745 216 l 786 216 q 853 237 853 216 q 865 301 865 283 q 873 350 873 336 q 876 363 876 358 l 882 391 l 882 395 m 311 395 l 253 395 q 191 443 191 395 q 216 489 191 466 q 252 546 241 513 q 288 760 288 656 q 252 811 288 776 q 217 850 217 846 q 282 907 217 870 q 400 944 347 944 q 430 914 430 944 l 430 907 q 425 867 430 900 l 420 843 l 417 827 l 409 777 q 404 751 404 753 l 401 734 q 374 553 374 565 q 378 516 378 527 q 386 480 378 506 q 393 452 393 454 q 362 405 393 427 q 311 395 349 395 m 852 913 q 942 971 895 971 q 990 951 990 971 q 972 909 990 937 q 341 20 746 566 q 258 -29 305 -29 q 211 -9 211 -29 q 852 913 211 20 m 656 133 q 609 168 609 133 l 609 174 q 773 377 609 195 q 964 559 938 559 l 980 559 q 1015 532 1015 559 q 1005 475 1015 528 q 994 409 996 422 q 983 343 992 396 q 973 272 973 291 q 984 232 973 252 q 1006 203 996 212 q 1017 191 1017 193 q 1000 143 1017 166 q 970 112 983 120 q 956 92 958 103 q 930 8 942 23 q 877 -7 918 -7 l 839 -7 q 802 44 802 -7 q 810 76 802 56 q 818 102 818 96 q 712 132 818 132 l 684 132 q 656 133 666 133 z "},"":{"ha":1142,"x_min":191,"x_max":1078,"o":"m 315 399 l 249 399 q 194 445 194 399 q 217 500 194 469 q 251 569 240 530 q 279 728 279 671 l 281 762 q 246 803 281 772 q 211 851 211 835 q 250 890 211 867 q 398 949 344 949 l 405 949 q 432 919 432 949 q 404 750 432 889 q 376 571 376 611 l 381 524 l 388 470 q 367 418 388 438 q 315 399 345 399 m 931 975 l 943 975 q 991 955 991 975 q 976 922 991 945 q 348 40 640 433 q 250 -31 296 -31 l 238 -31 q 191 -10 191 -31 q 237 65 191 -1 q 850 926 747 797 q 931 975 889 975 m 918 0 l 854 0 l 841 1 l 815 1 q 673 21 673 1 q 697 85 673 56 q 800 190 721 113 q 913 313 880 266 q 947 401 947 359 q 895 458 947 458 q 823 420 865 458 q 758 382 781 382 q 738 429 738 382 q 797 514 738 475 q 920 553 855 553 l 933 553 q 1037 520 997 553 q 1078 435 1078 488 l 1078 422 q 1027 297 1078 365 q 926 194 1006 268 q 846 111 846 120 q 879 102 846 102 q 924 103 911 103 l 1008 112 q 1040 85 1040 112 q 918 0 1040 0 z "},"":{"ha":1187,"x_min":115,"x_max":1055,"o":"m 923 397 l 922 397 q 871 342 918 397 q 798 260 825 287 q 771 229 771 233 l 771 227 q 779 226 771 226 l 787 226 l 790 227 l 827 227 q 893 240 893 227 q 902 285 897 250 q 912 336 908 320 q 917 368 917 351 l 920 381 l 923 395 l 923 397 m 363 956 l 389 956 q 478 938 452 956 q 503 882 503 921 q 481 807 503 842 q 429 745 458 772 q 399 716 399 718 q 428 697 399 715 q 472 652 456 680 q 488 574 488 625 q 419 451 488 507 q 259 395 351 395 l 246 395 q 157 416 199 395 q 115 466 115 437 q 162 507 115 507 q 205 493 173 507 q 273 479 237 479 q 341 507 309 479 q 374 577 374 535 q 356 636 374 619 q 296 664 337 653 q 256 693 256 675 q 314 750 256 701 q 373 832 373 800 q 334 864 373 864 q 279 849 315 864 q 228 833 243 833 q 200 861 200 833 q 232 926 200 907 q 363 956 283 956 m 916 931 q 994 973 949 973 q 1040 960 1040 973 l 1040 950 q 1018 907 1040 939 q 398 33 649 370 q 312 -20 359 -20 q 266 -7 266 -20 l 266 2 q 314 83 266 16 q 400 205 362 150 q 454 282 439 261 q 620 515 566 436 l 725 664 q 823 801 735 677 q 916 931 911 925 m 918 8 l 880 8 q 842 56 842 8 q 851 89 842 68 q 859 117 859 110 q 751 144 859 144 q 675 152 693 144 q 658 181 658 161 q 932 505 658 202 q 1013 555 977 555 l 1020 555 q 1053 529 1053 555 q 1032 408 1053 517 q 1012 274 1012 298 q 1044 216 1012 250 q 1055 199 1055 203 q 1025 139 1055 170 q 995 90 995 109 q 971 22 995 47 q 918 8 958 8 z "},"":{"ha":634,"x_min":22,"x_max":524,"o":"m 524 679 l 524 663 q 496 590 524 623 q 420 558 469 558 l 410 558 l 407 559 l 401 559 q 391 560 394 560 q 343 584 360 560 q 327 637 327 607 l 328 641 q 355 720 328 688 q 431 752 382 752 l 433 752 l 437 751 l 444 751 l 456 750 q 501 731 479 750 q 524 679 524 712 m 228 -77 q 240 -89 228 -77 q 292 -100 253 -100 q 387 -65 332 -100 q 468 -30 441 -30 q 511 -84 511 -30 l 511 -95 q 488 -141 511 -111 q 429 -192 465 -172 q 273 -233 357 -233 l 260 -233 q 88 -177 154 -233 q 22 -43 22 -121 l 22 -31 q 176 221 22 94 q 286 319 269 298 q 309 363 304 341 q 320 414 315 385 q 330 450 326 444 q 392 472 343 472 l 404 472 q 447 408 447 472 q 418 297 447 344 q 328 193 390 251 q 243 105 265 135 q 203 -18 203 49 q 228 -77 203 -53 z "},"":{"ha":924,"x_min":25,"x_max":855,"o":"m 555 427 q 583 429 570 429 q 597 448 597 429 l 597 452 q 571 618 597 467 q 545 770 546 770 l 543 770 q 530 744 542 770 q 508 701 518 718 q 372 436 372 467 l 372 433 q 477 427 372 427 l 555 427 m 656 1066 l 646 1066 q 564 1093 598 1066 q 425 1253 425 1201 l 425 1263 q 467 1287 425 1287 l 475 1289 l 502 1291 l 517 1291 q 592 1257 566 1291 q 683 1099 683 1141 l 683 1093 q 656 1066 683 1066 m 490 916 q 595 991 539 991 q 669 939 651 991 q 785 373 697 856 q 811 244 805 262 q 836 192 817 226 q 855 121 855 159 q 819 53 855 83 q 730 24 783 24 q 645 46 676 24 q 629 78 629 57 l 631 92 l 633 106 q 636 153 636 125 q 615 280 636 247 q 525 314 593 314 q 312 295 340 314 q 238 173 284 275 q 215 99 222 138 q 199 50 208 61 q 107 22 175 22 q 61 31 76 22 q 25 91 25 53 q 65 176 25 130 q 262 506 154 281 q 490 916 370 732 z "},"":{"ha":920,"x_min":24,"x_max":855,"o":"m 543 427 q 595 448 595 427 l 595 452 l 595 456 q 569 619 595 465 q 543 773 543 773 l 541 773 q 511 715 540 773 q 425 551 482 657 q 368 436 368 444 l 368 433 q 479 427 368 427 l 524 427 l 543 427 m 823 1265 q 711 1146 823 1223 q 559 1068 600 1068 l 540 1068 q 519 1085 519 1068 l 519 1095 q 558 1158 519 1102 q 730 1291 651 1291 l 755 1291 l 767 1290 l 783 1289 q 823 1265 823 1289 m 599 992 q 671 922 650 992 q 796 299 686 875 q 831 196 806 246 q 855 120 855 146 q 823 58 855 93 q 748 23 791 23 q 641 46 677 23 q 625 77 625 56 l 627 92 q 634 193 634 135 q 541 316 634 316 q 311 297 340 316 q 235 173 281 278 q 212 99 221 142 q 196 50 202 57 q 106 22 174 22 q 60 31 75 22 q 24 92 24 52 l 24 104 q 40 150 24 124 q 261 511 242 471 q 488 919 356 704 q 599 992 534 992 z "},"":{"ha":924,"x_min":24,"x_max":854,"o":"m 549 420 q 596 440 596 420 l 596 444 q 587 507 596 463 q 562 657 577 551 q 544 762 547 762 l 543 762 q 536 750 541 762 q 526 730 530 738 l 512 702 l 509 698 l 507 693 l 505 689 l 503 685 q 371 429 371 441 l 371 426 q 481 420 371 420 l 506 420 l 549 420 m 644 1289 l 649 1289 q 709 1257 680 1289 q 821 1086 821 1136 q 779 1060 821 1060 q 687 1111 738 1060 q 628 1162 635 1162 q 549 1111 621 1162 q 434 1059 477 1059 l 429 1059 q 399 1077 399 1059 l 399 1081 q 551 1238 399 1109 q 644 1289 612 1289 m 489 909 q 594 984 538 984 q 668 931 650 984 q 784 366 711 806 q 808 241 800 266 q 836 184 817 216 q 854 115 854 153 q 819 47 854 77 q 730 16 783 16 q 644 39 677 16 q 629 71 629 48 l 630 84 l 633 99 q 635 146 635 119 q 614 273 635 238 q 542 307 593 307 q 311 287 340 307 q 237 166 283 267 q 214 92 220 129 q 205 52 207 56 q 106 16 185 16 q 60 24 74 16 q 24 84 24 45 q 64 169 24 122 q 268 513 134 251 q 489 909 402 775 z "},"":{"ha":924,"x_min":24,"x_max":871,"o":"m 544 414 q 595 435 595 414 l 595 439 q 571 590 595 467 q 546 736 546 714 q 543 758 546 758 l 542 758 q 516 709 538 758 q 432 546 494 661 q 370 423 370 431 l 370 420 q 481 415 370 415 l 530 414 l 544 414 m 534 1236 l 551 1236 q 641 1204 591 1236 q 719 1172 690 1172 q 785 1198 748 1172 q 846 1225 822 1225 q 871 1204 871 1225 l 871 1198 q 819 1109 871 1157 q 713 1061 768 1061 l 701 1061 q 607 1094 663 1061 q 524 1127 551 1127 q 463 1099 496 1127 q 403 1071 430 1071 q 376 1092 376 1071 l 376 1097 q 430 1190 376 1143 q 534 1236 485 1236 m 488 904 q 593 979 537 979 q 667 926 648 979 q 748 556 694 853 q 807 236 802 258 q 833 180 813 214 q 854 110 854 146 q 819 42 854 73 q 730 11 783 11 q 643 33 677 11 q 628 65 628 43 l 629 79 l 632 94 q 635 140 635 114 q 611 272 635 233 q 524 302 593 302 q 310 281 339 302 q 236 161 281 260 q 213 88 221 128 q 204 47 204 47 q 106 10 184 10 q 60 18 74 10 q 24 78 24 39 q 64 163 24 117 q 261 496 143 255 q 488 904 379 737 z "},"":{"ha":924,"x_min":25,"x_max":856,"o":"m 478 422 l 555 422 l 560 423 l 574 424 q 583 425 579 425 q 597 443 597 425 l 597 447 q 572 611 597 458 q 545 765 546 765 l 544 765 q 529 737 543 765 q 444 576 515 709 q 372 432 372 442 q 478 422 372 422 m 485 1069 l 479 1069 l 476 1069 l 471 1069 l 459 1071 q 424 1087 444 1071 q 404 1135 404 1104 l 404 1149 q 426 1210 404 1179 q 479 1241 448 1241 l 493 1243 l 511 1243 q 555 1226 535 1243 q 575 1191 575 1210 q 576 1183 576 1185 l 578 1168 l 577 1166 l 577 1160 l 576 1148 q 548 1092 576 1116 q 485 1069 519 1069 m 846 1179 l 846 1162 q 824 1102 846 1133 q 770 1071 802 1071 l 753 1069 l 744 1069 l 741 1069 l 735 1069 q 721 1071 730 1071 q 691 1087 711 1071 q 671 1139 671 1104 l 671 1144 q 694 1210 671 1179 q 748 1241 716 1241 l 762 1243 l 777 1243 q 825 1226 804 1243 q 846 1179 846 1208 m 490 911 q 595 986 539 986 q 669 934 650 986 q 779 406 713 813 q 805 261 795 299 q 835 187 814 224 q 856 115 856 151 q 820 50 856 80 q 730 19 784 19 q 645 41 676 19 q 629 73 629 52 l 631 87 l 634 101 q 637 148 637 118 q 613 280 637 241 q 525 309 595 309 q 311 290 339 309 q 238 168 283 270 q 215 94 222 133 q 199 45 208 56 q 107 18 176 18 q 61 26 76 18 q 25 86 25 48 q 66 172 25 123 q 264 504 155 276 q 490 911 373 731 z "},"":{"ha":930,"x_min":40,"x_max":870,"o":"m 562 1171 q 575 1136 562 1154 q 615 1119 589 1119 l 617 1119 l 619 1120 q 662 1140 642 1120 q 682 1175 682 1160 q 684 1181 684 1179 l 685 1192 l 685 1203 l 684 1205 l 684 1210 q 683 1216 683 1214 q 638 1257 683 1257 l 625 1257 l 611 1254 q 582 1233 598 1254 q 565 1202 565 1213 l 562 1185 l 562 1171 m 566 439 q 613 456 613 439 q 557 779 613 535 q 553 790 554 790 q 536 759 552 790 q 450 595 521 727 q 379 447 379 464 q 496 440 379 440 l 511 439 l 566 439 m 613 1053 l 600 1053 q 519 1084 555 1053 q 483 1167 483 1116 l 483 1176 q 529 1278 483 1232 q 637 1324 575 1324 l 642 1324 l 647 1323 q 730 1289 696 1323 q 764 1208 764 1255 l 764 1200 q 718 1098 764 1144 q 613 1053 672 1053 m 494 917 q 597 1000 545 1000 q 668 947 649 1000 q 800 364 703 851 q 829 234 823 250 q 852 190 834 218 q 870 132 870 161 l 870 115 q 835 62 870 92 q 758 32 800 32 q 675 54 717 32 q 653 95 653 66 l 654 109 l 658 123 l 658 172 q 633 299 658 265 q 559 334 608 334 q 326 314 360 334 q 240 174 291 295 q 219 103 226 140 q 204 54 213 65 q 139 31 185 31 q 81 36 92 31 q 40 93 40 57 l 40 105 q 64 163 40 132 q 266 504 186 330 q 494 917 346 677 z "},"":{"ha":1244,"x_min":98,"x_max":1240,"o":"m 576 406 q 582 410 582 407 l 582 415 l 573 436 q 573 439 573 437 q 652 684 573 488 q 669 709 654 689 l 699 747 l 703 752 q 724 782 724 778 l 724 785 q 704 804 724 804 q 666 773 684 804 q 578 622 593 650 q 537 551 564 594 l 500 506 q 446 462 469 490 q 462 441 441 457 q 514 418 492 418 q 564 406 536 418 l 576 406 m 1005 575 q 1059 580 1037 580 q 1100 566 1081 580 q 1120 530 1120 552 q 1103 457 1120 481 q 1046 432 1087 432 l 1023 435 q 973 439 991 439 q 849 404 888 439 q 809 273 809 369 q 819 205 809 227 q 878 165 839 165 q 979 174 941 165 l 1002 181 l 1025 187 q 1086 199 1067 199 q 1118 190 1105 199 q 1131 134 1131 181 q 1104 67 1131 87 q 1023 47 1076 47 l 995 47 q 659 60 731 47 q 587 115 587 73 q 593 159 587 130 l 599 182 q 609 250 609 224 q 596 294 609 275 q 535 313 583 313 q 400 289 445 313 q 273 119 355 264 q 242 71 252 83 q 163 47 220 47 q 118 63 139 47 q 98 107 98 79 q 191 237 98 136 q 421 572 205 253 q 645 897 637 892 q 1042 934 699 934 l 1131 934 q 1205 922 1183 934 q 1240 854 1240 905 q 1219 810 1240 827 q 1166 793 1199 793 l 1149 800 q 1094 816 1118 810 q 1006 822 1071 822 q 916 799 941 822 q 874 718 890 776 q 859 626 859 661 q 888 576 859 591 q 956 567 905 567 l 978 570 l 1005 575 z "},"":{"ha":879,"x_min":87,"x_max":927,"o":"m 87 374 l 87 397 q 125 606 87 499 q 234 798 162 713 q 408 933 307 882 q 621 983 509 983 l 642 983 q 901 893 838 983 q 927 845 927 857 q 909 782 927 801 q 874 763 890 763 q 821 785 857 763 q 758 816 784 806 q 598 849 668 849 q 467 812 528 849 q 290 553 342 735 q 269 399 269 477 q 336 176 269 252 q 500 115 390 115 q 609 139 538 115 q 724 183 679 163 q 792 203 767 203 q 793 203 793 203 q 811 166 811 203 q 785 93 811 130 q 723 34 759 56 q 621 -4 686 12 q 488 -20 555 -20 l 465 -20 q 195 87 302 -20 q 87 374 88 194 m 353 -289 l 343 -289 q 279 -252 279 -289 l 280 -249 q 312 -228 280 -235 q 364 -203 344 -222 q 385 -162 385 -185 q 362 -123 385 -139 q 352 -111 352 -114 q 377 -50 352 -77 q 417 -22 401 -22 l 436 -22 q 465 -54 465 -22 q 487 -84 465 -60 q 509 -136 509 -109 l 509 -141 q 456 -246 509 -203 q 353 -289 404 -289 z "},"":{"ha":795,"x_min":44,"x_max":815,"o":"m 595 1055 l 581 1055 q 486 1096 538 1055 q 363 1242 363 1191 l 363 1249 q 441 1279 363 1279 l 456 1279 q 534 1242 502 1279 q 623 1084 623 1141 l 622 1081 q 595 1055 622 1055 m 550 9 l 290 9 q 74 19 104 9 q 44 65 44 28 q 70 121 44 81 q 106 208 96 161 l 112 233 l 116 258 q 125 310 117 268 l 144 412 q 180 594 150 441 q 210 788 210 747 q 201 868 210 828 q 192 926 192 908 q 228 965 192 956 q 511 974 264 974 l 667 975 q 765 970 742 975 q 815 917 815 958 q 794 841 815 876 q 741 806 773 806 q 705 812 730 806 q 520 845 596 845 q 417 818 445 845 q 387 739 407 808 q 366 647 366 669 q 392 591 366 603 q 461 580 418 580 q 539 585 505 580 l 584 591 q 644 577 625 591 q 664 527 664 563 q 649 457 664 492 q 600 423 633 423 q 536 433 586 423 q 441 444 487 444 q 321 394 349 444 q 294 212 294 345 q 316 150 294 164 q 395 136 338 136 q 495 147 451 136 q 581 173 538 158 q 649 187 623 187 q 688 174 674 187 q 701 127 701 161 q 667 36 701 62 q 550 9 632 9 z "},"":{"ha":793,"x_min":44,"x_max":816,"o":"m 755 1257 l 755 1251 q 621 1117 755 1202 q 492 1057 526 1057 l 473 1057 q 452 1074 452 1057 l 452 1080 q 579 1246 452 1118 q 663 1280 613 1280 l 688 1280 l 700 1278 l 716 1277 q 755 1257 755 1277 m 532 9 l 323 9 q 79 18 115 9 q 44 61 44 27 q 72 124 44 81 q 108 205 99 168 q 183 588 154 400 q 212 805 212 777 q 202 870 212 833 q 191 923 191 906 q 243 970 191 964 q 529 977 296 977 l 608 978 l 686 978 q 794 961 772 978 q 816 907 816 945 q 791 840 816 869 q 746 810 767 810 q 644 829 724 810 q 519 849 564 849 q 411 811 434 849 q 366 634 366 736 q 469 578 366 578 q 528 585 481 578 q 605 592 574 592 q 650 574 635 592 q 665 535 665 557 q 645 448 665 472 q 583 425 625 425 l 562 429 q 448 444 487 444 q 329 403 355 444 q 296 220 296 351 q 315 151 296 166 q 401 136 334 136 q 554 161 468 136 q 656 186 640 186 q 699 131 699 186 q 650 24 699 53 q 532 9 623 9 z "},"":{"ha":795,"x_min":44,"x_max":815,"o":"m 576 1284 l 581 1284 q 646 1248 615 1284 q 753 1080 753 1121 l 753 1076 q 713 1055 753 1055 q 619 1106 674 1055 q 558 1157 564 1157 q 481 1105 553 1157 q 366 1054 410 1054 l 361 1054 q 332 1072 332 1054 l 332 1076 q 484 1232 332 1103 q 576 1284 545 1284 m 473 6 l 369 6 q 70 17 106 6 q 44 62 44 25 q 70 119 44 78 q 106 205 96 160 q 210 806 210 648 q 201 865 210 825 q 192 923 192 905 q 233 963 192 954 q 332 968 256 968 l 382 970 l 591 972 l 694 972 q 815 918 815 972 q 794 837 815 871 q 741 803 773 803 q 705 810 730 803 q 521 842 597 842 q 417 815 445 842 q 387 736 407 805 q 366 644 366 667 q 392 589 366 600 q 465 577 418 577 q 539 581 512 577 l 584 588 q 644 574 625 588 q 664 511 664 560 q 637 435 664 463 q 604 420 623 420 q 535 430 586 420 q 441 441 484 441 q 321 391 349 441 q 294 210 294 342 q 316 146 294 160 q 392 133 338 133 q 490 143 446 133 q 577 169 533 154 q 648 184 622 184 q 688 171 675 184 q 701 126 701 159 q 644 18 701 43 q 473 6 617 6 z "},"":{"ha":795,"x_min":53,"x_max":824,"o":"m 433 1240 l 448 1240 q 496 1223 475 1240 q 517 1174 517 1205 l 517 1160 q 493 1096 517 1124 q 441 1068 469 1068 l 425 1066 l 413 1066 q 364 1084 385 1066 q 343 1135 343 1101 l 343 1141 l 346 1164 q 375 1219 346 1198 q 433 1240 405 1240 m 786 1173 l 786 1159 q 764 1098 786 1129 q 707 1067 742 1067 l 702 1066 l 679 1066 q 634 1083 654 1066 q 614 1121 614 1099 q 612 1130 612 1128 l 612 1144 q 637 1211 612 1181 q 705 1240 662 1240 l 713 1240 q 735 1238 724 1238 q 766 1222 747 1238 q 786 1173 786 1205 m 559 12 l 298 12 q 83 21 113 12 q 53 67 53 31 q 79 126 53 85 q 115 210 106 167 q 218 811 218 674 q 210 870 218 830 q 201 928 201 910 q 241 968 201 958 q 366 974 265 974 l 416 975 l 650 977 l 676 977 q 774 972 751 977 q 824 919 824 960 q 803 843 824 879 q 749 808 781 808 q 713 815 738 808 q 532 847 610 847 q 426 820 454 847 q 394 738 414 808 q 374 649 374 667 q 401 593 374 605 q 470 582 427 582 q 548 587 513 582 l 593 593 q 653 579 633 593 q 672 529 672 566 q 657 459 672 493 q 608 425 643 425 q 545 435 595 425 q 435 446 496 446 q 343 416 374 446 q 302 237 302 377 q 318 159 302 180 q 397 138 335 138 q 504 149 459 138 q 590 175 549 161 q 663 189 632 189 q 705 166 694 189 q 709 129 709 156 q 675 38 709 64 q 559 12 641 12 z "},"":{"ha":445,"x_min":58,"x_max":460,"o":"m 181 1244 l 181 1247 q 228 1273 181 1273 l 236 1274 l 262 1276 l 274 1276 q 353 1238 324 1276 q 437 1087 437 1131 l 437 1078 q 404 1055 437 1055 l 401 1055 l 386 1057 q 281 1114 345 1057 q 181 1244 181 1202 m 323 78 q 224 10 323 10 q 220 10 222 10 q 141 11 175 11 q 58 60 58 11 q 87 129 58 91 q 125 207 116 168 q 219 801 219 643 q 205 846 219 819 q 192 896 192 873 q 229 958 192 937 q 338 971 253 971 l 363 972 l 403 973 q 460 930 460 973 q 434 865 460 900 q 400 792 408 831 q 299 178 299 273 q 311 128 299 158 q 323 78 323 98 z "},"":{"ha":451,"x_min":61,"x_max":570,"o":"m 570 1255 l 570 1252 q 425 1108 570 1209 q 299 1057 351 1057 l 291 1057 q 267 1070 267 1057 l 267 1080 q 306 1144 267 1088 q 397 1246 346 1201 q 486 1276 431 1276 l 498 1276 l 530 1274 q 570 1255 570 1274 m 234 9 l 208 9 l 195 10 q 91 19 121 10 q 61 58 61 28 l 61 70 q 92 133 61 92 q 134 229 122 175 q 179 507 135 236 q 223 800 223 778 q 209 850 223 823 q 195 894 195 878 q 237 964 195 947 q 376 975 267 975 l 401 975 q 464 936 464 975 l 464 925 q 437 866 464 902 q 404 799 410 831 q 302 181 302 272 q 315 126 302 155 q 328 72 328 97 q 307 28 328 47 q 234 9 286 9 z "},"":{"ha":452,"x_min":55,"x_max":565,"o":"m 183 1054 l 173 1054 q 145 1068 145 1054 l 145 1073 q 316 1246 145 1102 q 390 1280 355 1280 q 456 1246 425 1280 q 565 1082 565 1127 l 565 1077 q 526 1055 565 1055 q 429 1104 487 1055 q 368 1154 370 1154 q 327 1126 365 1153 q 183 1054 227 1054 m 321 76 q 221 7 321 7 q 217 7 220 7 q 138 8 172 8 q 55 58 56 8 q 84 126 55 88 q 119 190 113 164 q 171 491 125 216 q 216 790 216 766 q 203 844 216 814 q 189 893 189 873 q 221 952 189 935 q 374 970 253 970 l 400 970 q 457 928 457 970 q 431 863 457 897 q 397 789 405 828 q 296 176 296 270 q 309 125 296 157 q 321 76 321 94 z "},"":{"ha":447,"x_min":68,"x_max":595,"o":"m 333 1172 l 333 1155 q 304 1089 333 1113 q 241 1065 275 1065 l 235 1065 q 184 1082 205 1065 q 163 1135 163 1100 l 163 1137 l 163 1140 l 163 1146 l 165 1157 q 188 1206 165 1179 q 236 1234 210 1234 l 241 1235 l 261 1236 l 267 1236 l 277 1234 q 313 1218 294 1234 q 333 1172 333 1202 m 595 1171 l 595 1154 q 569 1091 595 1118 q 509 1065 543 1065 l 494 1065 q 447 1082 467 1065 q 426 1126 426 1099 l 426 1146 q 449 1205 426 1177 q 496 1233 473 1233 q 510 1236 507 1236 l 530 1236 q 575 1219 555 1236 q 595 1171 595 1202 m 68 51 l 68 62 q 97 127 68 90 q 135 208 125 163 q 187 502 165 346 q 219 719 209 658 q 229 799 229 780 q 216 844 229 818 q 202 894 202 869 q 234 955 202 938 q 384 972 267 972 l 410 972 q 465 939 465 972 l 465 928 q 439 868 465 904 q 406 790 414 832 q 304 179 304 267 q 316 129 304 159 q 329 71 329 98 q 222 9 329 9 q 220 9 220 9 l 207 9 l 195 9 l 132 12 q 68 51 68 12 z "},"":{"ha":958,"x_min":50,"x_max":949,"o":"m 350 121 l 399 121 q 660 246 553 121 q 738 393 709 304 q 767 576 767 482 l 766 589 q 745 708 766 655 q 690 793 724 761 q 511 850 630 850 l 498 850 l 486 850 q 403 816 419 850 q 363 586 363 732 q 376 556 363 564 q 462 544 390 548 q 534 513 534 539 q 520 450 534 465 q 428 435 506 435 q 332 408 349 435 q 306 286 325 397 q 287 154 287 174 q 296 127 287 134 q 350 121 304 121 m 530 968 q 920 749 832 968 q 949 595 949 679 l 949 559 q 949 556 949 559 q 901 336 949 444 q 589 39 802 116 q 368 3 492 3 l 138 3 q 50 33 50 3 q 77 93 50 47 q 109 154 104 139 q 149 404 149 298 q 107 437 149 427 q 65 469 65 448 q 83 528 65 505 q 127 544 88 535 q 180 578 166 553 q 204 688 186 588 q 222 814 222 788 q 209 872 222 841 q 196 913 196 903 q 217 956 196 947 q 338 966 239 966 l 442 968 l 530 968 z "},"":{"ha":1012,"x_min":66,"x_max":1039,"o":"m 750 1056 l 726 1056 q 642 1088 696 1056 q 560 1120 587 1120 q 503 1093 533 1120 q 443 1065 473 1065 q 413 1086 413 1065 q 469 1184 413 1141 q 575 1228 525 1228 l 581 1228 q 673 1196 622 1228 q 752 1164 725 1164 q 811 1191 779 1164 q 871 1217 843 1217 q 899 1196 899 1217 l 899 1191 q 851 1104 899 1153 q 750 1056 802 1056 m 970 967 q 1039 901 1039 967 q 1012 825 1039 872 q 979 759 985 779 q 930 490 973 740 q 861 87 887 239 l 856 58 q 818 1 844 1 l 793 1 q 683 75 734 1 q 519 380 672 90 q 349 671 366 671 q 332 638 340 671 q 295 418 323 606 q 267 146 267 230 l 269 124 l 270 102 q 235 34 270 53 q 133 16 200 16 q 66 55 66 16 q 94 146 66 94 q 132 251 122 199 q 218 782 218 678 q 210 854 218 814 q 202 901 202 895 q 224 952 202 943 q 291 961 247 961 q 378 933 335 961 q 475 825 422 905 q 623 562 528 745 l 663 484 q 689 431 676 457 l 751 311 q 766 330 761 311 q 836 806 836 608 l 833 830 q 829 878 829 863 q 858 943 829 919 q 942 967 888 967 l 970 967 z "},"":{"ha":1010,"x_min":82,"x_max":1006,"o":"m 825 578 l 825 600 l 824 610 q 762 808 824 736 q 601 880 699 880 q 372 756 467 880 q 294 606 324 693 q 264 441 264 519 l 264 398 q 325 204 264 281 q 477 127 386 127 l 499 127 q 609 157 551 127 q 795 403 732 221 q 825 578 825 490 m 692 1065 l 682 1065 l 659 1068 q 542 1141 624 1068 q 460 1250 460 1213 l 460 1259 q 531 1284 460 1284 l 557 1284 q 635 1244 604 1284 q 720 1094 720 1137 l 720 1090 q 692 1065 720 1065 m 1006 610 l 1006 578 q 964 368 1006 477 q 675 49 879 145 q 484 4 581 4 l 452 4 q 301 34 372 4 q 107 245 161 94 q 82 398 82 316 l 82 429 q 125 643 82 537 q 413 958 214 863 q 604 1003 507 1003 l 636 1003 q 788 972 716 1002 q 981 761 926 914 q 1006 610 1006 690 z "},"":{"ha":1013,"x_min":82,"x_max":1008,"o":"m 826 579 l 826 612 q 764 809 826 734 q 613 884 703 884 l 591 884 q 468 847 528 884 q 362 746 408 810 q 290 595 316 682 q 264 431 264 508 l 264 409 q 326 201 264 280 q 398 143 357 161 q 477 125 439 125 l 499 125 q 613 157 554 125 q 722 256 672 190 q 799 412 772 321 q 826 579 826 503 m 818 1281 q 850 1263 850 1281 l 850 1261 l 850 1257 q 701 1116 850 1219 q 582 1067 631 1067 l 567 1067 q 545 1082 545 1067 l 545 1089 q 588 1158 545 1096 q 757 1284 676 1284 l 785 1284 q 818 1281 809 1281 m 1008 610 l 1008 594 q 967 373 1008 481 q 676 48 883 146 q 485 3 582 3 l 452 3 q 302 34 374 4 q 107 246 161 94 q 82 399 82 318 l 82 431 q 126 649 82 542 q 242 834 171 756 q 409 959 313 911 q 602 1006 503 1006 l 605 1006 q 977 777 888 1006 q 1008 610 1008 699 z "},"":{"ha":1010,"x_min":81,"x_max":1006,"o":"m 824 572 l 824 604 q 764 799 824 722 q 692 856 733 838 q 612 874 651 874 l 590 874 q 588 874 590 874 q 471 840 530 874 q 288 584 345 766 q 264 435 264 505 l 264 392 q 327 194 264 268 q 488 121 391 121 q 724 257 626 121 q 798 410 772 323 q 824 572 824 497 m 473 1061 l 462 1061 q 434 1076 434 1061 l 434 1080 q 601 1250 434 1122 q 681 1285 647 1285 q 742 1255 715 1285 q 856 1088 856 1131 l 856 1083 q 815 1061 856 1061 q 716 1111 775 1061 q 656 1160 658 1160 q 585 1111 654 1160 q 473 1061 515 1061 m 1006 604 l 1006 572 q 963 359 1006 465 q 689 50 876 143 q 484 -2 586 -2 l 452 -2 q 448 -2 450 -2 l 313 23 q 112 225 170 75 q 81 392 81 303 l 81 424 q 123 633 81 524 q 236 822 165 743 q 405 949 308 901 q 619 998 502 998 l 635 998 q 781 970 711 998 q 981 755 927 911 q 1006 604 1006 684 z "},"":{"ha":1010,"x_min":80,"x_max":1005,"o":"m 823 555 l 823 599 q 760 797 823 724 q 600 869 698 869 l 589 868 l 578 868 q 460 828 521 868 q 355 724 399 788 q 287 578 312 661 q 262 419 262 495 l 262 397 l 263 387 q 323 193 263 270 q 475 115 384 116 l 497 115 q 613 149 553 115 q 785 368 727 215 q 823 555 823 468 m 555 1240 l 579 1240 q 666 1207 619 1240 q 741 1175 713 1175 q 802 1203 769 1175 q 862 1230 834 1230 q 890 1208 890 1230 l 890 1202 q 840 1114 890 1160 q 742 1067 790 1067 l 724 1067 q 635 1100 690 1067 q 555 1133 579 1133 q 497 1104 530 1133 q 435 1076 463 1076 q 406 1097 406 1076 l 406 1103 q 458 1192 406 1145 q 555 1240 509 1240 m 1005 598 l 1005 583 q 960 349 1005 457 q 674 37 869 130 q 483 -7 580 -7 l 451 -7 q 302 22 370 -7 q 106 234 159 83 q 80 387 80 306 l 80 402 q 121 625 80 517 q 235 816 162 732 q 408 945 309 899 q 602 991 507 991 l 634 991 q 896 888 792 991 q 979 752 953 831 q 1005 598 1005 674 z "},"":{"ha":1010,"x_min":81,"x_max":1006,"o":"m 824 572 l 824 594 l 823 605 q 764 798 823 722 q 612 874 705 874 l 589 874 q 470 839 531 874 q 362 739 410 804 q 289 588 315 673 q 264 436 264 503 l 264 393 q 332 189 264 271 q 477 121 388 121 l 498 121 q 612 154 553 121 q 793 393 734 222 q 824 572 824 484 m 515 1243 l 530 1243 q 577 1225 556 1243 q 599 1174 599 1208 l 599 1165 l 598 1162 l 598 1156 q 597 1148 597 1151 q 568 1093 597 1117 q 509 1069 540 1069 l 498 1069 l 494 1070 l 489 1070 q 473 1072 484 1072 q 444 1090 462 1072 q 425 1139 425 1108 l 425 1144 l 428 1167 q 456 1220 428 1196 q 515 1243 484 1243 m 868 1179 l 868 1160 l 865 1143 q 842 1097 865 1125 q 781 1069 819 1069 l 762 1069 q 719 1085 740 1069 q 697 1122 697 1100 l 695 1136 l 695 1150 q 720 1213 695 1183 q 787 1243 745 1243 l 796 1243 q 817 1241 804 1241 q 848 1224 829 1241 q 868 1179 868 1208 m 1006 604 l 1006 572 q 964 365 1005 472 q 688 50 881 146 q 484 -2 585 -2 q 183 110 284 -2 q 81 393 81 222 l 81 424 q 124 637 81 532 q 412 953 213 858 q 604 998 507 998 l 635 998 q 897 894 793 998 q 978 762 951 840 q 1006 604 1006 685 z "},"":{"ha":728,"x_min":94,"x_max":673,"o":"m 476 399 q 551 295 476 380 q 625 194 625 209 q 593 151 625 180 q 547 122 561 122 q 454 212 532 122 q 372 302 376 302 q 272 213 368 302 q 155 123 176 123 q 121 150 147 123 q 94 197 94 176 q 193 296 94 200 q 292 400 292 391 q 217 494 292 404 q 142 596 142 584 q 176 638 142 609 q 221 668 210 668 q 312 577 236 668 q 397 487 388 487 q 496 577 399 487 q 605 667 593 667 q 645 640 618 667 q 673 602 673 614 l 673 592 q 574 495 673 587 q 476 399 476 404 z "},"":{"ha":991,"x_min":98,"x_max":993,"o":"m 270 420 l 270 387 q 292 269 270 313 q 299 260 296 260 q 456 449 317 260 q 707 800 707 789 q 676 844 707 825 q 603 863 645 863 l 595 863 q 377 742 473 863 q 301 596 332 685 q 270 420 270 507 m 809 549 l 809 598 q 788 706 809 664 q 781 713 784 713 q 572 451 766 713 q 378 173 378 188 l 378 166 q 403 133 378 153 q 465 113 427 113 l 498 113 q 613 152 553 113 q 715 253 673 191 q 784 399 758 316 q 809 549 809 483 m 650 979 l 802 964 q 848 977 816 964 q 897 989 881 989 q 959 949 959 989 l 938 846 q 965 752 938 838 q 993 597 993 666 l 993 560 q 945 340 993 450 q 824 151 898 229 q 632 22 749 72 q 462 -9 559 -9 l 426 -9 q 357 -1 394 -9 q 273 7 321 7 q 217 5 224 7 q 165 -6 188 -6 q 123 8 140 -6 q 111 38 111 20 q 127 99 111 57 q 144 168 144 140 q 133 201 144 170 q 98 366 99 299 l 98 401 q 249 821 98 666 q 430 939 325 899 q 650 979 534 979 z "},"":{"ha":960,"x_min":134,"x_max":997,"o":"m 694 1086 l 694 1076 q 665 1054 694 1054 l 661 1054 l 658 1055 q 564 1089 609 1055 q 438 1240 438 1187 l 438 1249 q 481 1272 438 1272 l 489 1273 l 523 1275 l 527 1275 q 603 1246 577 1275 q 694 1086 694 1141 m 222 950 q 334 968 248 968 q 420 923 420 968 q 402 862 420 899 q 376 794 385 824 q 356 671 368 764 q 326 475 344 578 q 308 322 308 372 q 357 173 308 217 q 486 129 406 129 q 618 176 565 129 q 697 287 672 223 q 760 569 722 351 q 798 812 798 787 q 792 863 798 836 q 786 894 786 889 q 813 961 786 946 q 901 977 840 977 l 925 977 q 968 970 956 977 q 997 913 997 953 q 968 821 997 873 q 936 753 940 769 q 890 503 931 736 q 794 180 849 269 q 654 44 739 92 q 466 -3 568 -3 l 439 -3 q 215 75 296 -3 q 134 298 134 154 q 168 575 134 338 l 171 599 q 185 694 176 643 q 193 761 193 746 q 183 805 193 776 q 173 848 173 835 q 222 950 173 914 z "},"":{"ha":962,"x_min":136,"x_max":1001,"o":"m 810 1272 q 841 1254 841 1272 l 841 1251 q 693 1105 841 1208 q 578 1056 623 1056 l 559 1056 q 538 1072 538 1056 l 538 1078 q 582 1150 538 1086 q 666 1244 627 1213 q 749 1275 705 1275 l 777 1275 q 810 1272 798 1272 m 928 979 q 1001 919 1001 979 q 972 827 1001 882 q 936 745 943 773 l 931 722 q 918 645 923 681 q 796 179 865 292 q 657 44 744 92 q 467 -3 571 -3 l 440 -3 q 436 -3 438 -3 q 316 18 376 -3 q 136 301 136 80 q 166 547 136 336 q 196 768 196 758 q 185 806 196 777 q 174 852 174 834 q 226 953 174 913 q 313 970 250 970 q 399 962 377 970 q 422 927 422 953 q 404 865 422 902 q 377 790 387 828 q 356 658 368 751 q 327 470 344 565 q 311 321 311 374 q 359 172 311 216 q 487 128 408 128 q 627 179 566 128 q 692 268 667 213 q 759 544 718 323 q 801 799 801 765 q 794 861 801 833 q 788 895 788 888 q 814 964 788 948 q 903 979 840 979 l 928 979 z "},"":{"ha":960,"x_min":134,"x_max":997,"o":"m 586 1241 q 665 1278 629 1278 q 727 1249 701 1278 q 840 1080 840 1125 l 840 1076 q 799 1053 840 1053 q 704 1102 758 1053 q 646 1152 651 1152 q 604 1125 640 1152 q 553 1090 567 1099 q 452 1052 496 1052 l 448 1053 q 420 1067 420 1053 l 420 1071 q 586 1241 420 1101 m 495 126 q 605 163 552 126 q 688 266 658 199 q 758 557 718 332 q 798 808 798 783 q 792 859 798 832 q 786 890 786 886 q 812 959 786 944 q 897 974 839 974 q 968 966 955 974 q 997 911 997 949 q 968 818 997 873 q 933 740 939 764 l 902 566 q 800 186 859 282 q 466 -6 683 -6 l 439 -6 q 435 -6 437 -6 q 315 14 374 -6 q 134 294 134 73 q 168 572 134 335 l 177 643 q 193 764 193 755 q 183 802 193 772 q 173 845 173 832 q 222 947 173 909 q 309 965 247 965 q 396 956 372 965 q 420 922 420 947 q 402 860 420 897 q 376 791 385 823 q 356 670 368 760 q 326 474 345 579 q 308 319 308 368 q 356 171 308 216 q 495 126 405 126 z "},"":{"ha":960,"x_min":140,"x_max":1004,"o":"m 593 1174 l 593 1154 q 591 1140 591 1144 q 566 1091 591 1116 q 517 1066 541 1066 l 503 1064 l 489 1064 q 441 1081 462 1064 q 420 1127 420 1099 l 420 1144 q 445 1208 420 1179 q 506 1237 469 1237 l 526 1237 q 572 1220 551 1237 q 593 1174 593 1202 m 862 1166 l 862 1160 q 838 1095 862 1124 q 787 1066 814 1066 l 773 1064 l 756 1064 q 709 1081 730 1064 q 688 1129 688 1099 l 688 1143 q 711 1205 688 1173 q 774 1237 734 1237 l 794 1237 q 843 1218 824 1237 q 862 1166 862 1199 m 932 977 q 1004 913 1004 977 q 975 823 1004 875 q 940 743 947 770 l 935 719 q 920 632 929 689 q 805 186 863 280 q 661 44 747 92 q 472 -3 575 -3 l 446 -3 q 320 17 381 -3 q 140 296 140 77 q 170 544 140 332 q 199 765 199 756 q 190 804 199 774 q 180 848 180 835 q 229 949 180 912 q 316 968 254 968 q 402 959 378 968 q 427 926 427 949 q 409 863 427 902 q 384 795 391 823 q 345 552 376 766 q 315 322 315 338 q 363 173 315 218 q 490 129 411 129 q 698 275 631 129 q 762 543 720 323 q 804 801 804 763 q 798 864 804 838 q 793 893 793 889 q 819 961 793 946 q 907 977 844 977 l 932 977 z "},"":{"ha":865,"x_min":129,"x_max":940,"o":"m 787 1256 l 787 1249 q 629 1098 787 1208 q 517 1055 568 1055 l 505 1055 q 484 1075 484 1055 l 484 1078 q 503 1116 484 1092 q 608 1240 590 1225 q 690 1278 650 1278 l 724 1278 l 736 1276 l 752 1275 q 787 1256 787 1275 m 490 568 q 510 581 497 568 q 676 805 580 648 q 701 873 692 831 q 721 930 709 916 q 853 970 755 970 l 873 970 q 940 950 940 970 q 889 869 940 918 q 728 670 838 819 q 586 465 618 520 q 517 203 517 348 q 524 145 517 174 q 530 110 530 117 q 513 51 530 71 q 425 14 481 14 l 406 14 l 387 14 q 280 25 296 14 q 264 63 264 37 q 286 124 264 90 q 329 223 308 159 q 349 374 349 288 q 315 542 349 460 q 274 637 300 579 q 229 743 248 695 q 169 845 209 791 q 129 930 129 899 q 153 953 129 941 q 248 964 178 964 q 381 913 353 964 q 391 859 389 899 q 414 757 394 819 q 490 568 476 568 z "},"":{"ha":766,"x_min":58,"x_max":802,"o":"m 325 367 l 325 357 q 385 341 325 341 l 391 342 l 397 342 q 571 400 513 342 q 630 547 630 459 l 630 559 q 589 657 630 623 q 481 691 547 691 l 452 691 q 377 664 389 691 q 370 634 372 654 q 361 576 368 613 l 355 543 q 325 367 325 380 m 196 9 q 86 16 114 9 q 58 45 58 22 q 87 128 58 84 q 124 205 117 172 q 216 814 216 648 q 205 854 216 817 q 194 901 194 890 q 222 957 194 945 q 349 968 250 968 q 448 867 448 968 q 479 828 448 844 q 599 791 510 813 q 732 729 688 770 q 802 557 802 665 q 775 427 802 488 q 465 234 699 254 q 368 222 380 227 q 307 151 307 197 l 310 120 q 278 40 310 71 q 196 9 245 9 z "},"":{"ha":808,"x_min":-5,"x_max":755,"o":"m 326 56 q 348 107 326 89 q 414 126 370 126 l 437 123 q 486 120 458 120 q 567 159 538 120 q 586 234 586 185 q 515 368 586 283 q 444 510 444 452 q 512 654 444 568 q 579 765 579 741 q 504 844 579 844 q 418 792 462 844 q 352 672 374 741 q 283 335 329 604 q 185 -41 237 66 q 126 -115 158 -96 q 50 -134 94 -134 q -5 -83 -5 -134 q 19 -28 -5 -65 q 55 35 43 9 q 85 136 68 61 q 128 446 102 212 q 181 734 154 681 q 261 846 208 787 q 348 928 315 905 q 535 989 435 989 q 699 924 635 989 q 750 784 750 872 q 687 652 750 739 q 623 524 623 566 q 670 423 623 481 q 735 324 716 365 q 755 235 755 283 q 668 55 755 124 q 471 -14 582 -14 q 326 56 326 -14 z "},"":{"ha":749,"x_min":54,"x_max":703,"o":"m 224 297 l 224 267 q 250 173 224 207 q 313 140 275 140 l 318 140 q 384 165 346 140 q 446 230 422 189 q 491 345 471 271 q 512 477 512 420 l 512 507 q 497 564 512 547 q 439 582 483 582 l 422 582 q 288 494 353 582 q 224 297 224 406 m 545 810 l 545 803 q 505 782 545 782 l 490 782 q 432 812 459 782 q 307 986 307 954 l 307 993 q 378 1023 307 1023 l 397 1023 q 469 989 446 1023 q 545 810 545 876 m 703 615 l 703 604 q 673 436 703 572 q 644 229 644 299 q 665 180 644 205 q 687 127 687 155 q 646 49 687 79 q 575 30 619 30 q 508 51 531 30 q 488 75 500 58 q 464 92 475 93 q 441 92 453 92 q 368 57 430 92 q 248 22 306 22 q 108 84 161 22 q 54 241 54 147 q 165 556 54 427 q 286 651 216 615 q 421 686 355 686 l 434 686 q 529 675 492 686 q 575 663 567 663 l 607 665 q 628 667 621 667 l 648 668 q 703 615 703 668 z "},"":{"ha":749,"x_min":56,"x_max":702,"o":"m 226 298 l 226 267 q 227 249 227 255 q 251 174 227 208 q 308 139 275 139 l 319 139 q 383 162 344 139 q 452 237 422 186 q 512 462 512 336 l 513 474 l 514 492 l 514 515 q 496 571 514 556 q 437 586 478 586 l 431 586 q 355 562 393 586 q 291 498 317 537 q 226 298 226 400 m 682 1006 l 682 1000 q 555 852 682 979 q 446 785 488 785 l 431 785 q 395 797 395 785 l 395 803 q 435 880 395 812 q 510 986 476 948 q 595 1025 544 1025 l 611 1025 l 615 1024 q 682 1006 682 1024 m 640 671 q 702 626 702 671 l 702 604 q 693 544 702 594 q 683 489 684 493 q 678 463 682 485 l 669 411 q 646 238 646 273 q 667 180 646 204 q 688 125 688 156 q 646 48 688 77 q 553 30 619 30 q 498 60 524 30 q 450 91 473 91 q 367 56 427 91 q 260 22 308 22 l 236 22 q 108 85 160 22 q 56 241 56 149 l 56 269 q 87 425 56 345 q 286 652 150 583 q 433 690 358 690 q 475 688 459 688 q 532 679 490 688 q 597 669 573 669 l 619 671 l 640 671 z "},"":{"ha":749,"x_min":56,"x_max":703,"o":"m 441 576 l 429 576 l 423 575 q 290 489 353 575 q 227 309 227 402 l 225 297 l 224 272 l 225 266 q 250 169 225 204 q 308 134 274 134 l 319 134 q 388 160 348 134 q 451 230 429 187 q 513 477 513 347 l 513 494 q 495 561 513 545 q 441 576 477 576 m 318 777 l 307 777 q 271 795 271 777 q 437 985 271 831 q 517 1026 482 1026 q 582 981 553 1026 q 676 800 676 834 q 642 777 676 777 l 631 777 q 548 835 594 777 q 492 893 503 893 q 419 835 487 893 q 318 777 352 777 m 703 608 l 703 597 q 674 431 703 585 q 645 222 645 277 q 666 173 645 197 q 688 112 688 149 q 655 50 688 76 q 575 24 623 24 q 499 55 527 24 q 460 85 471 85 q 369 51 431 85 q 248 16 307 16 l 236 16 q 108 80 161 16 q 56 236 56 144 l 56 262 q 90 423 56 345 q 276 639 156 577 q 422 680 355 680 l 448 680 l 460 678 q 521 671 488 678 l 543 664 q 576 657 566 657 l 629 660 l 639 661 l 648 662 q 703 608 703 662 z "},"":{"ha":749,"x_min":54,"x_max":720,"o":"m 512 479 l 512 491 q 497 554 512 536 q 433 572 481 572 l 427 572 q 300 500 357 572 q 225 305 225 405 l 224 293 l 223 275 l 223 269 q 247 168 223 207 q 312 130 271 130 l 318 130 l 323 130 q 384 155 342 130 q 452 231 425 180 q 512 479 512 343 m 391 956 l 410 956 q 497 923 447 956 q 573 891 547 891 q 634 917 600 891 q 694 943 668 943 q 720 924 720 943 l 720 918 q 670 830 720 879 q 567 781 621 781 l 549 781 q 464 813 514 781 q 385 846 413 846 q 326 819 357 846 q 267 791 294 791 q 239 811 239 791 l 239 817 q 291 908 239 860 q 391 956 343 956 m 702 605 l 702 594 q 673 427 702 581 q 644 218 644 273 q 665 169 644 193 q 686 117 686 144 q 645 39 686 70 q 552 20 619 20 q 497 52 524 20 q 467 83 470 83 q 441 81 452 81 q 369 47 430 81 q 259 12 307 12 l 235 12 q 106 76 159 12 q 54 233 54 140 l 54 259 q 83 405 54 326 q 164 545 111 484 q 287 641 217 606 q 421 676 357 676 l 434 676 q 507 669 473 676 l 585 654 l 606 656 q 627 656 613 656 l 647 658 q 702 605 702 658 z "},"":{"ha":749,"x_min":60,"x_max":711,"o":"m 446 578 l 428 578 q 360 556 398 578 q 295 492 323 534 q 229 281 229 393 l 229 275 l 230 269 q 254 172 230 207 q 313 136 279 136 l 324 136 q 387 160 349 137 q 498 343 467 208 q 518 480 518 430 l 518 498 q 503 561 518 543 q 446 578 488 578 m 273 876 l 275 890 q 303 948 275 924 q 368 971 331 971 l 370 971 q 425 952 406 971 q 444 914 444 933 l 446 897 l 446 892 q 421 824 446 853 q 359 794 396 794 l 339 794 q 323 795 334 795 q 293 812 313 795 q 273 865 273 829 l 273 873 l 273 876 m 711 885 q 709 863 709 875 q 687 823 709 850 q 639 796 664 796 q 631 795 633 795 l 616 793 l 613 793 q 561 811 582 793 q 541 851 541 828 l 539 857 l 539 880 q 564 941 539 911 q 626 970 589 970 l 643 970 q 689 954 669 970 q 709 916 709 937 l 711 902 l 711 885 m 708 611 l 708 600 q 679 435 708 593 q 650 238 650 277 q 671 176 650 200 q 692 115 692 151 q 660 53 692 79 q 582 26 628 26 q 513 47 536 26 q 494 72 506 54 q 470 89 481 90 q 445 88 458 88 q 374 53 433 88 q 253 18 315 18 q 113 82 165 18 q 60 239 60 146 l 60 265 q 92 420 60 339 q 180 563 123 502 q 439 683 292 683 l 440 683 q 534 671 492 683 q 581 660 575 660 l 644 664 l 653 665 q 708 611 708 665 z "},"":{"ha":749,"x_min":56,"x_max":704,"o":"m 451 954 q 442 942 451 954 q 433 903 433 930 q 448 859 433 875 q 479 844 464 844 l 494 844 q 536 865 515 844 q 557 913 557 886 l 557 928 q 544 963 557 945 q 509 980 530 980 l 498 980 l 484 977 q 451 954 470 977 m 225 304 l 225 268 q 248 179 225 217 q 308 142 271 142 l 319 142 q 385 167 346 142 q 493 349 463 216 q 513 486 513 435 l 513 509 q 498 566 513 548 q 441 584 484 584 l 429 584 l 423 583 q 359 563 397 583 q 290 496 321 543 q 225 304 225 399 m 482 768 l 473 768 q 381 806 415 768 q 347 892 347 844 l 347 897 q 399 1012 347 968 q 508 1055 452 1055 l 517 1055 q 607 1019 571 1055 q 644 936 644 983 l 644 922 q 593 814 644 860 q 482 768 542 768 m 649 670 q 704 608 704 670 q 674 438 704 575 q 645 231 645 301 q 667 181 645 205 q 688 120 688 156 q 656 58 688 84 q 575 32 624 32 q 499 63 527 32 q 461 94 471 94 q 370 59 431 94 q 248 24 308 24 l 236 24 q 234 24 235 24 q 163 43 201 24 q 56 258 56 99 l 56 271 q 83 414 56 338 q 162 552 111 491 q 284 651 213 614 q 422 688 355 688 l 448 688 l 460 686 q 531 676 496 686 q 576 665 566 665 q 629 668 617 668 l 649 670 z "},"":{"ha":1082,"x_min":75,"x_max":1109,"o":"m 252 285 l 252 271 q 277 173 252 212 q 341 134 302 134 l 353 134 q 418 159 374 134 q 477 213 462 184 q 511 321 493 242 q 532 414 529 400 q 537 435 535 428 q 543 461 539 443 q 556 509 547 479 q 564 548 564 540 q 537 573 564 555 q 474 591 510 591 l 456 591 q 321 505 384 591 q 270 395 288 460 q 252 285 252 331 m 708 406 q 726 391 708 391 l 730 391 l 745 393 q 902 437 804 393 q 952 496 952 459 l 952 522 q 933 574 952 551 q 884 596 913 596 l 867 596 q 761 534 815 596 q 707 420 707 473 l 707 414 q 708 406 708 409 m 695 664 q 702 660 695 664 q 716 655 709 655 q 788 675 723 655 q 895 696 852 696 l 914 696 q 1059 643 1009 696 q 1109 512 1109 591 q 1049 395 1109 433 q 777 309 956 334 q 718 300 720 300 q 694 240 694 290 q 743 156 694 190 q 823 134 774 134 q 927 150 873 134 q 994 166 981 166 q 1030 130 1030 166 q 937 45 1030 87 q 758 3 844 3 l 737 3 q 570 81 640 3 q 532 121 534 121 q 474 87 530 121 l 415 50 q 279 5 339 5 q 126 73 178 5 q 75 237 75 141 l 75 256 q 109 418 76 336 q 328 658 176 587 q 492 694 406 694 l 583 687 l 601 688 l 620 689 q 667 681 652 689 q 695 664 682 673 z "},"":{"ha":624,"x_min":58,"x_max":637,"o":"m 58 235 l 58 266 q 87 415 58 334 q 175 562 116 496 q 444 688 290 688 q 577 659 517 688 q 637 593 637 630 q 618 531 637 556 q 570 507 599 507 q 521 538 570 507 q 431 570 472 570 q 283 479 341 570 q 224 263 224 389 q 256 154 224 195 q 343 113 288 113 q 463 138 399 113 l 489 148 q 536 159 521 159 q 557 118 557 159 q 494 38 557 77 q 331 -16 408 -16 l 300 -16 q 125 56 197 -16 q 76 137 94 87 q 58 235 58 187 m 193 -290 q 146 -256 146 -290 l 147 -253 q 182 -230 147 -230 q 237 -210 216 -230 q 257 -169 257 -189 q 239 -133 257 -148 q 221 -113 221 -117 q 246 -51 221 -79 q 296 -24 271 -24 l 302 -24 q 330 -56 330 -24 q 355 -87 330 -62 q 380 -135 380 -112 l 380 -154 q 333 -245 380 -199 q 229 -292 287 -292 l 208 -292 q 193 -290 199 -290 z "},"":{"ha":646,"x_min":60,"x_max":645,"o":"m 400 585 q 302 523 356 585 q 248 408 248 461 l 247 402 q 264 389 247 389 l 277 389 q 439 438 351 389 q 496 508 496 469 l 496 515 q 475 566 496 545 q 429 587 454 587 l 410 587 q 400 585 404 585 m 513 810 l 513 804 q 469 783 513 783 l 466 782 q 395 819 424 782 q 275 986 275 973 l 275 993 q 339 1023 275 1023 l 374 1023 q 435 993 416 1023 q 513 810 513 876 m 535 183 q 568 141 568 183 q 486 56 568 98 q 332 14 404 14 q 210 30 261 14 q 122 88 159 47 q 60 275 60 158 q 91 438 60 358 q 291 661 152 594 q 422 692 359 692 l 436 692 q 587 645 529 692 q 645 515 645 597 q 589 393 645 433 q 353 309 513 338 q 263 285 288 297 q 239 233 239 273 q 272 166 239 193 q 355 140 305 140 q 461 161 406 140 q 535 183 517 183 z "},"":{"ha":647,"x_min":56,"x_max":652,"o":"m 395 589 q 298 525 353 589 q 242 404 242 462 l 242 401 q 260 389 242 389 l 267 389 l 270 389 q 436 441 353 389 q 492 515 492 476 l 492 519 q 471 570 492 549 q 420 591 450 591 l 412 591 q 395 589 402 589 m 652 1007 l 652 1000 q 509 838 652 967 q 412 785 449 785 l 404 785 q 379 787 394 787 q 364 798 364 787 l 364 804 q 398 871 364 809 q 481 988 432 932 q 560 1025 513 1025 l 589 1025 l 622 1022 q 652 1007 652 1022 m 327 14 l 298 14 q 127 79 195 14 q 76 158 96 109 q 56 260 56 208 l 56 289 q 87 441 56 361 q 286 663 149 597 q 418 695 353 695 l 446 695 q 585 646 528 695 q 642 517 642 597 q 585 397 642 437 q 349 310 499 337 q 261 287 286 298 q 236 234 236 275 q 269 165 236 193 q 350 138 302 138 q 458 160 397 138 q 534 182 519 182 q 568 141 568 182 q 484 56 568 99 q 327 14 401 14 z "},"":{"ha":646,"x_min":60,"x_max":644,"o":"m 247 393 q 267 382 247 382 l 270 382 l 273 382 l 288 384 q 439 432 352 384 q 495 502 495 463 l 495 509 q 494 526 494 515 q 475 558 494 536 q 424 581 456 581 l 413 581 q 396 578 403 578 q 301 517 355 578 q 248 412 248 456 l 247 405 l 247 393 m 397 981 q 481 1026 446 1026 q 545 981 516 1026 q 640 800 640 834 q 602 777 640 777 q 511 835 565 777 q 455 893 458 893 q 416 863 452 893 q 374 827 380 833 q 272 777 309 777 q 235 795 235 777 q 397 981 235 831 m 330 7 l 300 7 q 199 28 245 7 q 60 254 60 91 l 60 282 q 90 431 60 354 q 290 654 153 588 q 442 686 356 686 q 586 638 528 686 q 644 509 644 591 q 588 386 644 427 q 353 302 513 332 q 264 279 290 291 q 239 227 239 267 q 272 160 239 187 q 356 134 304 134 q 460 155 408 134 q 534 176 511 176 q 568 135 568 176 q 488 51 568 94 q 330 7 408 7 z "},"":{"ha":648,"x_min":64,"x_max":674,"o":"m 405 582 q 307 520 361 582 q 252 405 252 458 l 252 399 q 269 385 252 385 l 282 385 q 444 435 355 385 q 500 505 500 466 l 500 511 q 479 562 500 541 q 433 583 458 583 l 415 583 q 405 582 408 582 m 410 903 l 410 889 l 409 886 l 409 880 q 408 872 408 875 q 385 824 408 851 q 338 797 362 797 l 319 794 l 307 794 q 288 796 297 796 q 259 812 278 796 q 240 848 240 828 l 238 862 l 238 879 q 240 893 240 887 q 268 948 240 925 q 326 971 296 971 l 340 971 q 390 952 371 971 q 410 903 410 932 m 674 903 l 674 886 q 672 871 672 876 q 643 815 672 836 q 589 794 614 794 l 568 794 q 525 811 545 794 q 505 848 505 827 l 503 861 l 503 879 q 505 893 505 887 q 532 948 505 924 q 593 971 560 971 l 602 971 l 605 970 l 610 970 l 622 968 q 654 952 635 968 q 674 903 674 935 m 540 180 q 573 137 573 180 q 491 53 573 95 q 337 10 408 10 q 215 27 266 10 q 127 85 164 43 q 64 271 64 155 q 96 435 65 355 q 296 657 157 591 q 427 689 363 689 l 441 689 q 592 641 534 689 q 650 511 650 593 q 594 389 650 429 q 358 305 518 334 q 268 282 292 294 q 243 227 243 270 q 280 160 243 184 q 363 136 317 136 q 466 158 410 136 q 540 180 522 180 z "},"":{"ha":382,"x_min":71,"x_max":333,"o":"m 333 797 l 333 787 q 290 769 333 769 l 282 769 q 213 807 247 769 q 96 972 96 939 l 96 982 q 138 1004 96 1004 l 142 1005 l 146 1006 l 173 1007 l 195 1007 q 259 977 242 1007 q 333 797 333 844 m 250 669 l 286 669 q 325 633 325 669 l 324 624 l 324 615 q 295 422 324 586 q 266 230 266 259 q 283 169 266 201 q 301 95 301 136 q 263 29 301 54 q 127 5 226 5 l 118 5 q 71 62 71 5 l 71 79 q 101 257 71 94 q 131 456 131 420 q 120 539 131 493 q 109 591 109 586 q 140 650 109 632 q 250 669 170 669 z "},"":{"ha":386,"x_min":81,"x_max":488,"o":"m 395 1010 l 407 1010 l 411 1009 l 448 1007 q 456 1006 452 1006 q 488 992 488 1006 l 488 989 q 391 869 488 966 q 251 772 294 772 l 239 772 q 213 774 227 774 q 198 787 198 774 q 319 977 198 822 q 395 1010 344 1010 m 148 5 l 129 5 q 93 21 104 5 q 81 72 81 37 l 82 81 q 112 256 82 91 q 141 467 141 421 q 131 544 141 512 q 120 587 120 576 q 150 653 120 633 q 280 673 180 673 l 289 672 q 336 635 336 672 l 336 627 l 335 618 q 307 423 335 577 q 278 235 278 269 q 295 168 278 201 q 312 94 312 134 q 275 30 312 55 q 148 5 239 5 z "},"":{"ha":393,"x_min":69,"x_max":472,"o":"m 116 769 l 105 769 q 69 787 69 769 q 231 975 69 813 q 309 1017 273 1017 l 314 1017 q 369 987 349 1017 q 472 791 472 838 q 420 770 472 770 q 341 827 386 770 q 290 884 296 884 q 254 857 283 884 q 116 769 159 769 m 331 639 l 331 613 q 302 422 331 578 q 273 232 273 267 q 291 165 273 197 q 308 105 308 133 q 271 28 308 52 q 144 3 233 3 l 116 3 q 77 60 77 3 l 77 69 l 77 77 q 107 255 77 94 q 137 460 137 416 q 126 538 137 503 q 115 581 115 573 q 147 649 115 631 q 257 667 178 667 l 292 667 q 331 639 331 667 z "},"":{"ha":397,"x_min":66,"x_max":500,"o":"m 240 888 l 240 880 q 215 813 240 844 q 155 783 189 783 l 136 783 q 89 801 111 783 q 66 849 66 820 l 66 869 q 68 884 68 878 q 95 935 68 908 q 153 961 121 961 l 171 961 q 219 940 199 961 q 240 888 240 920 m 412 782 l 400 782 q 349 801 372 782 q 327 850 327 819 l 327 871 q 352 930 327 900 q 415 961 378 961 l 427 961 q 477 943 455 961 q 498 901 498 924 l 500 884 l 500 881 l 498 858 q 474 811 498 840 q 412 782 450 782 m 258 669 l 294 669 q 333 633 333 669 l 332 625 l 332 615 q 303 423 332 587 q 274 231 274 260 q 292 169 274 201 q 309 96 309 136 q 145 5 309 5 l 127 5 q 79 62 79 5 l 79 80 q 109 257 79 94 q 139 457 139 420 q 128 540 139 494 q 117 591 117 587 q 149 651 117 632 q 258 669 180 669 z "},"":{"ha":711,"x_min":56,"x_max":690,"o":"m 221 283 l 221 254 q 250 150 221 194 q 321 105 278 105 l 339 105 q 462 191 405 105 q 519 393 519 277 l 519 405 q 490 508 519 473 q 414 543 460 543 l 401 543 q 281 470 330 543 q 221 283 221 379 m 56 258 l 56 277 q 92 427 56 351 q 290 618 163 573 q 441 638 343 638 q 494 686 494 638 q 469 736 494 718 q 406 754 444 754 q 376 749 403 754 q 324 744 349 744 q 292 781 292 744 q 320 826 292 805 q 368 871 368 863 q 333 909 368 880 q 297 955 297 939 q 319 989 297 972 q 363 1006 342 1006 q 446 977 385 1006 q 525 949 507 949 q 572 961 543 949 q 627 972 602 972 q 665 936 665 972 q 632 885 665 918 q 600 833 600 852 q 626 747 600 814 q 660 655 652 680 q 690 456 690 551 l 690 421 q 575 106 690 234 q 461 24 528 54 q 332 -6 395 -6 l 313 -6 q 129 65 202 -6 q 56 258 56 136 z "},"":{"ha":768,"x_min":71,"x_max":727,"o":"m 405 945 l 417 945 q 504 913 454 945 q 580 881 553 881 q 642 907 606 881 q 703 932 678 932 q 727 913 727 932 l 727 907 q 676 818 727 865 q 575 770 625 770 l 557 770 q 471 803 523 770 q 393 836 419 836 q 333 808 366 836 q 274 781 300 781 q 247 801 247 781 l 247 806 q 297 896 247 846 q 405 945 347 945 m 128 440 l 117 528 q 151 621 117 583 q 223 659 184 659 q 282 645 262 659 q 311 598 302 631 q 327 565 319 565 q 374 595 335 565 q 557 663 462 663 q 665 621 625 663 q 705 505 705 579 l 705 486 q 688 350 705 454 q 671 210 671 246 q 680 134 671 174 q 688 92 688 93 q 665 43 688 56 q 552 17 620 17 q 508 51 525 17 q 492 132 492 84 q 511 285 492 180 q 530 437 530 389 q 457 534 530 534 q 391 509 429 534 q 323 434 353 484 q 270 244 294 385 q 237 77 247 104 q 201 32 228 50 q 141 13 174 13 q 89 34 108 13 q 71 73 71 55 l 71 90 q 88 178 71 115 q 128 436 128 320 q 128 440 128 438 z "},"":{"ha":711,"x_min":56,"x_max":702,"o":"m 226 300 l 226 281 q 256 167 226 213 q 337 121 286 121 l 343 121 q 467 202 408 121 q 527 393 527 283 l 527 425 q 498 540 527 496 q 425 585 469 585 l 406 585 q 283 498 341 585 q 226 300 226 411 m 349 1021 l 383 1021 q 450 983 429 1021 q 522 808 522 854 l 522 804 q 485 785 522 785 l 470 785 q 390 835 434 785 q 284 990 284 956 l 284 997 q 349 1021 284 1021 m 335 9 l 301 9 q 130 79 200 9 q 76 165 96 113 q 56 269 56 217 l 56 291 q 85 440 56 363 q 166 574 115 517 q 287 663 218 631 q 414 694 355 694 l 446 694 q 625 621 551 694 q 682 535 663 583 q 702 448 702 487 l 702 427 l 701 416 q 668 267 701 344 q 476 47 602 113 q 335 9 403 9 z "},"":{"ha":713,"x_min":55,"x_max":702,"o":"m 225 300 l 225 281 q 255 166 225 212 q 336 119 285 119 l 342 119 q 469 205 412 119 q 526 395 526 292 l 526 427 q 497 543 526 498 q 424 588 469 588 l 405 588 q 283 501 341 588 q 225 300 225 414 m 659 1006 l 659 1000 q 512 836 659 967 q 422 787 457 787 l 406 787 q 370 799 370 787 l 370 806 q 403 870 370 810 q 492 995 436 931 q 568 1023 517 1023 l 596 1023 l 600 1023 l 616 1022 l 641 1019 q 659 1006 659 1019 m 334 8 l 300 8 q 205 28 252 8 q 75 165 108 70 q 55 270 55 222 l 55 302 q 55 305 55 304 q 55 308 55 307 q 55 311 55 309 q 90 457 55 381 q 300 672 161 614 q 424 698 362 698 l 446 698 q 625 623 546 698 q 682 538 661 589 q 702 450 702 488 l 702 417 q 669 270 702 349 q 466 41 602 104 q 334 8 394 8 z "},"":{"ha":711,"x_min":56,"x_max":702,"o":"m 331 115 l 349 115 q 412 139 376 115 q 473 205 448 163 q 527 394 527 295 l 527 413 q 499 533 527 486 q 424 579 471 579 l 412 579 q 286 497 347 579 q 226 300 226 414 l 226 269 q 227 250 227 255 q 259 156 227 197 q 331 115 290 115 m 294 780 l 283 780 q 245 798 245 780 q 412 987 245 834 q 489 1025 454 1025 q 547 996 524 1025 q 652 802 652 859 q 616 780 652 780 l 600 780 q 521 837 570 780 q 468 895 472 895 q 395 837 463 895 q 294 780 328 780 m 424 689 l 446 689 q 632 608 551 689 q 683 527 664 576 q 702 431 702 479 l 702 420 q 673 273 702 350 q 466 36 608 104 q 323 3 397 3 l 312 3 q 77 153 142 3 q 56 260 56 202 q 56 263 56 262 l 56 296 q 85 435 56 359 q 291 659 144 591 q 424 689 355 689 z "},"":{"ha":711,"x_min":55,"x_max":701,"o":"m 330 111 l 342 111 q 466 192 406 111 q 526 383 526 273 l 526 415 q 497 530 526 486 q 423 574 468 574 l 404 574 q 282 488 340 574 q 224 290 224 401 l 224 270 q 256 154 224 198 q 330 111 287 111 m 368 958 l 385 958 q 470 925 420 958 q 545 893 520 893 q 602 919 570 893 q 661 945 633 945 q 689 926 689 945 q 638 832 689 879 q 545 785 587 785 l 521 785 q 437 818 490 785 q 360 850 385 850 q 306 823 335 850 q 247 796 276 796 q 217 815 217 796 q 269 910 217 863 q 368 958 320 958 m 334 -1 l 300 -1 q 200 20 246 -1 q 122 76 153 42 q 55 259 55 150 l 55 281 q 84 430 55 353 q 166 564 113 506 q 286 653 218 622 q 423 684 353 684 l 445 684 q 624 610 550 684 q 681 525 661 573 q 701 437 701 476 l 701 416 l 700 406 q 666 254 700 334 q 456 27 597 93 q 334 -1 395 -1 z "},"":{"ha":711,"x_min":59,"x_max":705,"o":"m 334 117 l 353 117 q 472 201 416 117 q 528 370 528 285 l 530 382 l 530 427 q 501 536 530 492 q 427 581 472 581 l 414 581 q 289 498 350 581 q 229 289 229 415 l 229 282 l 229 276 q 259 162 229 208 q 334 117 288 117 m 414 904 l 414 890 q 390 826 414 856 q 328 796 365 796 l 311 796 l 294 799 q 262 815 281 799 q 242 864 242 832 l 242 878 q 267 942 242 912 q 328 972 292 972 l 346 972 q 366 970 354 970 q 396 951 377 970 q 414 904 414 932 m 681 890 q 654 823 681 850 q 595 796 627 796 l 575 796 q 528 815 547 796 q 509 863 509 835 l 509 878 q 533 942 509 912 q 597 972 558 972 l 611 972 q 659 955 638 972 q 679 916 679 938 l 681 899 l 681 890 m 705 444 l 705 411 q 705 408 705 410 q 705 406 705 407 q 705 403 705 404 q 674 269 705 348 q 589 129 643 187 q 327 4 475 4 l 315 4 q 128 80 197 4 q 59 276 59 156 q 175 576 59 449 q 292 660 224 629 q 427 690 360 690 l 449 690 q 632 613 559 690 q 705 444 705 536 z "},"":{"ha":734,"x_min":73,"x_max":693,"o":"m 413 573 l 393 573 q 341 594 359 573 q 323 646 323 615 l 323 652 l 326 675 q 354 729 326 709 q 410 749 382 749 l 431 749 l 448 746 q 479 730 460 746 q 498 690 498 714 q 500 682 500 685 l 500 670 l 498 647 q 470 593 498 613 q 413 573 442 573 m 119 479 l 667 479 q 693 462 693 479 l 693 448 q 680 380 693 408 q 646 364 672 364 l 100 364 q 73 389 73 364 q 87 464 73 433 q 119 479 94 479 m 443 205 l 443 184 q 419 122 443 151 q 355 94 396 94 l 337 94 q 317 96 327 96 q 287 113 307 96 q 267 162 267 130 l 267 177 q 289 241 267 214 q 343 269 312 269 l 361 271 l 367 271 q 421 253 400 271 q 443 205 443 235 z "},"":{"ha":692,"x_min":56,"x_max":680,"o":"m 222 272 q 231 227 222 227 q 346 373 240 227 q 452 533 452 519 q 410 564 452 564 l 393 564 q 282 492 328 564 q 225 332 225 402 l 223 317 l 222 299 l 222 272 m 283 142 l 283 135 q 332 104 283 104 l 336 104 q 450 171 401 104 q 513 363 513 258 l 513 400 q 505 444 513 444 l 503 444 q 390 298 496 444 q 283 142 283 151 m 62 3 l 83 98 q 70 162 83 109 q 56 246 56 216 l 56 285 q 90 437 56 360 q 458 673 194 673 l 514 669 q 582 682 549 669 q 626 696 616 696 l 634 696 q 669 661 669 696 q 659 621 669 657 q 650 569 650 584 l 652 559 l 659 538 l 667 505 q 680 418 680 456 l 680 406 l 680 393 q 650 243 680 320 q 567 111 621 167 q 287 -6 455 -6 l 241 -4 l 230 -3 l 219 -2 l 199 -3 q 144 -15 176 -3 l 127 -22 q 99 -27 112 -27 q 62 3 62 -27 z "},"":{"ha":765,"x_min":93,"x_max":718,"o":"m 533 794 l 533 787 q 489 766 533 766 l 482 766 q 426 791 448 766 q 295 970 295 938 l 295 977 q 363 1006 295 1006 l 394 1006 q 457 973 435 1006 q 533 794 533 859 m 245 654 q 308 548 308 654 q 287 385 308 509 q 267 224 267 261 q 285 161 267 186 q 332 136 303 136 q 391 155 361 136 q 479 252 439 184 q 532 496 518 321 q 549 587 536 555 q 585 638 561 618 q 642 657 610 657 q 696 637 674 657 q 718 598 718 618 q 707 515 718 578 l 690 423 q 673 271 673 321 q 675 210 673 221 q 685 178 678 199 q 692 143 692 157 q 646 44 692 94 q 576 16 619 16 q 515 30 532 16 q 490 78 498 44 q 472 112 481 112 q 435 89 463 112 q 381 52 407 66 q 243 13 307 13 q 136 56 178 13 q 93 177 93 98 q 114 341 93 213 q 136 484 136 469 q 129 531 136 499 l 122 555 q 118 581 118 569 q 137 630 118 616 q 245 654 171 654 z "},"":{"ha":768,"x_min":94,"x_max":720,"o":"m 420 769 q 383 784 383 769 q 404 831 383 799 q 505 978 477 947 q 592 1009 532 1009 l 596 1008 l 604 1008 q 671 987 671 1008 l 671 984 q 604 892 671 959 q 439 770 482 770 l 431 768 l 428 768 l 424 769 l 420 769 m 586 638 q 600 649 586 638 q 644 660 614 660 q 696 642 673 660 q 720 599 720 624 q 698 456 720 574 q 676 294 676 342 l 677 232 q 686 192 677 220 q 694 142 694 163 q 647 44 694 95 q 577 15 620 15 q 516 31 534 15 q 492 80 498 47 q 473 114 486 114 q 435 89 467 114 q 259 13 340 13 q 136 55 178 13 q 94 178 94 97 q 116 340 94 224 q 137 482 137 455 q 127 542 137 509 q 118 600 118 574 q 149 639 118 625 q 237 657 193 657 q 295 631 281 657 q 309 549 309 605 q 289 385 309 493 q 269 232 269 277 q 342 136 269 136 q 400 159 362 136 q 533 493 511 227 q 548 586 538 555 q 586 638 558 616 z "},"":{"ha":765,"x_min":93,"x_max":718,"o":"m 422 970 q 506 1015 471 1015 q 570 970 541 1015 q 665 789 665 823 q 627 766 665 766 q 536 824 590 766 q 480 882 483 882 q 441 852 477 882 q 399 817 406 822 q 297 766 334 766 q 260 785 260 766 q 422 970 260 820 m 718 593 q 694 448 718 570 q 673 288 673 332 q 673 285 673 286 l 673 225 q 683 182 673 211 q 692 140 692 153 q 645 41 692 94 q 576 14 620 14 q 515 27 532 14 q 490 75 498 41 q 472 109 481 109 q 434 85 464 109 q 237 10 339 10 q 131 58 168 10 q 93 174 93 106 q 114 338 93 210 q 136 486 136 467 q 127 535 136 505 q 118 578 118 566 q 137 627 118 614 q 245 651 170 651 q 293 625 279 651 q 307 546 307 599 q 287 382 307 492 q 267 228 267 273 q 340 134 267 134 q 342 134 341 134 q 400 157 362 134 q 478 250 438 180 q 532 493 517 319 q 545 575 537 555 q 643 654 575 654 q 696 635 675 654 q 718 593 718 616 z "},"":{"ha":765,"x_min":98,"x_max":723,"o":"m 428 899 l 428 878 q 396 808 428 846 q 336 786 378 786 l 331 786 q 277 804 298 786 q 256 851 256 821 l 256 871 l 258 888 q 281 934 258 907 q 330 961 304 961 l 344 963 l 361 963 q 407 945 385 963 q 428 899 428 927 m 694 881 q 670 816 694 846 q 606 786 645 786 l 591 786 q 543 804 564 786 q 522 853 522 822 l 522 865 q 546 933 522 903 q 610 963 571 963 l 625 963 q 672 946 652 963 q 692 907 692 929 l 694 890 l 694 881 m 142 634 q 230 658 176 658 q 301 627 284 658 q 313 551 313 606 q 292 389 313 496 q 272 235 272 281 q 347 140 272 140 q 349 140 348 140 q 406 163 369 140 q 528 414 494 216 q 536 494 529 423 q 554 593 544 565 q 590 641 564 621 q 648 661 616 661 q 702 642 680 661 q 723 600 723 623 q 701 456 723 576 q 678 274 678 335 q 688 187 678 212 q 697 146 697 162 q 650 48 697 96 q 580 20 623 20 q 520 34 538 20 q 495 82 503 49 q 476 116 487 116 q 440 93 469 116 q 252 16 290 16 q 246 16 249 16 q 140 59 182 16 q 98 181 98 102 l 98 198 q 120 342 98 224 q 141 486 141 460 q 132 543 141 513 q 123 597 123 572 q 142 634 123 621 z "},"":{"ha":715,"x_min":44,"x_max":721,"o":"m 376 783 l 376 789 q 493 973 376 823 q 573 1010 522 1010 l 602 1010 l 634 1007 q 665 989 665 1007 l 665 985 q 592 888 665 961 q 432 772 476 772 l 425 770 l 417 770 l 413 771 l 398 772 q 376 783 376 772 m 283 44 q 232 168 283 64 q 160 352 180 272 q 112 502 141 432 q 82 589 82 572 q 104 621 82 606 q 219 663 163 663 q 294 615 275 663 q 329 408 299 604 q 370 212 359 212 q 399 228 382 212 q 481 356 444 271 q 533 527 518 442 q 551 616 549 612 q 599 656 566 642 q 674 671 632 671 q 721 621 721 671 q 663 458 721 581 q 410 -40 472 52 q 264 -204 348 -132 q 118 -277 180 -277 q 64 -260 83 -277 q 44 -231 44 -244 q 109 -176 44 -200 q 216 -108 174 -152 q 283 44 283 -35 z "},"":{"ha":736,"x_min":-22,"x_max":705,"o":"m 336 101 l 353 101 q 416 122 381 101 q 480 186 451 143 q 538 381 538 274 l 538 406 q 514 501 538 462 q 450 541 490 541 l 439 541 q 372 517 412 541 q 308 446 333 493 q 249 197 249 336 l 249 174 q 336 101 249 101 m 705 418 l 705 397 q 675 248 705 328 q 588 105 646 168 q 472 21 530 43 q 326 -1 414 -1 q 219 -22 237 -1 q 200 -91 200 -43 l 201 -124 q 202 -176 202 -141 q 164 -275 202 -240 q 37 -309 127 -309 l 18 -309 q -22 -278 -22 -309 l -22 -261 q 2 -182 -22 -246 q 51 35 25 -118 q 94 278 77 188 q 185 837 185 758 l 184 854 q 174 936 174 895 q 199 988 174 976 q 278 1001 224 1001 q 351 980 333 1001 q 370 929 370 960 q 347 789 370 898 q 324 647 324 681 q 339 612 324 612 q 404 631 347 612 q 506 650 461 650 q 651 584 597 650 q 705 418 705 517 z "},"":{"ha":714,"x_min":40,"x_max":720,"o":"m 408 886 l 406 863 q 382 814 406 843 q 324 786 358 786 l 301 786 q 293 787 296 787 q 254 806 273 787 q 236 851 236 824 l 236 868 q 258 929 236 899 q 309 960 280 960 q 317 962 314 962 l 328 963 l 336 963 q 386 946 365 963 q 406 905 406 928 q 408 897 408 900 l 408 886 m 673 895 l 673 878 q 671 863 671 869 q 643 808 671 831 q 585 785 615 785 l 570 785 q 522 802 542 785 q 503 842 503 819 q 501 850 501 847 l 500 861 l 501 865 l 501 867 q 523 930 501 899 q 578 961 545 961 q 587 962 583 962 l 598 963 l 601 962 q 652 945 631 962 q 673 895 673 927 m 280 44 q 238 148 280 62 q 180 285 196 234 q 152 384 163 336 q 111 501 140 432 q 82 573 82 570 q 106 623 82 608 q 220 663 165 663 q 293 611 275 663 q 328 406 298 598 q 370 214 357 214 q 399 232 382 214 q 530 522 487 319 q 554 620 549 612 q 661 671 584 671 l 680 671 q 720 634 720 671 q 685 507 720 583 q 429 -4 509 116 q 265 -199 350 -125 q 113 -273 180 -273 q 59 -257 78 -273 q 40 -227 40 -241 q 102 -173 40 -193 q 212 -102 164 -152 q 280 44 280 -31 z "},"":{"ha":391,"x_min":68,"x_max":334,"o":"m 309 100 q 132 -5 309 -5 l 122 -5 q 68 59 68 -5 l 68 68 l 68 77 q 98 272 68 133 q 128 465 128 412 l 127 492 q 115 537 127 503 q 104 587 104 572 q 255 675 104 675 l 291 675 q 334 631 334 675 q 301 425 334 605 q 269 214 269 244 q 289 161 269 183 q 309 100 309 139 z "},"":{"ha":755,"x_min":62,"x_max":732,"o":"m 178 -3 q 62 47 62 -3 q 86 102 62 70 q 115 141 111 134 q 142 278 142 201 q 100 312 142 312 q 74 342 74 312 q 118 454 74 389 q 171 547 162 520 q 218 766 218 687 q 206 805 218 787 q 193 844 193 823 q 241 914 193 890 q 351 932 276 932 l 371 932 q 424 924 410 932 q 438 886 438 917 q 432 861 438 880 l 416 815 q 395 709 395 743 l 396 677 l 395 642 q 415 623 395 623 q 472 637 435 623 q 526 650 509 650 q 565 628 565 650 q 538 567 565 596 q 456 507 534 563 q 355 409 378 451 q 311 184 311 326 q 335 119 311 133 q 439 106 358 106 q 576 130 520 106 q 699 173 677 173 q 732 138 732 173 q 701 23 732 68 q 606 -23 671 -23 l 585 -23 l 393 -12 q 178 -3 184 -3 z "},"":{"ha":474,"x_min":79,"x_max":480,"o":"m 79 380 q 117 460 79 427 q 195 557 176 513 q 233 697 214 600 q 252 812 252 794 q 235 855 252 829 q 218 892 218 881 q 254 952 218 937 q 346 968 290 968 l 374 968 q 412 954 401 968 q 423 921 423 939 q 412 845 423 903 l 403 798 l 400 782 q 383 667 383 686 q 410 621 383 621 q 431 627 414 621 q 464 633 448 633 q 480 613 480 633 l 480 603 q 427 517 480 560 q 357 439 374 473 q 310 259 310 336 q 341 142 310 182 q 349 116 349 132 q 310 35 349 59 q 183 -2 252 -2 l 153 -2 q 102 73 102 -2 q 131 190 102 108 q 159 310 159 272 q 119 347 159 347 q 79 380 79 347 z "},"":{"ha":987,"x_min":62,"x_max":1028,"o":"m 803 1303 q 876 1275 876 1303 q 762 1164 876 1247 q 618 1080 647 1080 l 589 1076 l 585 1076 l 582 1075 l 570 1074 q 547 1097 547 1074 q 605 1176 547 1104 q 694 1277 663 1249 q 764 1305 726 1305 l 781 1305 q 803 1303 795 1303 m 955 999 l 982 999 q 1021 978 1006 999 l 1028 958 q 1000 886 1028 932 q 965 810 972 840 q 928 613 958 779 l 912 523 q 887 382 902 463 q 856 202 873 301 q 833 79 838 104 q 789 26 820 26 q 710 45 739 26 q 652 109 681 64 q 507 409 648 117 q 340 701 367 701 q 326 671 332 701 q 241 219 241 249 q 251 157 241 189 q 261 106 261 125 q 156 57 261 57 q 79 64 96 57 q 62 92 62 72 q 92 180 62 113 q 136 310 122 247 q 160 468 149 374 q 190 672 171 562 q 209 808 209 782 q 205 854 209 833 l 200 879 q 192 937 192 915 q 199 966 192 958 q 297 989 220 989 q 459 873 375 989 q 580 661 516 795 q 689 430 644 528 q 736 333 734 333 q 750 359 744 333 q 828 806 828 691 l 817 903 q 955 999 817 999 z "},"":{"ha":769,"x_min":70,"x_max":723,"o":"m 678 1023 q 723 999 723 1023 l 723 995 q 559 825 723 959 q 444 767 488 767 l 427 767 q 408 786 408 767 l 408 793 q 543 981 408 829 q 630 1020 577 1020 q 643 1022 642 1022 l 665 1023 l 678 1023 m 265 682 q 309 648 299 682 q 333 592 326 592 q 384 618 345 592 q 424 644 422 644 q 567 686 498 686 q 675 645 635 686 q 715 525 715 603 q 695 366 715 480 q 675 212 675 252 q 683 139 675 172 q 690 100 690 106 q 668 51 690 65 q 550 24 625 24 q 511 38 522 24 q 500 103 500 52 q 526 288 500 153 q 553 473 553 426 q 467 568 553 567 q 385 532 432 568 q 317 451 338 496 q 276 305 296 405 q 252 167 256 205 q 233 83 248 130 q 176 22 214 22 l 161 22 q 84 45 112 22 q 70 99 70 58 l 70 115 q 111 275 70 125 q 131 430 131 347 l 125 497 q 180 653 125 576 q 265 682 201 682 z "},"":{"ha":1268,"x_min":81,"x_max":1265,"o":"m 254 377 l 254 347 q 304 173 254 235 q 435 111 354 111 l 446 111 l 456 112 q 551 134 519 112 q 606 211 583 156 q 677 466 650 314 q 704 694 704 617 l 704 732 q 581 832 704 832 l 561 832 q 451 803 507 831 q 283 563 343 747 q 254 377 254 470 m 820 5 q 772 14 802 5 l 751 22 q 709 33 720 33 q 587 13 699 33 q 411 -7 475 -7 q 282 15 346 -7 q 106 199 156 58 q 81 338 81 269 l 81 367 q 122 594 81 480 q 233 788 163 709 q 389 908 303 867 q 595 949 474 949 q 723 931 646 949 q 849 912 801 912 l 869 917 l 890 925 l 913 932 q 1028 938 941 938 q 1253 876 1200 938 q 1265 850 1265 862 q 1201 808 1265 808 l 1131 815 q 1048 818 1100 818 q 915 770 953 818 q 878 606 878 722 q 905 558 878 570 q 944 555 913 555 q 1021 561 975 555 l 1072 569 l 1096 570 q 1149 521 1149 570 q 1126 429 1149 455 q 1061 404 1103 404 q 1008 414 1055 404 q 940 425 961 425 q 840 382 865 425 q 800 203 800 311 q 932 123 800 123 q 1042 131 998 123 q 1118 139 1087 139 q 1149 126 1149 139 q 1131 91 1149 114 q 1040 25 1093 44 q 820 5 988 5 z "},"":{"ha":1083,"x_min":66,"x_max":1074,"o":"m 321 105 l 345 105 q 404 128 370 105 q 458 187 438 151 q 515 380 515 288 l 515 387 l 516 393 l 517 412 l 517 445 q 491 545 517 511 q 429 579 465 579 l 404 579 q 347 558 381 579 q 287 492 313 538 q 228 278 228 387 l 228 246 q 256 141 228 178 q 321 105 283 105 m 689 416 l 689 409 q 711 391 689 391 l 718 391 l 722 391 l 765 395 q 814 403 810 403 q 906 433 871 403 q 928 493 928 452 l 928 508 q 909 560 928 538 q 858 582 890 582 l 850 582 q 744 527 798 582 q 689 416 689 473 m 676 243 q 706 153 676 186 q 797 121 736 121 q 879 142 827 121 q 945 163 932 163 q 996 127 996 163 q 907 31 996 75 q 762 -4 835 -4 q 652 11 690 -4 q 581 56 615 26 q 543 87 547 87 q 495 58 538 87 q 409 12 452 29 q 310 -5 366 -5 l 291 -5 q 90 125 144 -5 q 66 236 66 180 l 66 256 q 94 416 66 336 q 283 652 151 585 q 427 687 353 687 l 446 687 q 599 629 534 687 q 644 594 640 594 q 669 610 648 594 q 874 688 829 688 q 881 687 878 688 q 1021 640 968 687 q 1074 511 1074 593 l 1074 492 q 1053 409 1074 452 q 1003 346 1033 366 q 842 307 973 326 q 708 286 710 287 q 676 243 676 275 z "},"":{"ha":756,"x_min":65,"x_max":760,"o":"m 496 1034 l 491 1034 q 420 1079 465 1034 q 333 1206 333 1166 l 333 1211 q 385 1234 333 1234 q 468 1211 437 1234 q 513 1173 498 1188 q 533 1158 528 1158 q 566 1187 537 1158 q 743 1263 643 1263 q 760 1251 760 1263 q 559 1053 760 1216 q 496 1034 537 1034 m 755 882 q 736 818 755 852 q 707 783 718 783 q 614 832 696 783 q 477 880 533 880 q 384 846 420 880 q 347 761 347 812 q 391 669 347 711 q 517 596 414 648 q 667 488 619 544 q 715 353 715 431 q 610 120 715 205 q 345 35 505 35 q 82 122 143 35 q 65 174 65 146 q 85 238 65 203 q 127 273 105 273 q 202 235 149 273 q 289 181 256 197 q 379 165 321 165 q 478 204 438 165 q 518 299 518 243 q 467 396 518 354 q 354 465 448 412 q 222 559 259 519 q 163 712 163 623 q 255 919 163 836 q 356 981 295 955 q 492 1006 417 1006 l 514 1006 q 697 971 639 1006 q 755 882 755 937 z "},"":{"ha":574,"x_min":38,"x_max":619,"o":"m 598 1004 q 619 989 619 1004 q 575 936 619 975 q 511 877 530 898 q 375 765 407 765 l 370 766 l 366 766 q 302 810 340 766 q 209 964 209 920 q 254 985 209 985 q 340 947 299 985 q 372 917 357 932 l 386 902 q 403 887 399 887 q 442 925 407 887 q 506 984 477 964 q 575 1005 534 1005 l 581 1005 q 598 1004 592 1004 m 352 715 l 383 715 q 502 692 439 715 q 565 644 565 668 q 546 584 565 614 q 511 553 526 553 q 442 580 495 553 q 350 606 389 606 q 292 584 311 606 q 273 526 273 562 q 366 441 273 486 q 493 355 458 396 q 529 252 529 315 q 455 96 529 161 q 262 31 380 31 l 245 31 q 106 56 174 31 q 38 111 38 81 q 60 180 38 156 q 90 205 81 205 q 163 170 99 205 q 268 136 227 136 q 334 160 309 136 q 359 216 359 184 q 338 268 359 248 q 247 327 317 289 q 142 402 176 364 q 108 502 108 439 q 178 652 108 589 q 352 715 248 715 z "},"":{"ha":826,"x_min":144,"x_max":903,"o":"m 519 1144 l 515 1121 q 494 1071 515 1097 q 444 1045 472 1045 l 429 1043 l 409 1043 q 355 1082 355 1043 l 353 1098 l 353 1112 l 353 1115 l 353 1121 q 355 1130 355 1126 q 381 1193 355 1156 q 425 1214 396 1214 q 434 1215 431 1215 l 445 1217 l 459 1217 q 516 1181 516 1217 q 517 1173 517 1175 l 519 1162 l 519 1144 m 687 1042 q 624 1094 624 1042 l 624 1117 q 626 1131 626 1125 q 652 1195 626 1173 q 715 1217 679 1217 l 730 1217 q 776 1203 762 1217 q 790 1160 790 1189 l 790 1148 l 789 1136 l 787 1122 q 760 1065 787 1103 q 715 1045 746 1045 q 707 1044 710 1044 l 692 1042 l 687 1042 m 477 562 q 641 764 507 562 q 685 851 667 803 q 705 901 703 899 q 827 941 739 941 l 846 941 q 903 909 903 941 q 833 813 903 888 q 686 614 806 783 q 555 426 567 446 q 519 328 543 406 q 496 193 496 251 l 500 117 q 474 37 500 66 q 415 8 449 8 l 397 8 q 282 18 304 8 q 260 64 260 28 q 281 125 260 79 q 345 370 345 261 q 322 494 345 437 l 277 594 q 241 683 271 608 q 178 815 211 758 q 144 897 144 873 q 173 929 144 921 q 262 938 202 938 q 372 888 351 938 q 383 828 375 882 q 404 733 391 774 q 477 562 460 562 z "},"":{"ha":802,"x_min":31,"x_max":854,"o":"m 553 1032 l 542 1032 l 536 1033 q 479 1067 511 1033 q 378 1221 378 1178 l 378 1226 q 433 1251 378 1251 q 516 1202 463 1251 q 573 1153 570 1153 q 646 1203 576 1153 q 758 1253 716 1253 l 763 1253 q 795 1230 795 1253 q 633 1068 795 1194 q 553 1032 586 1032 m 854 924 q 815 834 854 889 q 533 478 776 779 q 290 156 290 177 q 382 125 290 125 q 551 145 475 125 l 570 151 l 610 164 q 687 183 672 183 q 724 142 724 183 q 690 43 724 70 q 528 2 638 2 l 117 2 q 31 30 31 2 l 31 49 q 311 435 31 93 q 591 810 591 777 q 511 831 591 831 q 382 818 431 831 q 282 786 332 804 q 220 769 231 769 q 188 812 188 769 q 220 910 188 884 q 382 951 272 951 l 430 952 l 503 953 l 743 953 q 854 924 854 953 z "},"":{"ha":646,"x_min":30,"x_max":663,"o":"m 622 1004 l 632 1004 q 663 984 663 1004 l 663 979 q 502 802 663 938 q 427 766 459 766 l 416 766 q 366 791 385 766 q 261 968 261 926 l 261 974 q 303 1002 261 1002 q 382 959 345 1002 q 445 891 439 891 q 479 916 450 891 q 622 1004 583 1004 m 656 648 q 465 387 656 606 q 274 144 274 168 q 377 127 274 127 q 470 137 412 127 q 530 147 527 147 q 570 99 570 147 q 546 24 570 51 q 447 -3 521 -3 l 395 -3 q 286 3 389 -3 q 135 9 182 9 l 100 7 q 66 5 77 5 q 30 33 30 5 q 222 294 30 73 q 415 537 415 515 q 359 551 415 551 q 282 547 303 551 q 221 531 261 543 q 163 519 182 519 q 135 574 135 519 q 165 653 135 629 q 288 677 195 677 l 322 677 l 532 671 l 585 672 l 618 673 q 656 648 656 673 z "},"":{"ha":612,"x_min":-68,"x_max":713,"o":"m 454 706 q 492 656 454 674 q 534 650 503 652 q 579 638 565 648 q 593 594 593 629 q 543 553 593 570 q 493 543 519 546 q 448 526 467 539 q 412 481 429 513 q 332 190 395 449 q 225 -136 270 -69 q 18 -262 140 -262 q -68 -224 -68 -262 q -33 -146 -68 -181 q 14 -129 -20 -133 q 74 -107 47 -124 q 117 -50 100 -90 q 182 202 134 -10 q 231 478 231 414 q 192 566 231 541 q 175 592 175 576 q 203 635 175 609 q 256 676 231 661 q 290 704 280 690 q 312 753 299 718 q 342 827 325 789 q 404 905 359 865 q 600 974 480 974 q 688 958 663 974 q 713 931 713 942 q 679 850 713 884 q 635 838 666 838 l 566 849 q 494 812 522 849 q 454 706 454 759 z "},"":{"ha":610,"x_min":176,"x_max":596,"o":"m 423 987 l 429 987 q 492 958 471 987 q 596 779 596 811 l 596 774 q 538 747 596 747 q 458 803 509 747 q 400 859 406 859 q 328 802 394 859 q 219 745 262 745 q 176 767 176 745 l 176 772 q 340 949 176 797 q 423 987 382 987 z "},"":{"ha":574,"x_min":200,"x_max":613,"o":"m 366 726 l 359 726 l 354 727 q 302 754 321 727 q 200 932 200 897 l 200 938 q 254 966 200 966 q 335 909 290 966 q 386 852 380 852 q 420 876 392 852 q 475 921 449 900 q 575 969 536 969 q 613 949 613 969 l 613 945 q 439 755 613 903 q 366 726 404 726 z "},"":{"ha":598,"x_min":180,"x_max":624,"o":"m 380 704 l 360 704 q 236 754 291 704 q 180 869 180 805 l 180 876 q 242 910 180 910 q 287 877 268 910 q 330 828 307 843 q 403 812 354 812 q 502 862 452 812 q 573 911 551 911 l 578 911 q 624 882 624 911 l 624 877 q 596 824 624 865 q 535 759 569 783 q 380 704 458 704 z "},"":{"ha":495,"x_min":257,"x_max":448,"o":"m 448 863 l 448 838 q 416 747 448 784 q 352 727 399 727 l 332 727 q 273 741 290 727 q 257 781 257 754 l 257 806 q 283 888 257 847 q 327 913 298 913 l 334 914 l 336 915 l 353 916 l 379 916 l 398 913 q 448 863 448 913 z "},"":{"ha":551,"x_min":197,"x_max":501,"o":"m 368 898 l 350 898 q 307 875 325 898 q 288 838 288 852 l 286 824 l 286 809 q 288 798 288 801 q 334 760 288 760 l 349 760 q 390 779 370 760 q 410 814 410 799 l 413 831 l 413 848 q 411 859 411 857 q 368 898 411 898 m 340 683 l 325 683 q 235 717 273 683 q 197 806 197 751 l 197 815 q 248 929 197 884 q 364 975 299 975 l 369 975 q 464 941 426 975 q 501 862 501 907 l 501 833 q 449 726 501 769 q 340 683 396 683 z "},"":{"ha":507,"x_min":82,"x_max":349,"o":"m 319 -182 q 348 -214 348 -182 q 324 -261 348 -246 q 217 -290 280 -290 l 205 -290 q 116 -261 150 -290 q 82 -188 82 -233 l 82 -176 l 83 -170 q 162 -38 83 -111 q 315 35 241 35 l 321 35 q 349 16 349 35 q 315 -20 349 7 q 275 -53 281 -47 q 223 -143 223 -100 q 288 -186 223 -186 l 319 -182 z "},"":{"ha":631,"x_min":166,"x_max":661,"o":"m 328 946 l 347 946 q 433 913 382 946 q 510 880 485 880 q 567 908 536 880 q 621 937 598 937 q 661 907 661 937 q 610 814 661 865 q 505 763 559 763 l 480 763 q 396 797 448 763 q 318 830 344 830 q 261 801 293 830 q 198 771 229 771 q 166 801 166 771 q 220 896 166 846 q 328 946 274 946 z "},"":{"ha":690,"x_min":211,"x_max":736,"o":"m 459 926 q 494 909 494 926 l 494 907 q 475 867 494 891 q 320 697 384 754 q 258 672 292 672 l 254 672 l 250 673 q 211 686 211 673 l 211 693 q 331 890 211 719 q 393 924 354 924 q 405 925 401 925 l 426 926 l 459 926 m 469 672 q 438 690 438 672 l 438 694 q 491 785 438 701 q 577 897 545 868 q 674 926 609 926 l 687 926 q 736 910 736 926 l 736 907 q 556 703 736 883 q 489 673 527 673 l 481 672 l 469 672 z "},"":{"ha":747,"x_min":83,"x_max":701,"o":"m 640 317 l 106 317 q 83 336 83 317 q 99 416 83 383 q 137 431 107 431 l 679 431 q 701 412 701 431 q 682 328 701 352 q 640 317 674 317 z "},"":{"ha":1125,"x_min":76,"x_max":1090,"o":"m 1008 317 l 100 317 q 76 336 76 317 l 76 346 q 91 413 76 394 q 148 431 106 431 l 1067 431 q 1090 412 1090 431 l 1090 402 q 1076 335 1090 354 q 1008 317 1061 317 z "},"":{"ha":357,"x_min":143,"x_max":355,"o":"m 355 977 l 355 966 q 328 919 355 964 q 300 838 300 874 q 312 797 300 831 q 323 729 323 764 q 299 674 323 695 q 225 652 275 652 l 210 652 q 143 697 143 652 l 143 717 q 145 742 145 733 q 208 918 145 834 q 319 1002 271 1002 q 355 977 355 1002 z "},"":{"ha":357,"x_min":143,"x_max":370,"o":"m 143 673 l 143 680 q 173 728 143 682 q 203 806 203 773 q 196 844 203 816 q 189 897 189 873 q 214 972 189 953 q 300 991 238 991 l 311 991 q 370 960 370 991 l 370 947 l 369 942 q 320 774 369 852 q 226 661 272 695 q 182 642 201 642 q 143 673 143 642 z "},"":{"ha":362,"x_min":39,"x_max":262,"o":"m 39 -130 l 39 -123 q 57 -90 39 -114 q 87 -43 75 -65 q 99 -4 99 -22 q 92 40 99 14 q 85 109 85 66 q 110 170 85 152 q 195 189 135 189 l 211 189 q 262 153 262 189 l 262 144 l 262 138 l 262 134 q 213 -30 262 50 q 127 -134 164 -109 q 75 -158 91 -158 q 39 -130 39 -158 z "},"":{"ha":578,"x_min":130,"x_max":599,"o":"m 307 994 l 316 994 q 348 966 348 994 l 348 963 q 320 910 348 952 q 292 830 292 868 q 300 795 292 829 q 309 734 309 762 q 212 647 309 647 l 197 647 q 130 690 130 647 l 130 695 l 130 701 q 130 710 130 705 q 177 872 130 796 q 258 971 224 948 q 307 994 293 994 m 381 690 l 381 700 l 382 705 l 382 709 q 441 894 382 797 q 510 971 475 949 q 562 994 544 994 q 599 966 599 994 l 599 962 q 571 912 599 960 q 543 841 543 864 q 551 793 543 817 q 560 727 560 769 q 463 647 560 647 l 448 647 q 381 690 381 647 z "},"":{"ha":572,"x_min":123,"x_max":598,"o":"m 181 802 q 175 832 181 808 q 170 898 170 855 q 194 960 170 941 q 273 979 218 979 l 294 979 q 347 945 347 979 l 347 935 l 347 930 l 347 926 q 303 773 347 854 q 219 662 260 692 q 161 632 179 632 q 123 663 123 632 l 123 669 q 151 716 123 673 q 180 781 180 760 l 181 789 l 181 802 m 598 947 l 598 929 q 537 743 598 842 q 466 658 501 685 q 410 631 430 631 q 372 663 372 631 l 372 667 q 391 700 373 675 q 433 798 433 758 q 427 833 433 811 q 420 896 420 856 q 443 957 420 935 q 526 979 465 979 l 547 979 q 598 947 598 979 z "},"":{"ha":596,"x_min":27,"x_max":508,"o":"m 75 105 q 174 181 75 181 l 205 181 q 255 142 255 181 l 254 138 l 254 133 q 196 -50 254 45 q 106 -152 157 -115 q 66 -168 85 -168 l 62 -168 q 27 -134 27 -168 q 57 -83 27 -128 q 87 -6 87 -38 l 75 58 l 75 63 l 74 67 l 75 96 q 75 105 75 100 m 280 -140 l 280 -133 q 299 -99 280 -125 q 340 -17 340 -42 q 334 32 340 9 q 328 97 328 56 q 351 160 328 139 q 430 181 374 181 l 450 181 q 508 149 508 181 l 508 130 q 507 115 507 121 q 438 -68 507 31 q 322 -168 369 -168 l 318 -168 q 280 -140 280 -168 z "},"":{"ha":629,"x_min":92,"x_max":652,"o":"m 652 665 q 609 609 652 627 q 475 585 551 585 q 412 511 431 585 q 408 484 410 500 q 334 43 400 349 q 316 -58 328 12 q 300 -136 304 -127 q 235 -172 283 -172 l 219 -172 q 188 -132 188 -172 q 206 11 188 -131 q 238 265 224 152 q 269 450 251 378 q 287 530 287 522 q 264 578 287 568 q 197 584 254 584 q 116 600 140 584 q 92 630 92 615 q 118 699 92 675 q 176 722 143 722 l 192 722 l 209 719 l 225 717 q 287 711 283 711 q 321 738 312 711 q 330 853 330 765 q 350 957 330 942 q 431 972 370 972 l 450 972 q 494 928 494 972 q 471 843 494 923 q 448 743 448 763 q 492 711 448 711 l 589 721 q 639 703 625 721 q 652 665 652 685 z "},"":{"ha":641,"x_min":56,"x_max":659,"o":"m 179 -156 q 203 -51 179 -152 q 227 70 227 50 q 209 99 227 91 q 144 109 191 106 q 76 127 96 112 q 56 179 56 142 q 148 247 56 247 q 229 272 212 247 q 257 355 246 297 q 283 463 268 413 q 298 548 298 512 q 224 585 298 585 q 132 597 151 585 q 113 646 113 610 q 136 702 113 682 q 199 722 159 722 q 241 718 201 722 l 301 711 q 336 749 328 711 q 344 890 344 787 q 375 957 344 941 q 458 973 407 973 q 510 944 510 973 q 485 847 510 932 q 460 728 460 762 q 492 709 460 709 q 542 715 494 709 q 611 722 589 722 q 646 710 633 722 q 659 657 659 699 q 623 599 659 616 q 503 589 602 589 q 439 568 447 589 q 407 327 407 486 q 436 264 407 278 q 483 255 445 260 q 521 250 520 250 q 572 217 572 239 q 522 134 572 165 q 443 118 507 124 q 365 98 378 112 q 345 -16 353 83 q 330 -132 338 -116 q 222 -180 307 -180 q 179 -156 179 -180 z "},"":{"ha":604,"x_min":136,"x_max":517,"o":"m 136 397 l 136 422 q 200 559 136 501 q 336 618 263 618 l 349 618 q 465 570 414 618 q 517 456 517 523 l 517 431 q 453 294 517 352 q 312 235 390 235 q 185 284 235 235 q 136 397 136 334 z "},"":{"ha":1053,"x_min":54,"x_max":954,"o":"m 253 102 q 252 85 253 102 q 222 17 252 43 q 151 -8 192 -8 l 134 -8 q 54 61 54 -8 l 54 81 q 87 165 54 125 q 157 189 108 189 l 176 189 l 196 186 q 234 169 215 186 q 254 116 254 153 l 254 106 l 253 102 m 604 106 q 575 21 604 50 q 500 -8 546 -8 l 484 -8 q 404 61 404 -8 l 404 78 q 437 165 404 125 q 507 189 458 189 l 526 189 q 550 186 536 186 q 583 171 564 186 q 602 132 602 155 l 604 116 l 604 106 m 953 102 l 951 85 q 922 17 951 43 q 850 -8 892 -8 l 833 -8 q 775 9 795 -8 q 755 52 755 26 l 753 58 l 753 81 q 787 165 753 125 q 857 189 808 189 l 876 189 q 892 186 886 186 q 937 167 920 186 q 954 116 954 148 l 954 106 l 953 102 z "},"":{"ha":1383,"x_min":61,"x_max":1330,"o":"m 208 644 q 226 584 208 602 q 264 565 245 565 l 275 565 q 346 620 315 565 q 376 737 376 674 l 376 768 q 359 824 376 803 q 317 844 341 844 l 313 844 q 243 796 275 844 q 211 699 211 747 l 210 690 l 208 663 l 208 644 m 699 349 l 689 349 q 618 294 649 349 q 587 168 587 238 l 587 156 q 602 95 587 121 q 648 69 616 69 l 652 70 q 715 108 690 70 q 753 212 753 164 q 755 231 755 227 l 757 258 l 757 262 q 741 325 757 300 q 699 349 726 349 m 1152 349 l 1141 349 q 1075 302 1101 349 q 1040 175 1040 238 l 1040 148 q 1042 120 1042 136 q 1060 87 1042 105 q 1101 69 1078 69 l 1104 69 q 1178 124 1147 69 q 1208 243 1208 179 l 1208 271 q 1191 329 1208 308 q 1152 349 1173 349 m 86 640 l 86 662 q 157 849 86 767 q 328 930 228 930 l 342 930 q 454 884 410 930 q 497 768 497 837 l 497 747 q 477 647 497 701 q 424 557 457 593 q 256 478 351 478 l 248 478 q 133 522 180 478 q 86 640 86 566 m 852 905 l 865 905 q 908 895 908 905 l 908 888 q 886 849 908 882 q 208 50 783 694 q 127 5 168 5 l 115 5 q 61 16 61 5 l 61 24 q 90 74 61 34 q 316 342 119 114 q 605 682 513 570 q 766 867 697 793 q 852 905 801 905 m 467 144 l 467 166 q 534 351 467 273 q 618 416 574 396 q 700 435 663 435 l 729 435 q 834 389 791 435 q 878 281 878 342 l 878 246 q 807 64 878 145 q 637 -17 737 -17 l 630 -17 q 514 27 561 -17 q 467 144 467 71 m 1330 275 l 1330 253 q 1310 151 1330 204 q 1257 62 1291 98 q 1090 -17 1183 -17 l 1082 -17 q 962 31 1006 -17 q 918 151 918 78 l 918 159 q 991 356 918 273 q 1070 415 1024 395 q 1152 435 1116 435 l 1181 435 q 1290 385 1250 435 q 1330 275 1330 335 z "},"":{"ha":510,"x_min":109,"x_max":471,"o":"m 271 360 q 329 255 271 348 q 388 140 388 162 q 372 103 388 118 q 341 88 356 88 l 335 88 q 260 141 304 88 q 109 355 109 323 l 109 361 q 338 584 109 382 q 427 632 392 632 l 433 632 q 471 602 471 632 q 371 470 471 576 q 271 360 271 363 z "},"":{"ha":512,"x_min":93,"x_max":448,"o":"m 93 121 q 193 254 93 154 q 293 367 293 354 q 234 469 293 379 q 176 596 176 559 q 221 632 176 632 l 227 632 q 290 592 254 632 q 448 366 448 411 q 309 221 448 352 q 132 90 170 90 l 126 90 q 93 115 93 90 l 93 121 z "},"":{"ha":511,"x_min":-115,"x_max":739,"o":"m 557 865 q 689 963 640 963 q 739 944 739 963 l 739 934 q 721 902 739 926 q 66 75 486 578 q -66 -24 -16 -24 q -115 -4 -115 -24 l -115 6 q -91 47 -115 16 q 557 865 413 692 z "},"":{"ha":833,"x_min":54,"x_max":843,"o":"m 366 502 q 330 456 330 488 q 452 425 330 425 q 574 378 574 425 q 551 351 574 372 q 491 323 527 330 q 375 290 399 306 q 351 246 351 273 q 396 170 351 201 q 513 138 441 138 q 611 155 548 138 q 687 172 673 172 q 726 121 726 172 q 615 34 726 87 q 468 0 544 0 q 181 173 261 0 q 111 289 142 258 q 54 377 54 348 q 89 421 54 406 l 111 427 q 144 444 140 435 q 149 488 149 452 q 118 511 149 498 q 88 547 88 524 q 134 607 88 570 q 250 722 218 674 q 486 915 349 869 q 613 937 553 937 l 639 937 q 827 865 778 937 q 843 832 843 842 q 822 766 843 789 q 783 743 800 743 q 701 773 766 743 q 585 802 636 802 q 486 770 533 802 q 417 671 417 722 q 452 630 417 648 q 542 610 486 612 q 607 604 597 608 q 633 564 633 593 q 591 518 633 534 q 477 509 569 509 q 366 502 385 509 z "},"":{"ha":1077,"x_min":151,"x_max":1071,"o":"m 532 938 l 532 914 q 490 869 532 869 l 422 878 q 387 833 397 878 q 363 604 363 727 l 368 567 q 357 522 368 534 q 312 510 345 510 l 286 510 q 239 541 239 510 q 247 582 239 551 q 266 710 255 612 q 277 832 277 807 q 239 875 277 875 q 213 869 235 875 q 178 863 191 863 q 151 898 151 863 l 151 906 q 163 948 151 936 q 220 960 176 960 l 238 961 l 372 963 l 416 963 q 532 938 532 963 m 667 787 q 648 673 664 787 q 629 553 631 559 q 575 516 617 516 q 534 542 534 516 l 534 556 q 544 603 534 566 q 561 683 555 639 l 577 800 q 586 859 583 838 q 591 899 589 879 q 593 924 592 920 q 678 958 602 958 q 730 920 711 958 q 755 845 734 913 q 791 727 777 776 q 807 677 804 677 q 866 792 809 677 q 947 934 924 907 q 1021 962 970 962 q 1071 924 1071 962 l 1067 895 q 1064 863 1065 880 l 1060 795 l 1059 779 q 1050 612 1050 644 l 1051 597 q 1053 568 1053 577 q 1004 514 1053 514 q 949 529 962 514 q 936 572 936 544 l 943 615 q 946 653 945 626 q 950 728 947 681 q 954 783 954 774 q 951 791 954 791 q 907 714 947 791 l 845 595 q 773 547 813 547 q 712 667 747 547 q 667 787 677 787 z "},"":{"ha":713,"x_min":76,"x_max":677,"o":"m 144 459 l 652 459 q 677 444 677 459 l 677 431 q 649 353 677 363 q 355 349 637 349 l 298 349 l 270 348 l 109 348 q 76 370 76 348 q 89 442 76 425 q 144 459 102 459 z "}}}
